<svg xmlns="http://www.w3.org/2000/svg" width="25.793" height="21.141" viewBox="0 0 25.793 21.141">
  <path id="Bio" d="M11.34,22.91a.169.169,0,0,0,.05.02c-.08.28-.16.55-.23.83a6.54,6.54,0,0,0,.32,4.38,7.158,7.158,0,0,0,7.98,3.98.658.658,0,0,1,.71.22,7.014,7.014,0,0,0,.8.74,8.079,8.079,0,0,0,5.09,1.95,7.654,7.654,0,0,0,7.47-5.29c.54-1.55.89-3.17,1.29-4.77a19.457,19.457,0,0,1,1.66-4.85,1.608,1.608,0,0,0-1.31-2.47c-.85-.06-1.71-.1-2.56-.1a20.42,20.42,0,0,0-9.57,1.99c-.25.12-.34.01-.47-.15a27.06,27.06,0,0,0-3.88-3.91,7.4,7.4,0,0,0-2.48-1.49,1.247,1.247,0,0,0-1.77.93,3.374,3.374,0,0,0-.09.34,14.823,14.823,0,0,1-1.25,3.72C12.51,20.27,11.93,21.59,11.34,22.91Zm9.24,8.94c.41-.23.79-.41,1.15-.64a6.764,6.764,0,0,0,2.71-3.41,2.443,2.443,0,0,1,.4-.7,17.736,17.736,0,0,1,4.06-3.77,17.946,17.946,0,0,1,1.93-.91c.07-.03.17-.03.22-.08a2.5,2.5,0,0,0,.25-.38c-.14-.07-.28-.2-.42-.2a2.32,2.32,0,0,0-.67.19A11.824,11.824,0,0,0,26,24.82c-.39.38-.76.77-1.17,1.19a9.374,9.374,0,0,0-1.63-5.8c.78-.33,1.5-.69,2.26-.94a23.837,23.837,0,0,1,9.75-.98.817.817,0,0,1,.64,1.29,16.584,16.584,0,0,0-1.67,4.83,30.773,30.773,0,0,1-1.37,5.06,7.479,7.479,0,0,1-8.03,4.69A6.939,6.939,0,0,1,20.58,31.85Zm-1.61-.28c.02-1.22.06-2.39.04-3.55a24.4,24.4,0,0,0-1.49-8.46c-.08-.2-.05-.55-.42-.48-.25.05-.33.41-.19.77a27.247,27.247,0,0,1,1.41,11.61c0,.05-.02.1-.05.27a12.469,12.469,0,0,1-1.85-.22,6.546,6.546,0,0,1-4.53-7.66,17.271,17.271,0,0,1,1.62-4.16,15.568,15.568,0,0,0,1.67-4.63.687.687,0,0,1,1.08-.46c.35.2.68.43,1.01.66a19.066,19.066,0,0,1,5.43,5.6,7.735,7.735,0,0,1,.69,7.27A5.673,5.673,0,0,1,18.97,31.57Z" transform="translate(-10.928 -13.89)"/>
</svg>
