<svg xmlns="http://www.w3.org/2000/svg" width="26.597" height="20.983" viewBox="0 0 26.597 20.983">
  <g id="commerce_equitable" data-name="commerce equitable" transform="translate(-10.673 -13.947)">
    <g id="Groupe_33" data-name="Groupe 33">
      <path id="Tracé_100" data-name="Tracé 100" d="M13.01,25.73c.02-.28.05-.56.07-.84a3.305,3.305,0,0,0,0-.77.17.17,0,0,0-.01-.07c-.01-.19.08-.28.27-.29a1.376,1.376,0,0,1,.56.12,5.833,5.833,0,0,1,.97.48c.04.02.06.04.1,0a3.97,3.97,0,0,1,1.65-.98c.16-.05.32-.1.48-.14a.313.313,0,0,1,.4.37,3.8,3.8,0,0,0,0,1.01,7.773,7.773,0,0,1,.06.97,1.51,1.51,0,0,1-1.05,1.46,1.574,1.574,0,0,1-1.07-.04.663.663,0,0,1-.19-.09.12.12,0,0,0-.14,0,1.4,1.4,0,0,1-1.73-.23,1.289,1.289,0,0,1-.34-.79c0-.06-.01-.11-.01-.17Zm2.28,1.07a1.445,1.445,0,0,0,.93.17,1.47,1.47,0,0,0,1.19-1.38,5.88,5.88,0,0,0-.07-1.03,3.352,3.352,0,0,1,0-1,.16.16,0,0,0-.2-.2,4.724,4.724,0,0,0-1.75.8c-.12.09-.24.21-.36.32a1.827,1.827,0,0,1,.67.97c.05-.1.09-.2.14-.3a2.25,2.25,0,0,1,.6-.8.763.763,0,0,1,.11-.08c.02-.01.06.01.09.01-.01.03-.01.06-.02.09,0,.01-.02.02-.04.03a4.107,4.107,0,0,0-.3.29,3.4,3.4,0,0,0-.51.96.4.4,0,0,0-.03.15,1.336,1.336,0,0,1-.29.81A2.315,2.315,0,0,1,15.29,26.8Zm-.32.05a1.094,1.094,0,0,0,.6-.92,1.552,1.552,0,0,0-.59-1.31,3.651,3.651,0,0,0-1.36-.69l-.23-.06c-.11-.02-.19.05-.17.15a2.879,2.879,0,0,1-.02.97,3.688,3.688,0,0,0-.04.88A1.268,1.268,0,0,0,14.49,27a2.325,2.325,0,0,0,.36-.08.2.2,0,0,0-.01-.05,5.384,5.384,0,0,0-1-2.07c-.05-.06-.06-.13-.01-.15.06-.04.08.03.11.06a4.877,4.877,0,0,1,.82,1.48Q14.865,26.505,14.97,26.85Z"/>
      <path id="Tracé_101" data-name="Tracé 101" d="M14.38,27.21a1.5,1.5,0,0,1-1.08-.46,1.375,1.375,0,0,1-.36-.85.277.277,0,0,0-.01-.09h-.01v-.09l.07-.84a3.133,3.133,0,0,0,0-.75c0-.02-.01-.05-.01-.08a.393.393,0,0,1,.09-.28.334.334,0,0,1,.27-.1,1.766,1.766,0,0,1,.59.12,4.983,4.983,0,0,1,.98.49,4.148,4.148,0,0,1,1.67-.99c.15-.05.31-.1.49-.15a.389.389,0,0,1,.39.09.417.417,0,0,1,.12.39,3.289,3.289,0,0,0,0,.94v.04c.01.07.01.13.02.2.02.25.05.51.05.77a1.594,1.594,0,0,1-1.11,1.54,1.694,1.694,0,0,1-1.13-.04c-.08-.03-.14-.06-.21-.09a.063.063,0,0,0-.06,0A1.329,1.329,0,0,1,14.38,27.21Zm-1.02-3.25c-.02,0-.03.01-.04.01s-.01.02-.01.04a3.286,3.286,0,0,1-.01.99,3.465,3.465,0,0,0-.04.85,1.2,1.2,0,0,0,1.23,1.06c.07-.01.15-.03.23-.05.01,0,.02-.01.03-.01a5.135,5.135,0,0,0-.97-1.99.241.241,0,0,1-.06-.19.145.145,0,0,1,.07-.1.141.141,0,0,1,.21.07.01.01,0,0,0,.01.01,4.765,4.765,0,0,1,.83,1.5l.15.45c.01.03.02.07.03.1a.988.988,0,0,0,.46-.79,1.416,1.416,0,0,0-.56-1.23A3.8,3.8,0,0,0,13.59,24l-.22-.06C13.37,23.96,13.36,23.96,13.36,23.96Zm2.07,2.81a1.286,1.286,0,0,0,.77.1,1.386,1.386,0,0,0,1.12-1.3,5.654,5.654,0,0,0-.07-1.01,3.231,3.231,0,0,1,0-1.03.078.078,0,0,0-.02-.08.059.059,0,0,0-.07-.01,4.579,4.579,0,0,0-1.71.79,2.253,2.253,0,0,0-.24.21c-.01.01-.03.02-.04.04a1.966,1.966,0,0,1,.55.74c.02-.03.03-.07.05-.1a2.532,2.532,0,0,1,.62-.83l.01-.01a.36.36,0,0,1,.12-.08.165.165,0,0,1,.12,0h.02l.1.01-.03.12a.309.309,0,0,1-.02.08.089.089,0,0,1-.06.06.9.9,0,0,1-.1.09c-.07.06-.14.13-.2.19a3.652,3.652,0,0,0-.5.93.5.5,0,0,0-.02.12,1.392,1.392,0,0,1-.31.86A.313.313,0,0,1,15.43,26.77Zm.21-1.24c.01.07.02.15.03.23a.188.188,0,0,1,.02-.08Z"/>
    </g>
    <g id="Groupe_34" data-name="Groupe 34">
      <path id="Tracé_102" data-name="Tracé 102" d="M32.62,27.43a2.258,2.258,0,0,1-1.53-.52,1.97,1.97,0,0,1-.63-1.14,2.352,2.352,0,0,1,.36-1.84,1.943,1.943,0,0,1,1.45-.87,2.488,2.488,0,0,1,1.49.26,1.955,1.955,0,0,1,1,1.37,2.285,2.285,0,0,1-.44,1.95,1.965,1.965,0,0,1-1.49.77A.822.822,0,0,1,32.62,27.43Zm-.1-4.26h-.11A1.786,1.786,0,0,0,31,23.9a2.348,2.348,0,0,0-.47,1.47,1.665,1.665,0,0,0,.17.73,2.033,2.033,0,0,0,.88.93,2.235,2.235,0,0,0,1.54.25,1.812,1.812,0,0,0,1.37-1.14,2.684,2.684,0,0,0,.19-.79,1.835,1.835,0,0,0-.3-1.21A2.208,2.208,0,0,0,32.52,23.17Z"/>
      <path id="Tracé_103" data-name="Tracé 103" d="M32.62,27.52h0a2.317,2.317,0,0,1-1.59-.54,2.05,2.05,0,0,1-.66-1.19,2.461,2.461,0,0,1,.38-1.91,2.025,2.025,0,0,1,1.51-.91,2.547,2.547,0,0,1,1.54.28,2.025,2.025,0,0,1,1.04,1.43,2.383,2.383,0,0,1-.45,2.02,2.034,2.034,0,0,1-1.55.8c-.05,0-.1.01-.15.01Zm-.17-4.27h-.04a1.7,1.7,0,0,0-1.34.69,2.284,2.284,0,0,0-.45,1.41,1.59,1.59,0,0,0,.16.7,1.954,1.954,0,0,0,.84.89,2.162,2.162,0,0,0,1.48.25,1.713,1.713,0,0,0,1.3-1.09,2.81,2.81,0,0,0,.18-.77,1.77,1.77,0,0,0-.28-1.15,2.087,2.087,0,0,0-1.78-.93h-.07Zm-1.41,3.49.11.11a1.816,1.816,0,0,0,.53.33,1.093,1.093,0,0,1-.15-.08A2.214,2.214,0,0,1,31.04,26.74Zm3.01-3.1a1.365,1.365,0,0,1,.17.17A1.365,1.365,0,0,0,34.05,23.64Z"/>
    </g>
    <g id="Groupe_35" data-name="Groupe 35">
      <path id="Tracé_104" data-name="Tracé 104" d="M32.7,26.66a.758.758,0,0,1-.03.16.1.1,0,0,1-.08.06c-.02,0-.06-.04-.07-.07a.59.59,0,0,1-.02-.14.526.526,0,0,1-.17-.04.923.923,0,0,1-.5-.65c-.01-.04-.01-.1.06-.11a.1.1,0,0,1,.11.1.631.631,0,0,0,.47.55.076.076,0,0,1,.04.01V25.36c0-.04-.01-.06-.06-.07a.688.688,0,0,1-.61-.71.712.712,0,0,1,.61-.74.06.06,0,0,0,.04-.01.318.318,0,0,1,.02-.14.145.145,0,0,1,.08-.09c.05-.01.07.04.08.09a.528.528,0,0,1,.01.13c.36.03.52.29.65.58a.611.611,0,0,1,.03.13c0,.04,0,.08-.06.09a.108.108,0,0,1-.11-.08.611.611,0,0,0-.43-.55c-.02-.01-.04-.01-.06-.02h-.02v1.22c.46.11.66.34.66.75A.719.719,0,0,1,32.7,26.66Zm-.18-2.7a.563.563,0,0,0-.51.58c0,.31.26.63.51.62Zm.17,1.37v1.2a.61.61,0,0,0,0-1.2Z"/>
      <path id="Tracé_105" data-name="Tracé 105" d="M32.59,26.97a.172.172,0,0,1-.15-.13.355.355,0,0,1-.02-.1.611.611,0,0,1-.13-.03.968.968,0,0,1-.54-.71.188.188,0,0,1,.02-.15.146.146,0,0,1,.11-.06.179.179,0,0,1,.14.04.219.219,0,0,1,.08.14.54.54,0,0,0,.34.45V25.38a.773.773,0,0,1-.66-.8.82.82,0,0,1,.66-.83.44.44,0,0,1,.02-.1.212.212,0,0,1,.15-.14.139.139,0,0,1,.11.02.219.219,0,0,1,.08.14.127.127,0,0,0,.01.06.892.892,0,0,1,.64.62.453.453,0,0,1,.03.16.157.157,0,0,1-.04.13.143.143,0,0,1-.11.05.181.181,0,0,1-.2-.16.516.516,0,0,0-.33-.46v1.04a.771.771,0,0,1,.66.82.809.809,0,0,1-.66.8.5.5,0,0,1-.02.12.315.315,0,0,1-.19.12Zm0-.34v.07a.127.127,0,0,1,.01-.06v-.03h0v.02Zm.19-1.2v1a.391.391,0,0,0,.16-.1.576.576,0,0,0,.16-.4.544.544,0,0,0-.17-.4A.237.237,0,0,0,32.78,25.43Zm-.21-.19a.055.055,0,0,1,.03.05v-.05Zm-.14-1.18a.582.582,0,0,0-.18.11.514.514,0,0,0-.15.37.608.608,0,0,0,.19.43.464.464,0,0,0,.14.09v-1Zm.26-.02Zm-.09-.17h.01v.01h.01v-.04Zm.04-.19Z"/>
    </g>
    <path id="Tracé_106" data-name="Tracé 106" d="M37.22,29.06a.743.743,0,0,1-.66.42.369.369,0,0,0-.26.17,1.2,1.2,0,0,1-1.18.7,31.856,31.856,0,0,1-5.26.01c-.46-.04-.65-.25-.75-.71a.664.664,0,0,0-.3-.38c-.55-.35-.62-.5-.5-1.12.73-3.64,1.7-7.21,2.72-10.78.03-.1.05-.2.08-.32a1.541,1.541,0,0,0-.19-.02c-1.74-.04-3.48-.08-5.21-.13a.662.662,0,0,0-.6.16.984.984,0,0,1-.34.17c0,1.09-.01,2.15,0,3.21.01,2.21.04,4.41.05,6.62.01,1.12,0,2.25,0,3.37a1.243,1.243,0,0,0,.41,1.02.863.863,0,0,1,.32.73.355.355,0,0,0,.27.38c.79.32,1.58.66,2.36,1.01a2.506,2.506,0,0,1,.63.45c.3.3.24.64-.17.76a4.583,4.583,0,0,1-1.22.15c-1.81-.01-3.62-.04-5.42-.05-.7,0-1.4.05-2.1.04a1.77,1.77,0,0,1-.68-.15c-.35-.15-.43-.48-.14-.71a6.436,6.436,0,0,1,1.22-.77,18.391,18.391,0,0,1,1.78-.72.349.349,0,0,0,.27-.38.827.827,0,0,1,.32-.73,1.272,1.272,0,0,0,.41-1.05c.01-2.91,0-5.81.02-8.72.01-1.38.05-2.75.08-4.13v-.27c-.21-.14-.4-.27-.59-.39a.168.168,0,0,0-.12-.03c-1.86.05-3.72.11-5.57.17a.892.892,0,0,0-.11.02c.02.09.04.18.06.26.75,2.83,1.51,5.66,2.24,8.49.2.79.3,1.61.45,2.42.01.04.01.09.02.13.13.53.13.53-.35.81a.746.746,0,0,0-.46.66c-.01.3-.34.52-.76.54-1.21.04-2.42.07-3.63.07-.62,0-1.24-.07-1.86-.13a1.027,1.027,0,0,1-.89-.62.525.525,0,0,0-.35-.21c-.28-.05-.5-.15-.57-.45a.653.653,0,0,1,.28-.7.279.279,0,0,0,.12-.18,35.507,35.507,0,0,1,1.6-5.33c.53-1.52,1.06-3.03,1.61-4.54.16-.44.38-.87.59-1.34a.8.8,0,0,1-.66-.5.669.669,0,0,1,.64-1.02c.41-.03.83-.06,1.24-.08l5.29-.3a.565.565,0,0,1,.13,0,.766.766,0,0,0,1.03-.55.536.536,0,0,1,.24-.23,2.4,2.4,0,0,1,1.78-.24,1.392,1.392,0,0,1,1.01.84c.06.15.15.18.31.19,1.43.05,2.85.11,4.28.18.92.05,1.83.12,2.75.18.56.03.78.17.84.55a.887.887,0,0,1-.64.97c-.02.01-.03.02-.07.04a1.536,1.536,0,0,0,.11.3,48.1,48.1,0,0,1,1.95,5.22c.47,1.41.94,2.82,1.39,4.23.13.42.2.86.29,1.29a.477.477,0,0,0,.22.38,1.147,1.147,0,0,1,.25.32A.828.828,0,0,0,37.22,29.06ZM31.33,16.97c-.04.16-.06.25-.08.35-.2.89-.39,1.79-.6,2.68-.55,2.28-1.11,4.57-1.65,6.85-.1.41-.14.83-.21,1.22,2.57.04,5.11.07,7.67.11-.02-.11-.03-.19-.05-.28-.24-.88-.44-1.78-.74-2.64-.93-2.72-1.9-5.43-2.86-8.14a.271.271,0,0,0-.19-.14C32.19,16.96,31.77,16.97,31.33,16.97ZM19.06,28.07a.975.975,0,0,0-.02-.23c-.19-.99-.35-1.99-.59-2.97-.42-1.77-.9-3.53-1.34-5.3-.21-.84-.38-1.68-.59-2.59-.43,0-.87,0-1.31.01a.2.2,0,0,0-.16.12c-.13.31-.26.62-.38.94-1.13,3.14-2.25,6.28-3.14,9.49-.06.21-.09.43-.14.65C13.97,28.14,16.5,28.1,19.06,28.07Zm.43,6.26.03.12a2.376,2.376,0,0,0,.37.06c.79-.04,1.59-.05,2.38-.13a25.721,25.721,0,0,1,4.3.02,8.233,8.233,0,0,0,1.11.03c.27-.02.33-.23.13-.41a1.429,1.429,0,0,0-.46-.27c-.57-.24-1.15-.47-1.74-.68a.867.867,0,0,1-.64-.81.915.915,0,0,0-.32-.59,1.049,1.049,0,0,1-.41-.95c.03-.97.05-1.94.05-2.9-.01-2.8-.03-5.61-.05-8.41,0-.57,0-1.14.01-1.71,0-.13.02-.25.03-.4H23.6c.01.26.04.51.04.75-.01.92-.05,1.83-.06,2.75-.02,2.69-.04,5.38-.04,8.07,0,.65.06,1.3.09,1.94a.729.729,0,0,1-.24.7,1.174,1.174,0,0,0-.53.96.5.5,0,0,1-.32.46c-.26.11-.52.23-.78.34-.56.24-1.13.47-1.69.72A2.762,2.762,0,0,0,19.49,34.33Zm9.36-5.64a3.043,3.043,0,0,1,.35.23,1.451,1.451,0,0,1,.39.48.621.621,0,0,0,.68.48c1.56,0,3.11.01,4.67.01a.913.913,0,0,0,.88-.53.524.524,0,0,1,.49-.31,2.057,2.057,0,0,0,.45-.14A39.309,39.309,0,0,0,28.85,28.69Zm-17.69.12c0,.04-.01.08-.01.13a2.21,2.21,0,0,0,.42.12.52.52,0,0,1,.47.3.964.964,0,0,0,.88.54c.42.02.85.03,1.27.03,1.13-.01,2.26-.02,3.4-.04a.632.632,0,0,0,.69-.5c.05-.18.24-.32.38-.46a3.212,3.212,0,0,1,.3-.21c-.01-.03-.01-.07-.02-.1a7.356,7.356,0,0,0-.81-.06c-1.5.02-2.99.05-4.49.08-.63.01-1.26.03-1.89.07A3.166,3.166,0,0,0,11.16,28.81ZM25.64,15.39v.65c0,.29.07.37.36.4q.39.03.78.03c1.86.03,3.72.05,5.57.07a1.391,1.391,0,0,0,.58-.1.535.535,0,0,0,.28-.36c.03-.19-.18-.15-.31-.18a1.1,1.1,0,0,0-.18-.02c-1.98-.14-3.97-.27-5.95-.41C26.41,15.44,26.05,15.41,25.64,15.39Zm-3.42-.01c-2.57.19-5.08.37-7.6.56.06.24.07.46.33.51a2.722,2.722,0,0,0,.56.09c1.79-.01,3.58-.04,5.37-.06.33,0,.66-.02.98-.05.18-.01.36-.05.36-.29Zm1.69,1.37v.01a5.419,5.419,0,0,0,.57,0,.579.579,0,0,0,.58-.53,3.574,3.574,0,0,0,0-.98.839.839,0,0,0-.94-.78,3.952,3.952,0,0,0-1.01.26.462.462,0,0,0-.25.31,6.661,6.661,0,0,0-.05,1.18c.03.36.25.51.63.53C23.6,16.76,23.75,16.75,23.91,16.75Z"/>
  </g>
</svg>
