<svg xmlns="http://www.w3.org/2000/svg" width="23.065" height="18.067" viewBox="0 0 23.065 18.067">
  <g id="delivery" transform="translate(-10.958 -14.194)">
    <path id="Tracé_100" data-name="Tracé 100" d="M11.616,28.179a5.107,5.107,0,0,1-.63-3.229c.044-.8.142-1.6.133-2.395-.018-1.81-.1-3.61-.151-5.42a4.955,4.955,0,0,1,.124-1.614,1.636,1.636,0,0,1,1.384-1.18,13.968,13.968,0,0,1,3.22-.106c.763.035,1.535.018,2.3.018.585,0,1.171.018,1.756.018,1.3-.009,2.59-.044,3.885-.044a6.177,6.177,0,0,1,1.659.142,1.145,1.145,0,0,1,.843.807,3.968,3.968,0,0,1,.177,1.02c.018.692-.009,1.384-.018,2.076v.346c.328-.035.648-.08.967-.115a10.624,10.624,0,0,1,2.705-.027,2.859,2.859,0,0,1,.772.222.9.9,0,0,1,.408.364,25.774,25.774,0,0,1,1.943,4.24,10.813,10.813,0,0,1,.55,4.692.2.2,0,0,0,.08.177.606.606,0,0,1,.3.568c0,.328,0,.665-.018.993a.669.669,0,0,1-.594.594,6.055,6.055,0,0,1-.9.035c-.248,0-.5-.027-.745-.018a.268.268,0,0,0-.2.142,2.478,2.478,0,0,1-1.739,1.6c-.133.044-.266.1-.4.142-.035.009-.071.044-.106.035a5.763,5.763,0,0,1-1.543-.319A2.206,2.206,0,0,1,26.642,30.6a.237.237,0,0,0-.275-.213q-4.231.013-8.462,0a.231.231,0,0,0-.266.2,2.285,2.285,0,0,1-1.18,1.339,2.81,2.81,0,0,1-2.537.053,2.037,2.037,0,0,1-1.2-1.446c-.044-.177-.124-.213-.284-.2a7.471,7.471,0,0,1-.772.018.55.55,0,0,1-.6-.621c.018-.257-.018-.523-.009-.789A.693.693,0,0,1,11.616,28.179ZM21.675,14.465c-.009.106-.018.16-.018.213l.027,1.171c.009.506.018,1,.035,1.508a4.269,4.269,0,0,1-.186,1.535.854.854,0,0,1-1.091.612,4.611,4.611,0,0,1-1.552-.763c-.355-.231-.213-.248-.585.009a4.386,4.386,0,0,1-1.526.754.8.8,0,0,1-.949-.5,1.87,1.87,0,0,1-.124-.435c-.027-.727-.035-1.455-.035-2.182,0-.55.018-1.1.035-1.641,0-.1,0-.2-.151-.2-.923-.027-1.845-.1-2.768-.089a1.028,1.028,0,0,0-1.091.86,11.038,11.038,0,0,0-.062,1.215c-.009.559.009,1.127.009,1.694,0,.5-.009.993-.009,1.481,0,.585.018,1.171.018,1.756,0,.532-.018,1.064-.018,1.6,0,.763.018,1.535.018,2.3,0,.523-.035,1.056,0,1.57a1.283,1.283,0,0,0,.816,1.2.973.973,0,0,0,.949-.062,3.144,3.144,0,0,1,1.774-.692,2.528,2.528,0,0,1,1.765.577.649.649,0,0,0,.381.142c.745.009,1.49.009,2.235.009h3.069c.958,0,1.916-.009,2.865,0,.151,0,.213-.044.213-.2.009-.816.027-1.632.027-2.457,0-.621-.027-1.242-.035-1.863,0-.248.018-.5.018-.745,0-.435-.018-.869-.018-1.3,0-.355.027-.7.027-1.056,0-.639-.009-1.277-.009-1.916,0-.887.018-1.774-.018-2.661A1.294,1.294,0,0,0,24.6,14.563a4.971,4.971,0,0,0-.958-.124C23,14.43,22.34,14.457,21.675,14.465ZM33.091,28.117c.027-.328.062-.639.08-.94a10.229,10.229,0,0,0-.887-4.417c-.479-1.127-1.038-2.218-1.552-3.335a.959.959,0,0,0-.745-.594,12.883,12.883,0,0,0-1.437-.08c-.47-.009-.949.044-1.419.035-.328-.009-.506.027-.6.337a4.23,4.23,0,0,0-.266,1.135c-.044,1.135-.044,2.28-.027,3.415.009.772.08,1.543.115,2.315q.027.439.027.878c-.009.4-.035.807-.062,1.233.284,0,.559.009.834,0a.536.536,0,0,0,.284-.089,2.877,2.877,0,0,1,1.685-.612,2.281,2.281,0,0,1,1.535.435,1.334,1.334,0,0,0,.993.293c.293-.009.585,0,.878,0C32.7,28.117,32.878,28.117,33.091,28.117ZM16.273,14.5a2.179,2.179,0,0,1,.035.328c-.035,1-.1,2.014-.124,3.016a2.647,2.647,0,0,0,.124.914c.151.452.381.585.8.31a8.059,8.059,0,0,1,.692-.426,6.921,6.921,0,0,1,.94-.426.587.587,0,0,1,.417.071c.266.142.5.337.754.488a7.445,7.445,0,0,0,.8.4c.16.071.284.035.3-.186.035-.408.106-.807.115-1.215.009-.577-.027-1.153-.035-1.739-.009-.506,0-1.02,0-1.543C19.475,14.5,17.879,14.5,16.273,14.5ZM17.79,30h8.737a2.636,2.636,0,0,1,.461-1.517H17.426A2.639,2.639,0,0,1,17.79,30Zm13.882.053c.568,0,1.109,0,1.641-.009.044,0,.115-.089.124-.142a6.2,6.2,0,0,0,.071-.807.582.582,0,0,0-.577-.656c-.532-.035-1.073-.009-1.668-.009A2.361,2.361,0,0,1,31.672,30.051Zm-19.036.027a2.574,2.574,0,0,1,.47-1.65H11.652c-.018.4-.053.789-.053,1.18.009.3.151.461.39.47C12.193,30.086,12.4,30.077,12.636,30.077Zm2.448-.231-.071.142c-.027.089-.089.239-.062.275a.668.668,0,0,0,.355.151c.186.018.444-.257.373-.426-.062-.142.009-.266-.035-.381a.529.529,0,0,0-.452-.39.482.482,0,0,0-.355.169.518.518,0,0,0-.062.6C14.889,29.944,14.969,29.9,15.084,29.846ZM29.028,29.7c.071-.177.133-.3.186-.435-.239-.115-.417-.1-.5.1a1.084,1.084,0,0,0-.089.577c.027.2.115.426.426.275-.018.062-.027.106-.044.169a.375.375,0,0,0,.47-.186.628.628,0,0,0-.053-.718A4.028,4.028,0,0,1,29.028,29.7ZM16.521,28.268a.246.246,0,0,1,.009-.08c-.115-.035-.275-.142-.337-.1-.328.222-.639.488-.949.736.018.027.027.044.044.071A5.391,5.391,0,0,0,16.521,28.268Zm12.782-.55a.274.274,0,0,1-.018-.071c-.177.009-.408-.044-.532.044a5.727,5.727,0,0,0-.71.683c.018.018.027.035.044.053C28.487,28.188,28.9,27.957,29.3,27.718ZM16.8,28.534c-.248.2-.47.381-.692.577a.12.12,0,0,0-.009.133.154.154,0,0,0,.142.044c.248-.133.488-.275.745-.426C16.921,28.738,16.867,28.658,16.8,28.534Zm-2.555,1.5a.432.432,0,0,0-.062-.027c-.2.115-.4.231-.6.346-.248.142-.257.177-.062.444.222-.177.444-.355.656-.541C14.224,30.2,14.224,30.113,14.242,30.033Zm-.94-.009c.373-.319.727-.612,1.073-.9-.009-.018-.027-.035-.035-.053-.293.169-.585.346-.887.506C13.266,29.66,13.222,29.793,13.3,30.024Zm14.8,1.668c.151.169.266.2.408.053.08-.08.177-.142.257-.213l.594-.488c-.018-.018-.027-.035-.044-.053Zm1.215-2.865a.277.277,0,0,1,.044.089c.364-.2.727-.417,1.091-.621a.246.246,0,0,1,.009-.08c-.089-.027-.222-.106-.266-.071C29.9,28.356,29.614,28.6,29.321,28.826Zm-2.2,1.18c.027.027.062.044.089.071.275-.222.559-.444.834-.665-.044-.035-.071-.035-.08-.027-.231.124-.461.248-.674.39A.738.738,0,0,0,27.121,30.006ZM15.155,31.958a.843.843,0,0,0,.94-.55C15.767,31.6,15.484,31.771,15.155,31.958Zm.656-4.142c-.239-.106-.665.151-.852.5C15.262,28.135,15.519,27.984,15.812,27.815Zm13.022,4.178a.681.681,0,0,0,.736-.435C29.33,31.7,29.108,31.833,28.833,31.993ZM30.5,30.556c.381-.053.594-.239.559-.461C30.865,30.246,30.687,30.4,30.5,30.556Zm-3.051.417.053.08a2.349,2.349,0,0,0,.612-.4c-.009-.018-.027-.035-.035-.053C27.866,30.716,27.662,30.849,27.45,30.973Zm-13,.825c.009.018.027.044.035.062.257.018.364-.213.55-.319A.386.386,0,0,1,15,31.479C14.818,31.585,14.632,31.692,14.446,31.8Zm-.133-.931c-.319.062-.559.222-.594.426C13.931,31.15,14.1,31.026,14.313,30.867Zm16.108-1.5c.3-.035.523-.2.5-.364C30.749,29.128,30.581,29.252,30.421,29.367Z" transform="translate(0 0)"/>
    <path id="Tracé_101" data-name="Tracé 101" d="M14.777,24.98c.488.089.967.16,1.428.275a.469.469,0,0,1,.266.284,2.406,2.406,0,0,1,.089.665,1.023,1.023,0,0,1-1.073,1.135c-.541.018-1.091-.027-1.641-.044a1.354,1.354,0,0,0-.266.027.606.606,0,0,1-.789-.594c-.009-.373.035-.745.062-1.118a.337.337,0,0,1,.31-.328C13.7,25.175,14.236,25.078,14.777,24.98Zm-1.357.408c-.035.3-.08.6-.089.9-.027.745.514.869,1.029.8.089-.009.177-.018.266-.018.319,0,.648.009.967-.009.089,0,.248-.062.257-.115a2.188,2.188,0,0,0,0-1.348.31.31,0,0,0-.355-.213,3.411,3.411,0,0,1-.426.009Z" transform="translate(-0.207 -1.219)"/>
    <path id="Tracé_102" data-name="Tracé 102" d="M32.032,24.878c-.5.027-.993.071-1.49.08a2.708,2.708,0,0,1-.8-.106c-.3-.089-.355-.3-.364-.612-.009-.55-.071-1.1-.08-1.641a6.343,6.343,0,0,1,.071-1.162.787.787,0,0,1,.745-.656,6.006,6.006,0,0,1,.9-.08,1.277,1.277,0,0,1,1.073.541,6.637,6.637,0,0,1,.648,1.073c.284.585.532,1.2.789,1.8a.445.445,0,0,1-.231.656,3.893,3.893,0,0,1-.852.151,2.149,2.149,0,0,1-.408-.027C32.032,24.887,32.032,24.878,32.032,24.878Zm.976-.3a5.009,5.009,0,0,0-.2-.7c-.381-.86-.781-1.7-1.18-2.555a.4.4,0,0,0-.39-.248c-.231,0-.47-.009-.7-.009-.612.009-.621.009-.621.63-.009.816,0,1.623-.009,2.439a.446.446,0,0,0,.31.444,1.373,1.373,0,0,0,.461.089C31.437,24.638,32.191,24.612,33.008,24.576Z" transform="translate(-2.072 -0.735)"/>
    <path id="Tracé_103" data-name="Tracé 103" d="M31.565,27.015a1.11,1.11,0,0,1-.736.186,1.084,1.084,0,0,1-.337-.027.819.819,0,0,1-.222-.133c.071-.071.133-.2.213-.2a6.478,6.478,0,0,1,.718-.018C31.432,26.838,31.432,26.838,31.565,27.015Z" transform="translate(-2.182 -1.426)"/>
  </g>
</svg>
