<svg xmlns="http://www.w3.org/2000/svg" width="30.171" height="23.633" viewBox="0 0 30.171 23.633">
  <g id="delivery" transform="translate(-10.958 -14.194)">
    <path id="Tracé_109" data-name="Tracé 109" d="M11.819,32.487A6.681,6.681,0,0,1,11,28.264c.058-1.044.186-2.089.174-3.133-.023-2.367-.128-4.722-.2-7.089a6.481,6.481,0,0,1,.162-2.112,2.139,2.139,0,0,1,1.81-1.543,18.271,18.271,0,0,1,4.212-.139c1,.046,2.007.023,3.005.023.766,0,1.532.023,2.3.023,1.694-.012,3.388-.058,5.082-.058a8.08,8.08,0,0,1,2.17.186,1.5,1.5,0,0,1,1.1,1.056,5.191,5.191,0,0,1,.232,1.334c.023.905-.012,1.81-.023,2.715v.453c.429-.046.847-.1,1.265-.151a13.9,13.9,0,0,1,3.539-.035,3.739,3.739,0,0,1,1.009.29,1.183,1.183,0,0,1,.534.476,33.713,33.713,0,0,1,2.541,5.546,14.145,14.145,0,0,1,.719,6.138.261.261,0,0,0,.1.232.793.793,0,0,1,.395.743c0,.429,0,.87-.023,1.3a.875.875,0,0,1-.777.777,7.92,7.92,0,0,1-1.172.046c-.325,0-.65-.035-.975-.023a.351.351,0,0,0-.267.186,3.241,3.241,0,0,1-2.274,2.089c-.174.058-.348.128-.522.186-.046.012-.093.058-.139.046a7.538,7.538,0,0,1-2.019-.418,2.885,2.885,0,0,1-1.485-1.752.31.31,0,0,0-.36-.278q-5.535.017-11.069,0a.3.3,0,0,0-.348.255,2.989,2.989,0,0,1-1.543,1.752,3.676,3.676,0,0,1-3.318.07,2.665,2.665,0,0,1-1.566-1.891c-.058-.232-.162-.278-.371-.267a9.772,9.772,0,0,1-1.009.023.72.72,0,0,1-.789-.812c.023-.336-.023-.685-.012-1.033A.906.906,0,0,1,11.819,32.487ZM24.977,14.549c-.012.139-.023.209-.023.278l.035,1.532c.012.661.023,1.311.046,1.973a5.585,5.585,0,0,1-.244,2.007,1.117,1.117,0,0,1-1.427.8,6.032,6.032,0,0,1-2.031-1c-.464-.3-.278-.325-.766.012a5.738,5.738,0,0,1-2,.986,1.049,1.049,0,0,1-1.242-.65,2.447,2.447,0,0,1-.162-.569c-.035-.951-.046-1.9-.046-2.854,0-.719.023-1.439.046-2.147,0-.128,0-.255-.2-.255-1.207-.035-2.413-.128-3.62-.116a1.345,1.345,0,0,0-1.427,1.125,14.439,14.439,0,0,0-.081,1.59c-.012.731.012,1.474.012,2.216,0,.65-.012,1.3-.012,1.938,0,.766.023,1.532.023,2.3,0,.7-.023,1.392-.023,2.089,0,1,.023,2.007.023,3.005,0,.685-.046,1.381,0,2.054a1.679,1.679,0,0,0,1.067,1.566,1.272,1.272,0,0,0,1.242-.081,4.113,4.113,0,0,1,2.321-.905A3.307,3.307,0,0,1,18.8,32.2a.85.85,0,0,0,.5.186c.975.012,1.949.012,2.924.012h4.015c1.253,0,2.506-.012,3.748,0,.2,0,.278-.058.278-.267.012-1.067.035-2.135.035-3.214,0-.812-.035-1.624-.046-2.437,0-.325.023-.65.023-.975,0-.569-.023-1.137-.023-1.706,0-.464.035-.917.035-1.381,0-.835-.012-1.671-.012-2.506,0-1.16.023-2.321-.023-3.481a1.693,1.693,0,0,0-1.45-1.752,6.5,6.5,0,0,0-1.253-.162C26.706,14.5,25.847,14.537,24.977,14.549ZM39.91,32.406c.035-.429.081-.835.1-1.23a13.38,13.38,0,0,0-1.16-5.778c-.627-1.474-1.358-2.9-2.031-4.363a1.254,1.254,0,0,0-.975-.777,16.854,16.854,0,0,0-1.88-.1c-.615-.012-1.242.058-1.856.046-.429-.012-.661.035-.789.441a5.533,5.533,0,0,0-.348,1.485c-.058,1.485-.058,2.982-.035,4.467.012,1.009.1,2.019.151,3.028q.035.574.035,1.149c-.012.522-.046,1.056-.081,1.613.371,0,.731.012,1.091,0a.7.7,0,0,0,.371-.116,3.764,3.764,0,0,1,2.2-.8,2.984,2.984,0,0,1,2.007.569,1.745,1.745,0,0,0,1.3.383c.383-.012.766,0,1.149,0C39.4,32.406,39.632,32.406,39.91,32.406Zm-22-17.811a2.85,2.85,0,0,1,.046.429c-.046,1.311-.128,2.634-.162,3.945a3.463,3.463,0,0,0,.162,1.2c.2.592.5.766,1.044.406a10.543,10.543,0,0,1,.905-.557,9.053,9.053,0,0,1,1.23-.557.768.768,0,0,1,.545.093c.348.186.65.441.986.638a9.738,9.738,0,0,0,1.044.522c.209.093.371.046.395-.244.046-.534.139-1.056.151-1.59.012-.754-.035-1.508-.046-2.274-.012-.661,0-1.334,0-2.019C22.1,14.6,20.011,14.6,17.911,14.6Zm1.984,20.271H31.324a3.448,3.448,0,0,1,.6-1.984H19.419A3.452,3.452,0,0,1,19.895,34.866Zm18.159.07c.743,0,1.45,0,2.147-.012.058,0,.151-.116.162-.186a8.109,8.109,0,0,0,.093-1.056.761.761,0,0,0-.754-.859c-.7-.046-1.4-.012-2.181-.012A3.088,3.088,0,0,1,38.054,34.936Zm-24.9.035a3.367,3.367,0,0,1,.615-2.158h-1.9c-.023.522-.07,1.033-.07,1.543.012.395.2.6.511.615C12.573,34.982,12.84,34.971,13.153,34.971Zm3.2-.3-.093.186c-.035.116-.116.313-.081.36a.874.874,0,0,0,.464.2c.244.023.58-.336.487-.557-.081-.186.012-.348-.046-.5a.692.692,0,0,0-.592-.511.631.631,0,0,0-.464.22.677.677,0,0,0-.081.789C16.1,34.8,16.205,34.738,16.356,34.669Zm18.24-.186c.093-.232.174-.395.244-.569-.313-.151-.545-.128-.65.128a1.419,1.419,0,0,0-.116.754c.035.255.151.557.557.36-.023.081-.035.139-.058.22a.49.49,0,0,0,.615-.244.822.822,0,0,0-.07-.94A5.267,5.267,0,0,1,34.6,34.483ZM18.236,32.6a.321.321,0,0,1,.012-.1c-.151-.046-.36-.186-.441-.128-.429.29-.835.638-1.242.963.023.035.035.058.058.093A7.052,7.052,0,0,0,18.236,32.6Zm16.72-.719a.359.359,0,0,1-.023-.093c-.232.012-.534-.058-.7.058a7.492,7.492,0,0,0-.928.893c.023.023.035.046.058.07C33.888,32.5,34.422,32.2,34.956,31.884ZM18.6,32.952c-.325.267-.615.5-.905.754a.157.157,0,0,0-.012.174.2.2,0,0,0,.186.058c.325-.174.638-.36.975-.557C18.758,33.218,18.688,33.114,18.6,32.952Zm-3.342,1.961a.566.566,0,0,0-.081-.035c-.267.151-.522.3-.789.453-.325.186-.336.232-.081.58.29-.232.58-.464.859-.708C15.23,35.133,15.23,35.017,15.254,34.912Zm-1.23-.012c.487-.418.951-.8,1.4-1.184-.012-.023-.035-.046-.046-.07-.383.22-.766.453-1.16.661C13.977,34.425,13.919,34.6,14.024,34.9Zm19.366,2.181c.2.22.348.267.534.07.1-.1.232-.186.336-.278l.777-.638c-.023-.023-.035-.046-.058-.07C34.457,36.467,33.935,36.769,33.389,37.082Zm1.59-3.748a.363.363,0,0,1,.058.116c.476-.267.951-.545,1.427-.812a.321.321,0,0,1,.012-.1c-.116-.035-.29-.139-.348-.093C35.733,32.72,35.362,33.033,34.979,33.334ZM32.1,34.878c.035.035.081.058.116.093.36-.29.731-.58,1.091-.87-.058-.046-.093-.046-.1-.035-.3.162-.6.325-.882.511A.966.966,0,0,0,32.1,34.878ZM16.449,37.43a1.1,1.1,0,0,0,1.23-.719C17.249,36.966,16.878,37.187,16.449,37.43Zm.859-5.419c-.313-.139-.87.2-1.114.65C16.588,32.429,16.924,32.232,17.307,32.012Zm17.033,5.465a.891.891,0,0,0,.963-.569C34.99,37.094,34.7,37.268,34.341,37.477Zm2.181-1.88c.5-.07.777-.313.731-.6C37,35.191,36.766,35.388,36.522,35.6Zm-3.991.545.07.1a3.073,3.073,0,0,0,.8-.522c-.012-.023-.035-.046-.046-.07C33.076,35.806,32.809,35.98,32.531,36.142ZM15.52,37.222c.012.023.035.058.046.081.336.023.476-.278.719-.418a.5.5,0,0,1-.046-.081C16.008,36.943,15.764,37.082,15.52,37.222ZM15.346,36c-.418.081-.731.29-.777.557C14.847,36.374,15.068,36.212,15.346,36Zm21.071-1.961c.395-.046.685-.255.65-.476C36.847,33.729,36.626,33.891,36.418,34.042Z" transform="translate(0)"/>
    <path id="Tracé_110" data-name="Tracé 110" d="M15.389,24.98c.638.116,1.265.209,1.868.36a.614.614,0,0,1,.348.371,3.147,3.147,0,0,1,.116.87,1.339,1.339,0,0,1-1.4,1.485c-.708.023-1.427-.035-2.147-.058a1.771,1.771,0,0,0-.348.035.793.793,0,0,1-1.033-.777c-.012-.487.046-.975.081-1.462a.441.441,0,0,1,.406-.429C13.985,25.235,14.682,25.108,15.389,24.98Zm-1.775.534c-.046.395-.1.789-.116,1.172-.035.975.673,1.137,1.346,1.044.116-.012.232-.023.348-.023.418,0,.847.012,1.265-.012.116,0,.325-.081.336-.151a2.862,2.862,0,0,0,0-1.764.4.4,0,0,0-.464-.278,4.463,4.463,0,0,1-.557.012Z" transform="translate(0.294 1.729)"/>
    <path id="Tracé_111" data-name="Tracé 111" d="M32.874,26.165c-.65.035-1.3.093-1.949.1a3.542,3.542,0,0,1-1.044-.139c-.395-.116-.464-.395-.476-.8-.012-.719-.093-1.439-.1-2.147a8.3,8.3,0,0,1,.093-1.52,1.03,1.03,0,0,1,.975-.859,7.856,7.856,0,0,1,1.172-.1,1.67,1.67,0,0,1,1.4.708,8.682,8.682,0,0,1,.847,1.4c.371.766.7,1.566,1.033,2.355a.581.581,0,0,1-.3.859,5.092,5.092,0,0,1-1.114.2,2.812,2.812,0,0,1-.534-.035C32.874,26.177,32.874,26.165,32.874,26.165Zm1.276-.395a6.553,6.553,0,0,0-.267-.917c-.5-1.125-1.021-2.228-1.543-3.342a.517.517,0,0,0-.511-.325c-.3,0-.615-.012-.917-.012-.8.012-.812.012-.812.824-.012,1.067,0,2.123-.012,3.191a.583.583,0,0,0,.406.58,1.8,1.8,0,0,0,.6.116C32.1,25.852,33.083,25.817,34.15,25.771Z" transform="translate(2.94 1.043)"/>
    <path id="Tracé_112" data-name="Tracé 112" d="M31.964,27.076a1.452,1.452,0,0,1-.963.244,1.418,1.418,0,0,1-.441-.035,1.071,1.071,0,0,1-.29-.174c.093-.093.174-.255.278-.267a8.473,8.473,0,0,1,.94-.023C31.79,26.843,31.79,26.843,31.964,27.076Z" transform="translate(3.096 2.024)"/>
  </g>
</svg>
