<svg xmlns="http://www.w3.org/2000/svg" width="21" height="21.063" viewBox="0 0 21 21.063">
  <g id="hypoallergenique" transform="translate(-13.344 -13.737)">
    <path id="Tracé_107" data-name="Tracé 107" d="M24.05,17.14a2.681,2.681,0,0,0-.07.27,2.759,2.759,0,0,1-.08.27l-.09.27a2,2,0,0,1-.1.26c-.14.35-.3.69-.47,1.02a19.528,19.528,0,0,1-1.19,1.9,21.765,21.765,0,0,0-1.2,1.86c-.18.32-.36.64-.51.97a7.346,7.346,0,0,0-.38,1.02,5.156,5.156,0,0,0,.06,3.16,4.981,4.981,0,0,0,.44.97,3.994,3.994,0,0,0,.64.83,3.694,3.694,0,0,0,.84.63,4.868,4.868,0,0,0,.97.41,4.626,4.626,0,0,0,1.04.18,3.436,3.436,0,0,0,1.98-.5,4.552,4.552,0,0,0,1.47-1.49,4.69,4.69,0,0,0,.72-1.98,5.458,5.458,0,0,0,.01-1.07,7.968,7.968,0,0,0-.18-1.07l-.07-.26-.08-.26c-.03-.09-.06-.17-.09-.26a1.861,1.861,0,0,0-.1-.25,8.884,8.884,0,0,0-.48-.98c-.35-.64-.77-1.25-1.19-1.87-.21-.31-.41-.62-.61-.94s-.39-.64-.56-.97a9.438,9.438,0,0,1-.45-1.03A10.2,10.2,0,0,1,24.05,17.14Zm0,0a7.818,7.818,0,0,0,.86,2.04,20.535,20.535,0,0,0,1.25,1.84c.44.6.88,1.2,1.27,1.85a8.8,8.8,0,0,1,.53,1.01c.04.09.08.17.11.26s.07.18.1.27l.09.27.08.27a7.055,7.055,0,0,1,.22,1.13,6.413,6.413,0,0,1,.01,1.16,5.2,5.2,0,0,1-.75,2.19,2,2,0,0,1-.16.24l-.17.23a5.2,5.2,0,0,1-.38.44,4.993,4.993,0,0,1-.91.74,3.723,3.723,0,0,1-1.09.46,3.95,3.95,0,0,1-1.18.12,5.75,5.75,0,0,1-1.16-.2A4.875,4.875,0,0,1,21.69,31a4.645,4.645,0,0,1-.94-.71,4.3,4.3,0,0,1-.71-.94,5.952,5.952,0,0,1-.46-1.07,6.318,6.318,0,0,1-.24-1.13,5.621,5.621,0,0,1,0-1.16,5.553,5.553,0,0,1,.24-1.13,9.023,9.023,0,0,1,.99-2.05c.4-.64.84-1.25,1.29-1.84a20.462,20.462,0,0,0,1.27-1.82,9.185,9.185,0,0,0,.52-.98,2.718,2.718,0,0,0,.11-.25c.04-.09.08-.17.11-.26s.07-.17.1-.26A2.58,2.58,0,0,1,24.05,17.14Z"/>
    <g id="Groupe_36" data-name="Groupe 36">
      <path id="Tracé_108" data-name="Tracé 108" d="M20.6,28.69c.14-.31.28-.63.42-.94a3.522,3.522,0,0,0,.3-.88.235.235,0,0,1,.02-.08.3.3,0,0,1,.42-.22,1.961,1.961,0,0,1,.59.35,6.739,6.739,0,0,1,.92.93c.03.04.05.07.11.04a4.843,4.843,0,0,1,2.28-.47c.2,0,.41.01.61.02a.384.384,0,0,1,.31.59,4.34,4.34,0,0,0-.39,1.15,11.111,11.111,0,0,1-.31,1.13,1.824,1.824,0,0,1-1.78,1.26,1.971,1.971,0,0,1-1.21-.46,1.071,1.071,0,0,1-.19-.18.152.152,0,0,0-.17-.05,1.707,1.707,0,0,1-1.9-.95,1.619,1.619,0,0,1-.08-1.04,1.463,1.463,0,0,0,.05-.2Zm2.19,2.13a1.669,1.669,0,0,0,1,.55,1.774,1.774,0,0,0,1.91-1.12,8.545,8.545,0,0,0,.33-1.2,3.661,3.661,0,0,1,.4-1.15.2.2,0,0,0-.15-.31,5.7,5.7,0,0,0-2.32.23c-.18.06-.35.15-.54.22a2.285,2.285,0,0,1,.39,1.38l.28-.28a2.738,2.738,0,0,1,1-.68.471.471,0,0,1,.16-.04.235.235,0,0,1,.1.05l-.06.09c-.01.01-.03.01-.05.02a3.881,3.881,0,0,0-.46.22,4.141,4.141,0,0,0-.97.9.95.95,0,0,0-.1.17,1.655,1.655,0,0,1-.64.81C22.98,30.72,22.89,30.77,22.79,30.82Zm-.38-.07a1.351,1.351,0,0,0,1.05-.82,1.835,1.835,0,0,0-.16-1.73,4.544,4.544,0,0,0-1.29-1.33c-.08-.05-.16-.11-.24-.16a.17.17,0,0,0-.26.11,3.635,3.635,0,0,1-.4,1.1,4.434,4.434,0,0,0-.39.99,1.557,1.557,0,0,0,1.08,1.82,2.118,2.118,0,0,0,.44.05.214.214,0,0,0,.01-.06,6.47,6.47,0,0,0-.34-2.76c-.03-.09-.01-.17.04-.18.09-.02.08.07.1.12a6,6,0,0,1,.36,2.01C22.42,30.19,22.41,30.46,22.41,30.75Z"/>
      <path id="Tracé_109" data-name="Tracé 109" d="M24.12,31.64h-.03a2.015,2.015,0,0,1-1.25-.48,1.8,1.8,0,0,1-.2-.18c-.03-.04-.06-.04-.11-.03a1.762,1.762,0,0,1-1.97-.98,1.587,1.587,0,0,1-.08-1.08.737.737,0,0,1,.04-.14v-.01l-.02-.01.16-.37c.09-.21.19-.42.28-.63a2.971,2.971,0,0,0,.29-.87.188.188,0,0,1,.02-.08.384.384,0,0,1,.19-.26.389.389,0,0,1,.32-.01,1.951,1.951,0,0,1,.61.37,6.371,6.371,0,0,1,.93.94l.02.02a.01.01,0,0,0,.01-.01,4.96,4.96,0,0,1,2.31-.48c.19,0,.39.01.61.02a.468.468,0,0,1,.38.23.479.479,0,0,1-.01.45,4.7,4.7,0,0,0-.38,1.09l-.01.05-.06.24a9.215,9.215,0,0,1-.25.9A1.866,1.866,0,0,1,24.12,31.64Zm-1.54-.83a.225.225,0,0,1,.16.08,1.488,1.488,0,0,0,.18.17,1.9,1.9,0,0,0,1.17.45h.03a1.734,1.734,0,0,0,1.68-1.22c.1-.29.17-.6.25-.89l.06-.24.01-.05a4.143,4.143,0,0,1,.39-1.12.326.326,0,0,0,.01-.33.292.292,0,0,0-.27-.16c-.22-.02-.42-.02-.6-.02a4.735,4.735,0,0,0-2.25.47.136.136,0,0,1-.19-.05,6.1,6.1,0,0,0-.91-.92,1.729,1.729,0,0,0-.57-.34.278.278,0,0,0-.22,0,.317.317,0,0,0-.12.18v.01c-.01.02-.01.04-.02.06a3.527,3.527,0,0,1-.3.9c-.09.21-.19.42-.28.63l-.11.25h0l-.03.12a.647.647,0,0,1-.04.13,1.481,1.481,0,0,0,.07,1,1.616,1.616,0,0,0,1.56.94h-.01c-.05,0-.09-.01-.14-.01a1.645,1.645,0,0,1-.31-.04,1.628,1.628,0,0,1-1.12-1.9,4.16,4.16,0,0,1,.39-1,3.594,3.594,0,0,0,.39-1.08.2.2,0,0,1,.12-.17.266.266,0,0,1,.23.01,2.5,2.5,0,0,1,.24.16,4.524,4.524,0,0,1,1.31,1.35,1.883,1.883,0,0,1,.17,1.79,1.414,1.414,0,0,1-1.1.86l-.08.02V30.5c0-.2.01-.38,0-.57a5.661,5.661,0,0,0-.35-1.99c0-.01-.01-.03-.01-.04s-.01-.02-.01-.03h-.01c-.01.01-.02.04,0,.1a6.422,6.422,0,0,1,.34,2.79.076.076,0,0,1-.01.04l-.02.08.22-.03C22.54,30.81,22.56,30.81,22.58,30.81Zm-.92-4.06c-.02,0-.03,0-.04.01-.03.01-.04.04-.05.07a3.752,3.752,0,0,1-.4,1.12,4.078,4.078,0,0,0-.38.97,1.494,1.494,0,0,0,1.03,1.75,2.535,2.535,0,0,0,.29.04.22.22,0,0,1,.08.01,6.456,6.456,0,0,0-.33-2.73.232.232,0,0,1,0-.2.127.127,0,0,1,.09-.07.146.146,0,0,1,.17.13.037.037,0,0,0,.01.03,5.7,5.7,0,0,1,.36,2.03v.76a1.254,1.254,0,0,0,.93-.76,1.757,1.757,0,0,0-.16-1.67,4.494,4.494,0,0,0-1.27-1.31,1.819,1.819,0,0,0-.23-.15A.265.265,0,0,0,21.66,26.75Zm2.39,4.71a2.452,2.452,0,0,1-.27-.02,1.774,1.774,0,0,1-1.04-.57l-.05-.06.07-.04c.03-.02.06-.03.09-.05.06-.03.12-.07.18-.1a1.565,1.565,0,0,0,.62-.78.544.544,0,0,1,.11-.18,4.066,4.066,0,0,1,.98-.91c.1-.06.22-.11.32-.16.05-.02.09-.04.14-.06a.037.037,0,0,1,.03-.01h0c0-.01.01-.01.01-.02h-.01a1.034,1.034,0,0,0-.12.03l-.02.01a2.92,2.92,0,0,0-.98.67l-.19.19-.09.09-.12.12.01-.17a2.177,2.177,0,0,0-.38-1.34l-.04-.07.07-.03a.886.886,0,0,0,.17-.08,2.869,2.869,0,0,1,.37-.15,5.751,5.751,0,0,1,2.34-.24.265.265,0,0,1,.22.14.288.288,0,0,1-.01.27,3.8,3.8,0,0,0-.39,1.13,6.584,6.584,0,0,1-.33,1.21A1.813,1.813,0,0,1,24.05,31.46Zm-1.15-.62a1.581,1.581,0,0,0,.9.47,1.714,1.714,0,0,0,1.84-1.08,7.5,7.5,0,0,0,.32-1.19,4.166,4.166,0,0,1,.4-1.17.142.142,0,0,0,.01-.14.144.144,0,0,0-.11-.07,5.664,5.664,0,0,0-2.29.23,2.749,2.749,0,0,0-.36.15c-.03.02-.07.03-.1.05a2.36,2.36,0,0,1,.36,1.19l.17-.17a3.06,3.06,0,0,1,1.02-.7l.02-.01a.419.419,0,0,1,.16-.04.21.21,0,0,1,.11.04c.01.01.02.01.03.02l.06.03-.04.06c-.01.01-.01.02-.02.03a.3.3,0,0,1-.05.07.11.11,0,0,1-.06.03h-.01c-.05.02-.1.04-.14.06a2.962,2.962,0,0,0-.31.15,4.213,4.213,0,0,0-.95.88.53.53,0,0,0-.08.15,1.7,1.7,0,0,1-.67.84c-.06.04-.12.07-.19.11C22.91,30.83,22.9,30.83,22.9,30.84Z"/>
    </g>
    <g id="Groupe_37" data-name="Groupe 37">
      <path id="Tracé_110" data-name="Tracé 110" d="M33.81,23.86a9.359,9.359,0,0,0-4.5-7.9,22.1,22.1,0,0,0-2.11-1.09c-.08-.04-.2-.07-.22-.13a.53.53,0,0,1,.01-.33c.02-.04.19-.06.27-.03a10.847,10.847,0,0,1,4.03,2.65,10.408,10.408,0,0,1,.84,13.59,10.435,10.435,0,0,1-6.9,4.01,9.843,9.843,0,0,1-7.57-1.78,10.117,10.117,0,0,1-3.84-5.37,9.891,9.891,0,0,1,.13-6.27,10.655,10.655,0,0,1,6.98-6.95,9.633,9.633,0,0,1,2.72-.46c.16-.01.33-.02.34.2s-.13.29-.32.29a10.681,10.681,0,0,0-3.27.6,9.528,9.528,0,0,0-5.82,5.59,10.018,10.018,0,0,0-.72,4.84,9.461,9.461,0,0,0,4.02,7.12,9.987,9.987,0,0,0,6.4,1.9,9.377,9.377,0,0,0,7.33-3.74A10.5,10.5,0,0,0,33.81,23.86Z"/>
      <path id="Tracé_111" data-name="Tracé 111" d="M23.5,34.8a9.749,9.749,0,0,1-5.85-1.93,10.193,10.193,0,0,1-3.86-5.39,9.916,9.916,0,0,1,.14-6.3,10.748,10.748,0,0,1,7.01-6.97,9.553,9.553,0,0,1,2.73-.47h.02c.15-.01.35-.01.36.24a.315.315,0,0,1-.07.24.366.366,0,0,1-.29.1,10.564,10.564,0,0,0-3.26.6,9.47,9.47,0,0,0-5.79,5.57,10.052,10.052,0,0,0-.71,4.82,9.415,9.415,0,0,0,4.01,7.09,9.958,9.958,0,0,0,6.38,1.89,9.35,9.35,0,0,0,7.3-3.73,10.627,10.627,0,0,0,2.17-6.71,9.333,9.333,0,0,0-4.48-7.86,12.907,12.907,0,0,0-1.42-.76c-.23-.11-.46-.22-.68-.33l-.06-.03c-.07-.03-.15-.06-.17-.13a.551.551,0,0,1,.01-.36c.04-.08.24-.08.32-.05a11.076,11.076,0,0,1,4.04,2.66,10.457,10.457,0,0,1,.85,13.64,10.487,10.487,0,0,1-6.92,4.03A11.02,11.02,0,0,1,23.5,34.8Zm.27-20.97h-.09a9.7,9.7,0,0,0-2.7.46,10.666,10.666,0,0,0-6.96,6.92,9.831,9.831,0,0,0-.13,6.25,10.11,10.11,0,0,0,3.83,5.34,9.789,9.789,0,0,0,7.53,1.77,10.4,10.4,0,0,0,6.87-4,10.362,10.362,0,0,0-.84-13.53,11.04,11.04,0,0,0-4.01-2.64.312.312,0,0,0-.22.01.438.438,0,0,0-.01.3c.01.03.08.06.13.08.02.01.05.02.07.03.22.12.46.23.68.33a13.048,13.048,0,0,1,1.43.76,9.43,9.43,0,0,1,4.52,7.93h0a10.645,10.645,0,0,1-2.19,6.76,9.436,9.436,0,0,1-7.36,3.76,10.115,10.115,0,0,1-6.43-1.91,9.5,9.5,0,0,1-4.04-7.15,10.116,10.116,0,0,1,.72-4.86,9.536,9.536,0,0,1,5.84-5.61,10.461,10.461,0,0,1,3.29-.6.289.289,0,0,0,.23-.08.231.231,0,0,0,.05-.17C23.96,13.86,23.89,13.83,23.77,13.83Z"/>
    </g>
  </g>
</svg>
