<svg xmlns="http://www.w3.org/2000/svg" width="21.241" height="20.893" viewBox="0 0 21.241 20.893">
  <g id="keto" transform="translate(-13.155 -13.957)">
    <path id="Tracé_91" data-name="Tracé 91" d="M25.02,28.52a17.879,17.879,0,0,0-2.64.01,12.545,12.545,0,0,1-3.12-.14c-.55-.12-.69-.27-.74-.83a4.933,4.933,0,0,1,.01-.77c.01-.14-.04-.19-.16-.24a7.962,7.962,0,0,1-5.11-6.39,3.6,3.6,0,0,1-.09-1.04.978.978,0,0,1,.77-.86,4.69,4.69,0,0,1,1.54-.09c.16.02.23-.03.25-.19a2.463,2.463,0,0,1,.66-1.35,2.783,2.783,0,0,1,.76-.5,5,5,0,0,1,2.02-.41c.46-.04.93-.02,1.39-.02a9.728,9.728,0,0,0,1.08,0c.47-.06.95.02,1.42-.08.51-.11,1.04-.05,1.56-.15a1.063,1.063,0,0,0,.42-.12c.11-.08.2.04.3.02a9.689,9.689,0,0,0,1.04-.23,5.385,5.385,0,0,1,.7-.12,7.664,7.664,0,0,0,2.52-1.01.4.4,0,0,1,.34-.03,1.559,1.559,0,0,1,1.14,1.33,5.1,5.1,0,0,1-.15,2.84c.21-.02.42-.04.62-.05a1.275,1.275,0,0,1,1.46,1.44,6.055,6.055,0,0,1-.48,2.13,5.2,5.2,0,0,1-.32.77,1.285,1.285,0,0,0-.1.9,14.469,14.469,0,0,0,1.09,3.21,23.8,23.8,0,0,1,1.07,2.85,4.455,4.455,0,0,1-2.37,4.93,5.5,5.5,0,0,1-6.31-1.18,3.9,3.9,0,0,1-.92-3.23A5.983,5.983,0,0,1,25.02,28.52Zm.5.2c-.04-.01-.03.02-.04.04a2.2,2.2,0,0,0-.2.56.564.564,0,0,1-.04.12,2.474,2.474,0,0,0-.1,1.01v.09a1.21,1.21,0,0,0,.05.42c.01.08.03.17.04.25a1.294,1.294,0,0,0,.12.38,1.021,1.021,0,0,0,.11.29,1.061,1.061,0,0,0,.16.34.336.336,0,0,0,.1.16.886.886,0,0,0,.21.33c.04.06.09.12.13.17a1.024,1.024,0,0,0,.26.29c.03.03.05.06.08.09a.988.988,0,0,0,.28.26c.05.04.09.08.14.12a1.291,1.291,0,0,0,.36.25.919.919,0,0,0,.27.16,3.026,3.026,0,0,0,.92.4,2.032,2.032,0,0,0,.49.1,3.212,3.212,0,0,0,1.51-.01,1.279,1.279,0,0,0,.5-.13c.04,0,.08.01.1-.04h0c.02,0,.04.01.06,0a4.214,4.214,0,0,0,2.59-2.56.839.839,0,0,0,.11-.41h0c.04.01.03-.02.04-.04a2.9,2.9,0,0,0,.13-1.01c0-.1-.01-.2-.01-.29a1.941,1.941,0,0,0-.07-.42.228.228,0,0,0-.04-.16.973.973,0,0,0-.1-.38c-.02-.04-.03-.09-.05-.13a.933.933,0,0,0-.12-.33.5.5,0,0,0-.09-.21,1.245,1.245,0,0,0-.17-.37c-.03-.06-.05-.11-.08-.17a1.171,1.171,0,0,0-.16-.34c-.04-.09-.09-.17-.13-.26a1.19,1.19,0,0,0-.17-.36c-.03-.06-.06-.12-.09-.19-.05-.12-.1-.24-.15-.37a1.038,1.038,0,0,1-.04-.1c-.08-.25-.16-.5-.25-.74a.564.564,0,0,0-.04-.12,1.62,1.62,0,0,0-.09-.38l-.03-.09a2.009,2.009,0,0,0-.09-.41c-.02-.08-.04-.15-.06-.23a3.561,3.561,0,0,0-.22-.79,1.08,1.08,0,0,0-.09-.32,1.768,1.768,0,0,0-.15-.38.62.62,0,0,0-.12-.26,2.054,2.054,0,0,0-.77-.95.872.872,0,0,0-.37-.19,1.182,1.182,0,0,0-.56-.09,1.411,1.411,0,0,0-.61.08,1.8,1.8,0,0,0-1.44,1.5,1.137,1.137,0,0,0-.1.36c-.12.55-.23,1.1-.35,1.65-.04.12-.08.25-.12.37l-.21.6a1.863,1.863,0,0,0-.17.41h0c-.01.01-.02.03-.03.04-.2.45-.4.89-.6,1.34-.04.1-.09.2-.13.3a3.274,3.274,0,0,0-.28.67c-.04.02-.07.05-.03.08ZM17.33,18.17a.543.543,0,0,0,.22,0h.72a2.437,2.437,0,0,0,.54,0h2.05a.375.375,0,0,0,.21,0h.72a2.621,2.621,0,0,0,.56,0h1.61a3.49,3.49,0,0,0,.56,0h.73a.279.279,0,0,0,.18-.01h.71a.375.375,0,0,0,.21,0h.72a3.748,3.748,0,0,0,.67,0h2.14a.661.661,0,0,0,.28,0c.1-.02.25.08.3-.08a2.21,2.21,0,0,0,.17-.76c.07-.06.05-.15.05-.23a1.964,1.964,0,0,0,.01-.64c-.01-.09-.01-.18-.02-.28-.03-.15-.06-.3-.09-.46.01-.02.01-.05-.01-.06a1.378,1.378,0,0,0-.13-.39c0-.02-.01-.05-.01-.07-.05-.11-.11-.23-.16-.34a.427.427,0,0,0-.11-.21c-.08-.13-.17-.25-.25-.38-.06-.09-.11-.1-.2-.04a12.2,12.2,0,0,1-1.98.83c-.36.08-.72.17-1.07.28-.37.07-.74.15-1.11.22a.276.276,0,0,0-.26.05,5.04,5.04,0,0,0-.95.12,2.445,2.445,0,0,0-.66.04c-.27.02-.55.05-.82.07l-.63.03-.74.03a.878.878,0,0,0-.28.01c-.78.05-1.57.06-2.36.07a2.138,2.138,0,0,0-.97.13,1.99,1.99,0,0,0-1.62,1.94c0,.13.07.13.16.13Zm6.11,8.66a2.894,2.894,0,0,0,.72-.02c.4,0,.81-.08,1.21-.07.48.02.65-.22.79-.62a27.392,27.392,0,0,0,.7-2.66,3.181,3.181,0,0,1,.51-1.33,2.7,2.7,0,0,1,1.86-1.05,2.485,2.485,0,0,1,2.32.81c.09.1.16.21.26.34.13-.36.25-.69.36-1.03a7.13,7.13,0,0,0,.26-1.01,2.716,2.716,0,0,0,.04-1.1.687.687,0,0,0-.72-.59H16.21a17.029,17.029,0,0,0-1.89.03c-.15.01-.29-.04-.41.09a.855.855,0,0,0-.2.43,2.15,2.15,0,0,0,0,.67,12.409,12.409,0,0,0,.38,1.6,6.632,6.632,0,0,0,3.34,4.24,11.5,11.5,0,0,0,5.15,1.24,2.962,2.962,0,0,0,.73.02A.489.489,0,0,0,23.44,26.83Zm2.3.24c-.49,0-.98-.01-1.47,0a27.706,27.706,0,0,1-3.53-.03,6.76,6.76,0,0,1-.89-.11,5.537,5.537,0,0,0-.69-.12c-.1-.01-.11.01-.11.09a5.186,5.186,0,0,0,.01.56c.08.54.25.7.79.7h5.16c.08,0,.16.03.22-.07C25.41,27.74,25.6,27.4,25.74,27.07Z"/>
    <path id="Tracé_92" data-name="Tracé 92" d="M31.53,28.98c0,.02.01.03.01.05.01.19.03.39.04.58a.277.277,0,0,1-.01.09c-.02.14-.02.28-.05.41a1.923,1.923,0,0,1-1.33,1.45,2.181,2.181,0,0,1-1.91-.17.176.176,0,0,1-.05-.04,1.907,1.907,0,0,1-.65-.93.235.235,0,0,1-.02-.08,3.41,3.41,0,0,1,.75-3.02,1.537,1.537,0,0,1,2.2-.23,2.789,2.789,0,0,1,.44.47c.04.05.07.1.11.15.02.04.05.08.07.12.08.17.15.33.23.5l.03.09C31.44,28.62,31.48,28.8,31.53,28.98Zm-.93.48c-.03.01-.08.02-.04.06s.06,0,.07-.03a.219.219,0,0,0,.05-.03,1.148,1.148,0,0,0,.27-.14.089.089,0,0,0,.03-.13c-.04-.04-.07.01-.1.03a.872.872,0,0,0-.23.2A.176.176,0,0,0,30.6,29.46Zm-.14-.48c-.03-.01-.05-.01-.07.02a.035.035,0,0,1,.01.02.055.055,0,0,0,.06-.04q.03.015.06-.03a1.476,1.476,0,0,0,.33-.17c.05-.02.09-.05.05-.11s-.07-.01-.1.01a1.425,1.425,0,0,0-.3.25C30.46,28.93,30.44,28.94,30.46,28.98Zm-2.04,1.01a1,1,0,0,0-.29.15c-.04.02-.05.06-.03.11.04.05.07.02.1,0a1.266,1.266,0,0,0,.25-.21c.01-.01.03-.03.03-.04C28.47,29.96,28.45,29.97,28.42,29.99Zm-.03-.61a1.191,1.191,0,0,0-.35.19.1.1,0,0,0-.03.13c.05.07.09,0,.12-.02a1.81,1.81,0,0,0,.3-.25c.02-.02.08-.02.04-.06C28.45,29.33,28.41,29.35,28.39,29.38Zm.76,1.38a2.406,2.406,0,0,0-.42.22c-.04.02-.14.04-.08.12a.113.113,0,0,0,.18.01c.12-.1.24-.21.35-.31.02-.02.07-.02.04-.06S29.17,30.73,29.15,30.76Zm-.3-.42a3.8,3.8,0,0,0-.49.26c-.05.03-.09.06-.04.13s.08.04.12.01a3.188,3.188,0,0,0,.44-.37c.01-.01.03-.03.03-.04C28.88,30.3,28.86,30.32,28.85,30.34Zm1.32-1.77a3.1,3.1,0,0,0,.51-.27c.08-.04.06-.09.03-.15-.04-.08-.09-.02-.12,0-.16.12-.31.26-.46.38-.02.02-.08.02-.04.06S30.15,28.6,30.17,28.57Zm-1.13-1.01a3.377,3.377,0,0,0,.64-.36.273.273,0,0,0-.04-.05.142.142,0,0,0-.06-.02c-.31-.04-.41.22-.56.4-.02.01-.04.02-.02.04S29.03,27.58,29.04,27.56Zm1.1,3.23a5.738,5.738,0,0,0-.92.55c.18.01.37.13.52-.03s.29-.32.43-.47c.01-.01.03-.03.03-.04C30.18,30.75,30.16,30.77,30.14,30.79Z"/>
  </g>
</svg>
