<svg xmlns="http://www.w3.org/2000/svg" width="100.457" height="100.457" viewBox="0 0 100.457 100.457"><g id="Livraison_sur_toute_la_Tunisie" data-name="Livraison sur toute la Tunisie" transform="translate(-28.19 -27.59)"><circle id="Ellipse_6" data-name="Ellipse 6" cx="50.228" cy="50.228" r="50.228" transform="translate(28.19 27.59)" fill="#c1dfb3"></circle><g id="Groupe_34" data-name="Groupe 34" transform="translate(44.97 52.325)"><path id="Trac&#xE9;_109" data-name="Trac&#xE9; 109" d="M42.226,86.911c-1.981-2.993-2.023-6.263-1.857-9.575.125-2.369.43-4.725.4-7.094-.055-5.362-.277-10.711-.443-16.073a15.519,15.519,0,0,1,.36-4.794,4.858,4.858,0,0,1,4.1-3.492,40.139,40.139,0,0,1,9.561-.3c2.272.111,4.545.042,6.817.069,1.746.014,3.478.055,5.224.042,3.838-.028,7.676-.125,11.514-.125a18.372,18.372,0,0,1,4.919.416,3.4,3.4,0,0,1,2.494,2.383,11.809,11.809,0,0,1,.527,3.021c.055,2.051-.028,4.115-.069,6.166v1.025c.97-.111,1.912-.236,2.854-.333a31.1,31.1,0,0,1,8.023-.083,8.77,8.77,0,0,1,2.3.665,2.8,2.8,0,0,1,1.219,1.081,74.857,74.857,0,0,1,5.75,12.6,32.343,32.343,0,0,1,1.635,13.925.71.71,0,0,0,.222.527,1.823,1.823,0,0,1,.9,1.69c0,.984-.014,1.968-.055,2.951a1.973,1.973,0,0,1-1.76,1.774,19.026,19.026,0,0,1-2.674.1c-.734,0-1.469-.083-2.2-.055a.817.817,0,0,0-.61.416,7.349,7.349,0,0,1-5.168,4.739c-.4.125-.79.291-1.192.43-.111.042-.222.125-.3.111-1.51-.374-3.131-.166-4.586-.956a6.532,6.532,0,0,1-3.353-3.977c-.139-.471-.3-.637-.8-.637q-12.554.021-25.093,0a.69.69,0,0,0-.79.582,6.777,6.777,0,0,1-3.506,3.963,8.31,8.31,0,0,1-7.538.152A6.092,6.092,0,0,1,45.5,93.949a.673.673,0,0,0-.831-.61c-.762.042-1.524.083-2.272.055A1.62,1.62,0,0,1,40.6,91.552c.069-.776-.042-1.566-.042-2.342A2.07,2.07,0,0,1,42.226,86.911ZM72.044,46.229c-.028.3-.055.471-.055.624.028,1.15.055,2.314.083,3.464.028,1.5.042,2.979.1,4.476a12.569,12.569,0,0,1-.54,4.545,2.536,2.536,0,0,1-3.242,1.815,13.327,13.327,0,0,1-4.6-2.259c-1.039-.693-.637-.734-1.746.014a12.978,12.978,0,0,1-4.531,2.245A2.372,2.372,0,0,1,54.7,59.683a5.5,5.5,0,0,1-.36-1.275c-.069-2.162-.1-4.323-.111-6.485,0-1.621.069-3.256.1-4.877,0-.291.014-.568-.443-.582-2.744-.083-5.473-.291-8.217-.277a3.069,3.069,0,0,0-3.242,2.55,31.108,31.108,0,0,0-.166,3.589c-.014,1.677.028,3.339.028,5.016,0,1.469-.028,2.937-.028,4.406,0,1.732.042,3.478.042,5.21,0,1.58-.055,3.159-.042,4.739,0,2.272.042,4.545.055,6.817,0,1.552-.111,3.118,0,4.669A3.807,3.807,0,0,0,44.72,86.73a2.888,2.888,0,0,0,2.813-.194A9.14,9.14,0,0,1,52.784,84.5a7.476,7.476,0,0,1,5.238,1.7,1.866,1.866,0,0,0,1.122.416c2.217.042,4.42.014,6.637.014,3.034,0,6.069.014,9.1.014,2.841,0,5.667-.014,8.508,0,.457,0,.637-.125.637-.61.014-2.425.083-4.85.083-7.274,0-1.843-.083-3.686-.1-5.542-.014-.734.055-1.469.055-2.2,0-1.289-.042-2.577-.042-3.866,0-1.039.069-2.078.069-3.131,0-1.9-.028-3.783-.028-5.681-.014-2.633.055-5.265-.055-7.884a3.821,3.821,0,0,0-3.284-3.963,13.974,13.974,0,0,0-2.827-.36C75.965,46.118,74.039,46.2,72.044,46.229Zm33.864,40.515c.083-.984.194-1.884.222-2.8A30.387,30.387,0,0,0,103.5,70.851c-1.427-3.339-3.076-6.6-4.6-9.893a2.842,2.842,0,0,0-2.2-1.76,33.521,33.521,0,0,0-4.254-.222c-1.4-.014-2.813.125-4.212.1-.97-.028-1.483.069-1.8.984a11.907,11.907,0,0,0-.776,3.353c-.125,3.381-.139,6.762-.1,10.143.028,2.3.236,4.586.346,6.886.042.859.1,1.732.069,2.6-.028,1.192-.111,2.4-.18,3.672.831,0,1.663.028,2.48-.014a1.706,1.706,0,0,0,.859-.277,8.419,8.419,0,0,1,4.988-1.815,6.869,6.869,0,0,1,4.545,1.275,3.943,3.943,0,0,0,2.951.859c.873-.028,1.746,0,2.619,0ZM56.026,46.34a8.454,8.454,0,0,1,.111.956c-.111,2.979-.291,5.958-.36,8.951a7.723,7.723,0,0,0,.36,2.7c.457,1.344,1.122,1.732,2.356.928.679-.43,1.33-.9,2.051-1.275a20.926,20.926,0,0,1,2.785-1.261,1.763,1.763,0,0,1,1.247.208c.776.43,1.469,1,2.245,1.441A23.888,23.888,0,0,0,69.2,60.182c.485.208.859.111.9-.54.1-1.205.319-2.4.346-3.589.028-1.718-.069-3.436-.1-5.141-.014-1.51,0-3.021,0-4.586C65.532,46.34,60.793,46.34,56.026,46.34ZM60.516,92.3H86.44a7.7,7.7,0,0,1,1.372-4.489H59.449A7.658,7.658,0,0,1,60.516,92.3Zm41.194.166c1.677,0,3.284.014,4.877-.014.139,0,.36-.263.374-.43a17.294,17.294,0,0,0,.194-2.4,1.706,1.706,0,0,0-1.7-1.94c-1.593-.1-3.187-.028-4.96-.028A7.006,7.006,0,0,1,101.71,92.467Zm-56.477.083a7.5,7.5,0,0,1,1.4-4.891H42.323c-.055,1.178-.166,2.342-.152,3.492.014.887.457,1.358,1.15,1.4C43.916,92.578,44.526,92.55,45.233,92.55Zm7.261-.693a2.1,2.1,0,0,0-.194.43c-.069.277-.263.72-.166.8a1.986,1.986,0,0,0,1.053.443c.554.042,1.316-.748,1.095-1.247-.194-.43.042-.776-.1-1.122A1.563,1.563,0,0,0,52.853,90a1.386,1.386,0,0,0-1.039.5,1.531,1.531,0,0,0-.18,1.8C51.911,92.134,52.161,92.023,52.493,91.857Zm41.388-.4c.222-.527.388-.9.54-1.275-.721-.346-1.233-.291-1.483.277a3.363,3.363,0,0,0-.277,1.718c.083.568.346,1.275,1.261.831-.042.18-.083.333-.125.485a1.128,1.128,0,0,0,1.4-.54,1.812,1.812,0,0,0-.166-2.12C94.7,91.012,94.352,91.192,93.881,91.455Zm-37.12-4.282c0-.083.014-.166.014-.249-.346-.111-.818-.43-1-.3-.984.665-1.884,1.441-2.827,2.189a1.806,1.806,0,0,0,.139.208C54.5,88.781,55.514,87.756,56.761,87.174Zm37.91-1.621c-.028-.069-.042-.152-.069-.222-.54.028-1.219-.139-1.58.125a18.319,18.319,0,0,0-2.12,2.037c.042.055.1.111.139.166C92.26,86.938,93.465,86.245,94.671,85.553ZM57.592,87.977c-.734.61-1.4,1.15-2.037,1.7a.391.391,0,0,0-.028.388c.1.1.319.18.416.125.734-.388,1.455-.818,2.2-1.261C57.939,88.587,57.786,88.324,57.592,87.977Zm-7.579,4.448c-.055-.028-.111-.055-.18-.083-.6.346-1.192.679-1.787,1.025-.734.43-.748.527-.18,1.3.651-.54,1.316-1.053,1.954-1.607C49.944,92.924,49.944,92.647,50.013,92.425Zm-2.8-.042c1.108-.942,2.148-1.815,3.2-2.688a1.451,1.451,0,0,0-.111-.152c-.873.5-1.732,1.039-2.633,1.5C47.1,91.317,46.965,91.691,47.214,92.384Zm43.91,4.96c.443.5.79.6,1.205.166a8.623,8.623,0,0,1,.776-.637c.582-.485,1.178-.956,1.76-1.441l-.125-.166C93.549,95.945,92.357,96.624,91.124,97.344Zm3.6-8.494c.042.083.1.166.139.249,1.081-.61,2.162-1.233,3.242-1.843,0-.083.014-.166.014-.249-.263-.083-.651-.3-.79-.208C96.445,87.451,95.6,88.158,94.726,88.85Zm-6.512,3.492c.1.069.18.139.277.208.831-.651,1.649-1.316,2.48-1.968-.125-.1-.194-.111-.249-.083-.679.374-1.372.734-2.009,1.164C88.477,91.8,88.38,92.107,88.214,92.342Zm-35.5,5.792c1.136.249,2.106-.319,2.8-1.621C54.544,97.081,53.671,97.58,52.715,98.134Zm1.954-12.29c-.707-.319-1.981.443-2.536,1.469C53.02,86.8,53.8,86.342,54.669,85.844Zm38.6,12.4a2.02,2.02,0,0,0,2.189-1.289C94.768,97.372,94.1,97.76,93.271,98.245Zm4.96-4.3c1.122-.166,1.774-.707,1.663-1.372C99.327,93.063,98.786,93.506,98.232,93.949ZM89.2,95.21c.055.069.1.152.152.222a6.572,6.572,0,0,0,1.8-1.192c-.042-.055-.069-.111-.111-.166C90.417,94.448,89.807,94.836,89.2,95.21ZM50.609,97.649c.042.055.069.125.111.18.762.069,1.081-.637,1.621-.956-.028-.055-.069-.111-.1-.18C51.7,97.025,51.163,97.33,50.609,97.649Zm-.388-2.743c-.942.166-1.649.651-1.76,1.247C49.071,95.723,49.569,95.363,50.221,94.905ZM98,90.444c.9-.111,1.538-.582,1.483-1.081C98.966,89.737,98.481,90.084,98,90.444Z" transform="translate(-40.301 -45.442)"></path><path id="Trac&#xE9;_110" data-name="Trac&#xE9; 110" d="M49.64,65.91c1.455.263,2.854.471,4.24.8a1.4,1.4,0,0,1,.79.845,7.331,7.331,0,0,1,.249,1.981,3.024,3.024,0,0,1-3.173,3.367c-1.621.055-3.242-.083-4.85-.125a3.824,3.824,0,0,0-.79.083,1.809,1.809,0,0,1-2.356-1.774,32.928,32.928,0,0,1,.194-3.312,1.029,1.029,0,0,1,.928-.984C46.453,66.492,48.046,66.2,49.64,65.91Zm-4.032,1.219c-.1.9-.236,1.774-.277,2.66-.069,2.2,1.524,2.577,3.062,2.356a5.107,5.107,0,0,1,.8-.055c.956-.014,1.912.014,2.868-.028.277-.014.734-.18.776-.333a6.692,6.692,0,0,0,.014-4A.919.919,0,0,0,51.8,67.1c-.416.042-.845.028-1.261.028Z" transform="translate(-38.971 -37.549)"></path><path id="Trac&#xE9;_111" data-name="Trac&#xE9; 111" d="M83.217,70.181c-1.469.083-2.937.222-4.42.236a8.078,8.078,0,0,1-2.369-.319c-.887-.277-1.067-.887-1.067-1.815-.014-1.621-.222-3.256-.249-4.877a19.08,19.08,0,0,1,.208-3.45,2.351,2.351,0,0,1,2.2-1.94,21.554,21.554,0,0,1,2.66-.236,3.851,3.851,0,0,1,3.187,1.593,19.236,19.236,0,0,1,1.926,3.2c.845,1.746,1.566,3.547,2.342,5.335a1.334,1.334,0,0,1-.693,1.954,11.848,11.848,0,0,1-2.536.443,7.121,7.121,0,0,1-1.205-.069A.1.1,0,0,0,83.217,70.181Zm2.9-.887a16.934,16.934,0,0,0-.6-2.092c-1.136-2.536-2.314-5.057-3.492-7.579a1.2,1.2,0,0,0-1.164-.748c-.693,0-1.386-.028-2.078-.028-1.815.028-1.829.028-1.857,1.884-.028,2.411,0,4.822-.028,7.233a1.33,1.33,0,0,0,.928,1.33,3.605,3.605,0,0,0,1.372.263C81.429,69.488,83.688,69.378,86.113,69.294Z" transform="translate(-26.879 -40.684)"></path><path id="Trac&#xE9;_112" data-name="Trac&#xE9; 112" d="M80.792,69.985a3.5,3.5,0,0,1-2.189.568,3.014,3.014,0,0,1-1-.083,2.521,2.521,0,0,1-.665-.388c.208-.208.4-.568.624-.6a18.291,18.291,0,0,1,2.134-.055C80.4,69.445,80.4,69.459,80.792,69.985Z" transform="translate(-26.172 -36.193)"></path></g></g></svg>