<svg xmlns="http://www.w3.org/2000/svg" width="23.115" height="22.784" viewBox="0 0 23.115 22.784">
  <path id="Log_in" data-name="Log in" d="M35.431,31.618a4.93,4.93,0,0,1-3.018,1.525,2.049,2.049,0,0,1-.7-.129c.14-.183.247-.43.44-.537.924-.483,1.869-.934,2.8-1.4l.279-.118c-.183-.376-.365-.73-.526-1.042-.387.279-.72.569-1.1.795-.247.15-.6.29-.816,0s.1-.537.3-.7c.333-.268.709-.494,1.117-.763-.193-.279-.43-.612-.644-.924a6.39,6.39,0,0,1-.795.569,1.234,1.234,0,0,1-.655.118c-.354-.021-.451-.279-.247-.58a1.587,1.587,0,0,1,1.052-.677.641.641,0,0,1,.634.215A11.134,11.134,0,0,1,36.129,31.7,2.354,2.354,0,0,1,36,33.831a2.635,2.635,0,0,1-1.525,1.106,12.313,12.313,0,0,1-2.406.44c-4,.311-8,.365-12.007.29A27.222,27.222,0,0,1,14.875,35c-1.4-.3-1.8-1.214-1.632-2.631a4.5,4.5,0,0,1,.311-1.128,15.934,15.934,0,0,1,3.834-5.864c.634-.58,1.375-1.042,2.094-1.589.011.064.011.032,0,.021a5.791,5.791,0,0,1-1.525-4.94A6.314,6.314,0,0,1,23.445,13a6.058,6.058,0,0,1,6.014,2.578c.15.236.258.516.387.763a.6.6,0,0,0-.086.054c-.129-.15-.247-.311-.376-.462a5.991,5.991,0,0,0-8.3-1.052,5.182,5.182,0,0,0-2.051,4.489,8.172,8.172,0,0,0,.2,1.622,4.147,4.147,0,0,0,2.825,3.1,6.519,6.519,0,0,0,4.468.032A5.712,5.712,0,0,0,30.286,18.3c-.054-.526-.172-1.052-.268-1.579a.744.744,0,0,1-.011-.344,5.031,5.031,0,0,1,.784,3.866A6.007,6.007,0,0,1,28.9,23.8a10.931,10.931,0,0,1,4.06,3.243,1.557,1.557,0,0,1,.311.591c-.494-.451-.988-.891-1.5-1.364a2.411,2.411,0,0,1-1.643,1.085.318.318,0,0,1-.107.021c-.268.011-.612.1-.709-.2-.043-.129.215-.419.4-.537.43-.268.891-.483,1.4-.752-.279-.183-.537-.344-.827-.526a1.015,1.015,0,0,1-.945.677.662.662,0,0,1-.516-.247c-.054-.129.086-.387.2-.537a1.936,1.936,0,0,1,.526-.333c-.354-.161-.655-.322-.977-.44a.536.536,0,0,0-.354.075,7.2,7.2,0,0,1-7.421.215.6.6,0,0,0-.473-.011,8.619,8.619,0,0,0-3.061,2.567,17.889,17.889,0,0,0-2.427,4.092,3.868,3.868,0,0,0-.344,1.8c.043.569.215.773.784.891.548.118,1.1.183,1.654.268a47.053,47.053,0,0,0,7.969.354q3.689-.032,7.378-.15a7.883,7.883,0,0,0,1.933-.3A1.875,1.875,0,0,0,35.431,31.618Z" transform="translate(-13.206 -12.913)"/>
</svg>
