<svg xmlns="http://www.w3.org/2000/svg" width="17.556" height="21.779" viewBox="0 0 17.556 21.779">
  <g id="naturel" transform="translate(-15.147 -13.529)">
    <path id="Tracé_119" data-name="Tracé 119" d="M23.77,35.3H16.36a1.94,1.94,0,0,1-.34-.02,1.009,1.009,0,0,1-.87-1.11c-.01-.4.01-.81.01-1.21,0-4.17.02-8.34-.01-12.5a3.6,3.6,0,0,1,.86-2.41c.41-.5.85-.97,1.22-1.51a.758.758,0,0,0,.15-.5c-.02-.43-.02-.86-.01-1.3a1.137,1.137,0,0,1,1.08-1.12,11.016,11.016,0,0,1,2.63-.02,5.24,5.24,0,0,0,1.72-.05,2.238,2.238,0,0,1,.51.04c.37,0,.75-.01,1.12-.01.44,0,.89.02,1.33.02H29.3c.11,0,.23.01.34.02a.791.791,0,0,1,.77.61,2.991,2.991,0,0,1,.06,1.26,1.527,1.527,0,0,0,.37,1.26,22.518,22.518,0,0,1,1.59,2.15,1.172,1.172,0,0,1,.18.62c.15,3.71.08,7.41.05,11.12-.01,1.09-.03,2.19.02,3.28.04.89-.34,1.3-1.3,1.37-.49.04-.98,0-1.47,0-2.05.01-4.09.01-6.14.01ZM17.39,17.07h0c-.03,0-.04.02-.04.05h0a.555.555,0,0,0-.08.06c-.37.5-.75,1-1.12,1.5a1.754,1.754,0,0,0-.26.42h7.86a.915.915,0,0,0,.33,0h7.81c-.26-.35-.47-.69-.73-.99a.463.463,0,0,0-.13-.18c-.25-.37-.53-.73-.81-1.08-.02-.05-.04-.1-.1-.12-.09-.12-.12-.3-.32-.3-.49,0-.97.01-1.46.01h-.07c-.29,0-.59,0-.88-.01h-.38c-.48,0-.96-.01-1.44-.01-.12,0-.24.03-.18.2a1.19,1.19,0,0,1-.03.96h0c-.03,0-.05.01-.04.05h0c-.03,0-.05.01-.05.04h0l-.06.03a1.386,1.386,0,0,1-.8.2h-.13c-.15-.04-.29.03-.44.01a2.532,2.532,0,0,0-.91.02c-.04-.01-.08-.01-.12-.02,0-.05-.04-.07-.08-.09-.42-.21-.51-.39-.42-.84.04-.19.1-.37.15-.56H20.59c-.04,0-.08.01-.12.01-.28,0-.55,0-.83-.01a2.715,2.715,0,0,0-.29.01h-1.2c-.37-.03-.45.02-.54.33h0c-.11.02-.14.09-.16.19h0c-.05,0-.06.03-.06.08h0C17.39,17.02,17.38,17.04,17.39,17.07Zm5.9-2.48c-.13.03-.24.09-.19.28a.71.71,0,0,0,.22-.24.4.4,0,0,0,.03-.04C23.32,14.55,23.3,14.57,23.29,14.59Zm-.07,2.61c-.11-.02-.18.07-.26.11-.05.02-.05.07-.02.11s.08.02.1-.01a.909.909,0,0,0,.18-.21c.01-.01.04,0,.01-.03C23.23,17.18,23.22,17.19,23.22,17.2Zm1.19-2.18a.673.673,0,0,0,.3-.16.114.114,0,0,0,.03-.15c-.05-.06-.09.01-.12.03-.08.08-.16.16-.23.24-.01.01-.03.03-.03.04C24.37,15.06,24.39,15.04,24.41,15.02Zm-.74.85a2.515,2.515,0,0,0-.5.28c.28.1.41-.07.53-.23a.4.4,0,0,0,.03-.04C23.72,15.84,23.69,15.86,23.67,15.87Zm-.49-1.69h0a1.258,1.258,0,0,0,.57-.3.471.471,0,0,1,.05-.02c-.01-.04-.04-.02-.06-.02h-.22c-.42-.04-.42-.04-.43.33,0,.03-.03.08.03.07C23.15,14.26,23.21,14.24,23.18,14.18Zm.95,3.15c-.24.03-.4.22-.63.31.35.14.49-.09.63-.31.01-.01.04-.01.01-.03A.037.037,0,0,0,24.13,17.33Zm1.73-3.48c-.06,0-.11-.01-.17-.01-.42,0-.42,0-.39.42v1.29c0,.16,0,.31-.01.47-.01.14.05.18.18.14a1.548,1.548,0,0,0,.43,0c.55.02,1.09.02,1.64,0a.571.571,0,0,0,.26,0c.67.01,1.34.01,2.02.02.07,0,.11-.03.1-.1-.01-.35.05-.7.01-1.05v-.14a1.1,1.1,0,0,0-.26-.85c-.06-.1-.17-.12-.26-.16a2.245,2.245,0,0,0-.73-.04H27.25c-.11,0-.23,0-.34.01a6.767,6.767,0,0,0-.78-.01A2.623,2.623,0,0,1,25.86,13.85Zm-1.89.7a1.191,1.191,0,0,0,.42-.28c.15-.04.33-.05.34-.27.01-.06.03-.13-.03-.15a.189.189,0,0,0-.22.05,7.82,7.82,0,0,0-.55.6c-.03.01-.08.01-.05.06C23.9,14.59,23.95,14.57,23.97,14.55Zm8.15,11.12a1.548,1.548,0,0,0,0-.43v-.26a1.548,1.548,0,0,0,0-.43V21.63c0-.15,0-.29-.01-.44,0-.08-.01-.15-.01-.23a1.479,1.479,0,0,0-.01-.42c0-.1,0-.2-.01-.3v-.56c.05-.22-.04-.3-.25-.26a.57.57,0,0,1-.13.01H18.04c-.73,0-1.46,0-2.19-.01-.09,0-.11.04-.11.12-.01.74-.05,1.48-.03,2.22v1.42a1.621,1.621,0,0,0,0,.44v.89a1.621,1.621,0,0,0,0,.44v.21a1.621,1.621,0,0,0,0,.44v5.02c0,.15,0,.29.01.44a.487.487,0,0,1-.01.12v2.73c0,.03-.01.07-.01.1a.662.662,0,0,0,.03.46.325.325,0,0,0,.1.18.5.5,0,0,0,.36.24.378.378,0,0,0,.21.04.593.593,0,0,0,.23.05c.42.02.83-.02,1.25-.04H21.5c.49.02.99.02,1.48,0h.72a4.571,4.571,0,0,0,.74,0h.51q1.215.03,2.43,0h.24a4.208,4.208,0,0,0,.71,0h.2c.51.02,1.01.02,1.52,0h.56c.31.01.62.01.93-.01a.517.517,0,0,0,.54-.35,1.233,1.233,0,0,0,.03-.47v-7.4a8.416,8.416,0,0,0,0-.87A1.029,1.029,0,0,0,32.12,25.67ZM20.46,13.82a2.917,2.917,0,0,0-.66-.02h-.43a2.876,2.876,0,0,0-1.05.15.527.527,0,0,0-.42.57c0,.26,0,.53.01.79v.25c0,.16,0,.33-.01.49,0,.1.03.14.13.14.51-.01,1.03-.01,1.54-.01a1.927,1.927,0,0,0,.48,0c.62.02,1.23.02,1.85,0h.18a1.492,1.492,0,0,1,.21.02c.18.03.24-.04.23-.22-.02-.38-.01-.76-.01-1.14v-.13c0-.24,0-.47.01-.71,0-.08-.02-.13-.12-.12-.18.02-.36.01-.53.02H21.7c-.23-.01-.46-.03-.69-.04A3.313,3.313,0,0,0,20.46,13.82Zm2.55,3.05c.22-.13.42-.24.66-.38C23.12,16.36,23.11,16.39,23.01,16.87Zm1.1-.05c.01.01.02.03.04.04.18-.1.37-.21.55-.31.03-.02.07-.04.06-.08-.01-.06-.07-.04-.1-.04C24.38,16.44,24.26,16.64,24.11,16.82Zm.45.84c.2.01.35.03.36-.21A3.647,3.647,0,0,0,24.56,17.66Zm-1.13-2.35c-.14.07-.37.06-.35.35A.977.977,0,0,0,23.43,15.31Zm.08-.04a.01.01,0,0,1-.01-.01v.02a.01.01,0,0,0,.01-.01Zm.54,1.61.01.01v-.01Z"/>
    <path id="Tracé_120" data-name="Tracé 120" d="M17.73,27.43V27.3a8.32,8.32,0,0,1,.09-1.12c.02-.1.05-.2.07-.31.08-.25.15-.49.23-.74.05-.1.09-.2.14-.3a6.188,6.188,0,0,1,2.97-2.81c.08-.04.14-.09.22-.13a2.44,2.44,0,0,0,.59-.21,11.237,11.237,0,0,1,1.73-.33,6.466,6.466,0,0,1,.88.02c.1,0,.2.01.3.01.27.05.53.1.8.14a.694.694,0,0,0,.28.08,6.26,6.26,0,0,1,2.02,1.12c.03.03.06.05.09.08a2.812,2.812,0,0,0,.34.35.218.218,0,0,0,.04.05l.6.84c.03.05.06.09.09.14a2.441,2.441,0,0,0,.21.43,1.667,1.667,0,0,1,.08.2c.06.15.12.3.17.45.01.03.01.06.02.09.08.3.17.61.25.91.01.06.01.11.02.17.03.16.05.32.08.48v.04a6.032,6.032,0,0,1-.09,1.64c0,.02-.01.04-.01.06-.07.24-.14.49-.21.73-.03.07-.06.15-.09.22a6.027,6.027,0,0,1-1.51,2.09c-.13.12-.28.23-.42.34-.18.14-.35.28-.53.42h-.04a.129.129,0,0,0-.14.08l.01.01L27,32.53c-.04,0-.07.01-.08.05h0c-.04,0-.07,0-.09.05h0c-.04,0-.07,0-.09.05h0c-.04,0-.07,0-.09.04h0a.49.49,0,0,0-.26.1c-.02.01-.03.02-.05.03h.01a2.321,2.321,0,0,0-.57.22,8.068,8.068,0,0,1-1.52.32,5.232,5.232,0,0,1-1.25-.03.757.757,0,0,0-.15-.01c-.09-.01-.17-.01-.26-.02-.22-.05-.44-.1-.66-.16-.01-.01-.02-.01-.04-.01a6.7,6.7,0,0,1-1.98-1.04c-.03-.03-.06-.05-.09-.08-.23-.23-.46-.46-.69-.7-.01-.02-.03-.03-.04-.05-.1-.14-.21-.28-.31-.42l-.12-.18c-.07-.14-.15-.28-.22-.43a1.417,1.417,0,0,1-.08-.18l-.33-.87-.03-.12c-.04-.16-.09-.32-.13-.48-.01-.06-.03-.11-.04-.17a1.64,1.64,0,0,0-.09-.44v-.06A1.45,1.45,0,0,0,17.73,27.43Zm9.86-4.39c-.01-.01-.02-.02-.03-.02-.02-.04-.04-.07-.08-.07a1.109,1.109,0,0,0-.32-.25.3.3,0,0,0-.17-.12,3.307,3.307,0,0,0-.83-.44.749.749,0,0,0-.32-.13,2.24,2.24,0,0,0-.5-.16.528.528,0,0,0-.25-.04,2.074,2.074,0,0,0-.5-.06.666.666,0,0,0-.28-.02h-.47a3.821,3.821,0,0,0-.83.05c-.04-.01-.07-.01-.09.03h0a2.773,2.773,0,0,0-.9.18,1.046,1.046,0,0,0-.17.04,4.853,4.853,0,0,0-2.87,2.55.672.672,0,0,0-.13.3,4.656,4.656,0,0,0-.4,1.35.744.744,0,0,0-.03.33,4.192,4.192,0,0,0-.04,1c0,.06.01.12.01.17a1.807,1.807,0,0,0,.06.52.875.875,0,0,1,.02.16c.03.15.06.29.09.44a.668.668,0,0,0,.08.25,1.058,1.058,0,0,0,.13.39.166.166,0,0,0,.05.13,1.349,1.349,0,0,0,.14.35.169.169,0,0,0,.07.12,3.285,3.285,0,0,0,.37.66.23.23,0,0,0,.11.13.884.884,0,0,0,.26.34.276.276,0,0,0,.12.16,1.153,1.153,0,0,0,.27.27.1.1,0,0,0,.07.08c.09.08.18.16.27.23a1.06,1.06,0,0,1,.12.1,3.08,3.08,0,0,0,.78.46.749.749,0,0,0,.35.16,4.554,4.554,0,0,0,1.86.38,3.528,3.528,0,0,0,.65,0,4.522,4.522,0,0,0,.96-.13.067.067,0,0,0,.08-.03h0a2.465,2.465,0,0,0,.54-.11,5.106,5.106,0,0,0,1.83-1.06,3.842,3.842,0,0,0,.91-1.13h0c.03,0,.04-.02.04-.05a1.232,1.232,0,0,0,.21-.39,4.859,4.859,0,0,0,.56-1.9.824.824,0,0,0,.04-.35,5.457,5.457,0,0,0-.01-.99c0-.07.03-.14-.02-.2a.576.576,0,0,0-.05-.29c0-.03-.01-.05-.01-.08a1.1,1.1,0,0,0-.08-.4.423.423,0,0,0-.05-.2,1.234,1.234,0,0,0-.12-.37.245.245,0,0,0-.06-.16,4.291,4.291,0,0,0-.59-1.17.148.148,0,0,0-.08-.12,1,1,0,0,0-.23-.31,1.221,1.221,0,0,0-.2-.25,1.153,1.153,0,0,0-.27-.27A.108.108,0,0,0,27.59,23.04Z"/>
    <g id="Groupe_43" data-name="Groupe 43">
      <path id="Tracé_121" data-name="Tracé 121" d="M20.28,27.39c.17-.38.33-.76.5-1.13a4.351,4.351,0,0,0,.36-1.07.381.381,0,0,1,.03-.1.361.361,0,0,1,.51-.27,1.991,1.991,0,0,1,.71.43,7.347,7.347,0,0,1,1.11,1.12c.04.05.06.08.14.04a5.79,5.79,0,0,1,2.75-.57c.24,0,.49.01.73.03a.463.463,0,0,1,.38.71,5.58,5.58,0,0,0-.48,1.39,13.2,13.2,0,0,1-.37,1.37,2.208,2.208,0,0,1-2.14,1.52,2.329,2.329,0,0,1-1.46-.56c-.08-.07-.16-.14-.23-.21a.186.186,0,0,0-.2-.06,2.051,2.051,0,0,1-2.29-1.14,1.884,1.884,0,0,1-.09-1.26,2.172,2.172,0,0,1,.07-.24C20.29,27.4,20.29,27.4,20.28,27.39Zm2.65,2.57a2.019,2.019,0,0,0,1.2.67,2.137,2.137,0,0,0,2.3-1.35,8.176,8.176,0,0,0,.39-1.45,4.684,4.684,0,0,1,.48-1.39.234.234,0,0,0-.18-.37,6.98,6.98,0,0,0-2.8.28c-.22.07-.42.18-.65.27a2.679,2.679,0,0,1,.47,1.66c.12-.12.22-.23.34-.34a3.333,3.333,0,0,1,1.21-.82.669.669,0,0,1,.19-.05c.04,0,.08.04.12.06a.413.413,0,0,1-.07.11c-.01.01-.04.01-.06.02a4.637,4.637,0,0,0-.55.26,4.969,4.969,0,0,0-1.16,1.08.818.818,0,0,0-.12.2,1.933,1.933,0,0,1-.78.98C23.16,29.84,23.05,29.89,22.93,29.96Zm-.46-.08a1.627,1.627,0,0,0,1.27-.99,2.223,2.223,0,0,0-.2-2.09,5.565,5.565,0,0,0-1.56-1.61,2.9,2.9,0,0,0-.29-.19.194.194,0,0,0-.31.13,4.511,4.511,0,0,1-.48,1.33,5.087,5.087,0,0,0-.47,1.19,1.881,1.881,0,0,0,1.3,2.2,4.775,4.775,0,0,0,.53.06.322.322,0,0,0,.01-.08,7.867,7.867,0,0,0-.41-3.33c-.04-.1-.02-.21.05-.22.11-.02.1.08.12.14a7.19,7.19,0,0,1,.43,2.43C22.49,29.19,22.47,29.53,22.47,29.88Z"/>
      <path id="Tracé_122" data-name="Tracé 122" d="M24.54,30.91H24.5a2.414,2.414,0,0,1-1.49-.57,1.211,1.211,0,0,1-.23-.22.142.142,0,0,0-.16-.05,2.086,2.086,0,0,1-2.34-1.17,1.865,1.865,0,0,1-.09-1.28c.01-.06.03-.11.04-.16l.01-.04-.02-.01.19-.42c.11-.25.22-.5.33-.76a4.19,4.19,0,0,0,.36-1.05.44.44,0,0,1,.02-.1v-.01a.438.438,0,0,1,.21-.29.46.46,0,0,1,.35-.01,2.126,2.126,0,0,1,.73.44,7.989,7.989,0,0,1,1.12,1.13c.04.05.04.05.08.03a5.905,5.905,0,0,1,2.77-.58c.22,0,.47.01.74.03a.523.523,0,0,1,.43.26.517.517,0,0,1-.02.51,5.173,5.173,0,0,0-.46,1.32l-.01.06c-.02.09-.05.19-.07.28-.09.36-.18.73-.3,1.09A2.243,2.243,0,0,1,24.54,30.91Zm-1.87-.93a.229.229,0,0,1,.17.08,2.232,2.232,0,0,0,.22.21,2.288,2.288,0,0,0,1.43.55h.04a2.145,2.145,0,0,0,2.07-1.49c.12-.35.21-.72.3-1.08.02-.09.05-.19.07-.28l.01-.06a5.094,5.094,0,0,1,.47-1.34.469.469,0,0,0,.02-.43.425.425,0,0,0-.36-.22c-.27-.02-.51-.03-.73-.03a5.647,5.647,0,0,0-2.73.57.143.143,0,0,1-.19-.05,8.406,8.406,0,0,0-1.11-1.12,2.043,2.043,0,0,0-.7-.42.362.362,0,0,0-.29,0,.367.367,0,0,0-.16.24v.01a.309.309,0,0,0-.02.08,4.422,4.422,0,0,1-.36,1.08c-.11.25-.22.5-.33.76l-.15.34h0v.04l-.02.07a.936.936,0,0,0-.04.16,1.835,1.835,0,0,0,.09,1.23A2,2,0,0,0,22.61,30,.142.142,0,0,1,22.67,29.98Zm1.78.71a1.733,1.733,0,0,1-.32-.03,2.032,2.032,0,0,1-1.23-.68l-.04-.04.05-.03a1.091,1.091,0,0,0,.11-.06c.08-.04.15-.08.22-.12a1.87,1.87,0,0,0,.76-.96.719.719,0,0,1,.12-.21,4.94,4.94,0,0,1,1.18-1.09,2.81,2.81,0,0,1,.39-.19c.06-.02.11-.05.17-.07.01-.01.02-.01.04-.01h.02c.01-.02.03-.04.04-.06h0c-.02-.01-.04-.03-.06-.03a.419.419,0,0,0-.15.04l-.03.01a3.37,3.37,0,0,0-1.19.81,2.391,2.391,0,0,0-.22.23l-.11.11-.08.08.01-.12a2.665,2.665,0,0,0-.46-1.64l-.03-.04.05-.02.21-.09a4.073,4.073,0,0,1,.44-.18,6.76,6.76,0,0,1,2.81-.28.271.271,0,0,1,.23.15.278.278,0,0,1-.02.29,4.649,4.649,0,0,0-.47,1.37,8.815,8.815,0,0,1-.4,1.46A2.216,2.216,0,0,1,24.45,30.69ZM23,29.97a1.946,1.946,0,0,0,1.14.61,2.11,2.11,0,0,0,2.26-1.32,9.426,9.426,0,0,0,.39-1.45,4.852,4.852,0,0,1,.48-1.4.183.183,0,0,0,.01-.2.2.2,0,0,0-.16-.1,6.783,6.783,0,0,0-2.78.28,3.251,3.251,0,0,0-.43.18c-.05.02-.11.05-.16.07a2.7,2.7,0,0,1,.45,1.53l.03-.03c.08-.08.15-.16.23-.23a3.54,3.54,0,0,1,1.22-.83l.03-.01a1.209,1.209,0,0,1,.18-.05.21.21,0,0,1,.11.04c.01.01.02.01.03.02l.04.02-.03.04c-.01.01-.01.02-.02.03a.241.241,0,0,1-.06.08.086.086,0,0,1-.06.03h-.02c-.06.03-.12.05-.17.08a2.64,2.64,0,0,0-.38.18,5.353,5.353,0,0,0-1.15,1.07.862.862,0,0,0-.11.19,1.946,1.946,0,0,1-.8,1c-.07.05-.14.08-.22.13C23.05,29.95,23.02,29.96,23,29.97Zm-.69,0h-.04a.97.97,0,0,0-.17-.01,2.348,2.348,0,0,1-.37-.05,1.926,1.926,0,0,1-1.33-2.25,4.687,4.687,0,0,1,.47-1.2,4.258,4.258,0,0,0,.47-1.32.225.225,0,0,1,.13-.18.25.25,0,0,1,.25.02c.1.06.2.13.29.19a5.6,5.6,0,0,1,1.57,1.62,2.237,2.237,0,0,1,.2,2.12,1.672,1.672,0,0,1-1.3,1.02l-.05.01v-.05c0-.11,0-.22.01-.33,0-.24.01-.46.01-.69a6.96,6.96,0,0,0-.43-2.41.075.075,0,0,1-.01-.05c-.02-.07-.02-.07-.06-.06a.02.02,0,0,0-.02.02.218.218,0,0,0,0,.14,7.761,7.761,0,0,1,.41,3.35.076.076,0,0,1-.01.04Zm-.74-4.95a.185.185,0,0,0-.07.02.155.155,0,0,0-.08.11,4.571,4.571,0,0,1-.48,1.34,4.823,4.823,0,0,0-.46,1.18,1.843,1.843,0,0,0,1.27,2.15,2.082,2.082,0,0,0,.36.05c.04,0,.09.01.13.01h0v-.03a7.736,7.736,0,0,0-.4-3.31.279.279,0,0,1,0-.22.115.115,0,0,1,.09-.06c.12-.02.15.08.16.13,0,.01.01.03.01.04a6.948,6.948,0,0,1,.43,2.44c0,.23,0,.45-.01.69v.27a1.534,1.534,0,0,0,1.18-.95,2.182,2.182,0,0,0-.2-2.05,5.388,5.388,0,0,0-1.54-1.59c-.09-.06-.19-.13-.29-.19A.193.193,0,0,0,21.57,25.02Z"/>
    </g>
  </g>
</svg>
