<svg xmlns="http://www.w3.org/2000/svg" xmlns:xlink="http://www.w3.org/1999/xlink" width="21" height="21.063" viewBox="0 0 21 21.063">
  <defs>
    <clipPath id="clip-path">
      <path id="Tracé_107" data-name="Tracé 107" d="M15.39,23.4A35.764,35.764,0,0,1,20.3,27a5.131,5.131,0,0,1,.98,1.15c.83,1.36.44,2.26.9,2.62,1.23.96,7.17-3.08,6.54-5.48-.28-1.06-1.63-1.02-2.54-2.86a4.685,4.685,0,0,1-.49-2.86c.36-1.98,2.34-3.87,4.09-3.6a3.418,3.418,0,0,1,2.13,1.64c1.91,2.87.76,7.19-.74,9.82-.64,1.13-3.11,5.05-7.85,5.89-.52.09-6,.99-8.43-2.37a6.016,6.016,0,0,1-1.06-4.34A6.1,6.1,0,0,1,15.39,23.4Z"/>
    </clipPath>
  </defs>
  <g id="graisse_faible" data-name="graisse faible" transform="translate(-13.344 -13.737)">
    <path id="Tracé_103" data-name="Tracé 103" d="M33.81,23.86a9.359,9.359,0,0,0-4.5-7.9,22.1,22.1,0,0,0-2.11-1.09c-.08-.04-.2-.07-.22-.13a.53.53,0,0,1,.01-.33c.02-.04.19-.06.27-.03a10.847,10.847,0,0,1,4.03,2.65,10.408,10.408,0,0,1,.84,13.59,10.435,10.435,0,0,1-6.9,4.01,9.843,9.843,0,0,1-7.57-1.78,10.117,10.117,0,0,1-3.84-5.37,9.891,9.891,0,0,1,.13-6.27,10.655,10.655,0,0,1,6.98-6.95,9.633,9.633,0,0,1,2.72-.46c.16-.01.33-.02.34.2s-.13.29-.32.29a10.681,10.681,0,0,0-3.27.6,9.528,9.528,0,0,0-5.82,5.59,10.018,10.018,0,0,0-.72,4.84,9.461,9.461,0,0,0,4.02,7.12,9.987,9.987,0,0,0,6.4,1.9,9.377,9.377,0,0,0,7.33-3.74A10.5,10.5,0,0,0,33.81,23.86Z"/>
    <path id="Tracé_104" data-name="Tracé 104" d="M23.5,34.8a9.749,9.749,0,0,1-5.85-1.93,10.193,10.193,0,0,1-3.86-5.39,9.916,9.916,0,0,1,.14-6.3,10.748,10.748,0,0,1,7.01-6.97,9.553,9.553,0,0,1,2.73-.47h.02c.15-.01.35-.01.36.24a.315.315,0,0,1-.07.24.366.366,0,0,1-.29.1,10.564,10.564,0,0,0-3.26.6,9.47,9.47,0,0,0-5.79,5.57,10.052,10.052,0,0,0-.71,4.82,9.415,9.415,0,0,0,4.01,7.09,9.958,9.958,0,0,0,6.38,1.89,9.35,9.35,0,0,0,7.3-3.73,10.627,10.627,0,0,0,2.17-6.71,9.333,9.333,0,0,0-4.48-7.86,12.907,12.907,0,0,0-1.42-.76c-.23-.11-.46-.22-.68-.33l-.06-.03c-.07-.03-.15-.06-.17-.13a.551.551,0,0,1,.01-.36c.04-.08.24-.08.32-.05a11.076,11.076,0,0,1,4.04,2.66,10.457,10.457,0,0,1,.85,13.64,10.487,10.487,0,0,1-6.92,4.03A11.02,11.02,0,0,1,23.5,34.8Zm.27-20.97h-.09a9.7,9.7,0,0,0-2.7.46,10.666,10.666,0,0,0-6.96,6.92,9.831,9.831,0,0,0-.13,6.25,10.11,10.11,0,0,0,3.83,5.34,9.789,9.789,0,0,0,7.53,1.77,10.4,10.4,0,0,0,6.87-4,10.362,10.362,0,0,0-.84-13.53,11.04,11.04,0,0,0-4.01-2.64.312.312,0,0,0-.22.01.438.438,0,0,0-.01.3c.01.03.08.06.13.08.02.01.05.02.07.03.22.12.46.23.68.33a13.048,13.048,0,0,1,1.43.76,9.43,9.43,0,0,1,4.52,7.93h0a10.645,10.645,0,0,1-2.19,6.76,9.436,9.436,0,0,1-7.36,3.76,10.115,10.115,0,0,1-6.43-1.91,9.5,9.5,0,0,1-4.04-7.15,10.116,10.116,0,0,1,.72-4.86,9.536,9.536,0,0,1,5.84-5.61,10.461,10.461,0,0,1,3.29-.6.289.289,0,0,0,.23-.08.231.231,0,0,0,.05-.17C23.96,13.86,23.89,13.83,23.77,13.83Z"/>
    <g id="Groupe_36" data-name="Groupe 36">
      <g id="Groupe_35" data-name="Groupe 35">
        <g id="Groupe_34" data-name="Groupe 34" clip-path="url(#clip-path)">
          <path id="Tracé_105" data-name="Tracé 105" d="M30.89,17.39c-.57.59-1.14,1.17-1.71,1.75l-1.73,1.74c-1.15,1.16-2.32,2.31-3.48,3.45s-2.34,2.29-3.51,3.42l-1.77,1.7c-.6.56-1.19,1.13-1.78,1.68.57-.59,1.14-1.17,1.71-1.75l1.73-1.74c1.15-1.16,2.32-2.31,3.48-3.45s2.34-2.29,3.51-3.42l1.77-1.7C29.7,18.51,30.29,17.94,30.89,17.39Z"/>
          <path id="Tracé_106" data-name="Tracé 106" d="M16.96,31.2l-.12-.12c.37-.39.75-.77,1.12-1.15.2-.2.4-.4.6-.61l1.73-1.74c1.18-1.19,2.4-2.39,3.48-3.45,1.15-1.12,2.33-2.29,3.52-3.42l1.77-1.7.61-.58c.38-.36.78-.74,1.17-1.1l.12.12c-.37.39-.75.77-1.12,1.15-.2.2-.4.4-.59.61l-1.73,1.74c-1.15,1.16-2.34,2.33-3.48,3.45-1.08,1.06-2.3,2.26-3.52,3.42l-1.77,1.7c-.21.2-.42.39-.62.59C17.75,30.46,17.35,30.83,16.96,31.2ZM27.08,21.14c-1.07,1.03-2.15,2.09-3.19,3.11-.99.98-2.1,2.07-3.19,3.16,1.11-1.07,2.23-2.16,3.22-3.13C24.95,23.25,26.02,22.19,27.08,21.14Z"/>
        </g>
      </g>
    </g>
    <path id="Tracé_108" data-name="Tracé 108" d="M23.51,20.82a.763.763,0,0,0,.52.29,2.282,2.282,0,0,1,2.09,2.01.623.623,0,0,0,.38.56,2.187,2.187,0,0,1,.85,3.08,1.117,1.117,0,0,0-.07.52,4.973,4.973,0,0,1-.02,1.16,1.993,1.993,0,0,1-3.13.97,1.6,1.6,0,0,0-.67-.25,2.4,2.4,0,0,1-1.96-1.49,1.626,1.626,0,0,0-.44-.47,5.38,5.38,0,0,1-1.1-.95,1.369,1.369,0,0,0-1.01-.7,2.1,2.1,0,0,1-1.67-1.71,1.916,1.916,0,0,1,.84-2.13.824.824,0,0,0,.27-.41,1.815,1.815,0,0,1,1.4-1.26c.61-.11,1.24-.13,2.06-.21A2.356,2.356,0,0,1,23.51,20.82Zm-.28.49A1.764,1.764,0,0,0,21,20.45a1.217,1.217,0,0,1-.47.04A1.446,1.446,0,0,0,18.8,21.7a.661.661,0,0,1-.24.33,1.5,1.5,0,0,0-.79,1.8,1.743,1.743,0,0,0,1.7,1.32c.43-.02.61.1.72.52a1.594,1.594,0,0,0,1.18,1.13.647.647,0,0,1,.56.56,1.775,1.775,0,0,0,1.74,1.34,1.106,1.106,0,0,1,.58.21,1.658,1.658,0,0,0,2.02.18,1.552,1.552,0,0,0,.48-1.88.619.619,0,0,1,.06-.5,1.7,1.7,0,0,0-.71-2.68.569.569,0,0,1-.43-.63,1.825,1.825,0,0,0-2.08-1.78A.96.96,0,0,1,23.23,21.31Z"/>
    <path id="Tracé_109" data-name="Tracé 109" d="M22.23,22.24c-.05.04-.18.14-.3.24a1.469,1.469,0,0,0,.39.24,1.61,1.61,0,0,1,1.6,1.68.425.425,0,0,0,.37.44,1.52,1.52,0,0,1,.89,2.46,1.028,1.028,0,0,0-.05.44c.15-.06.34-.07.43-.17a2,2,0,0,0-.72-3.05.709.709,0,0,1-.5-.6A2.058,2.058,0,0,0,22.23,22.24Z"/>
    <path id="Tracé_110" data-name="Tracé 110" d="M20.97,22.99c.19-.17.33-.3.48-.42-.11-.07-.24-.21-.31-.19a2.88,2.88,0,0,0-.5.3C20.73,22.77,20.82,22.85,20.97,22.99Z"/>
  </g>
</svg>
