<svg xmlns="http://www.w3.org/2000/svg" width="100.665" height="100.665" viewBox="0 0 100.665 100.665"><g id="Packaging_recyclable_et_recycl&#xE9;" data-name="Packaging recyclable et recycl&#xE9;" transform="translate(-28.19 -27.59)"><circle id="Ellipse_7" data-name="Ellipse 7" cx="50.332" cy="50.332" r="50.332" transform="translate(28.19 27.59)" fill="#c1dfb3"></circle><path id="Trac&#xE9;_113" data-name="Trac&#xE9; 113" d="M67.6,58.978c-.458,0-.916-.014-1.375,0-.264.014-.486-.069-.514-.347-.042-.305.153-.472.444-.472.569-.014,1.152,0,1.722-.014a13.961,13.961,0,0,0,1.708-.042A1.594,1.594,0,0,0,71,55.742c-.444-1.1-1.027-2.138-1.541-3.194-.056-.111-.18-.222-.18-.333,0-.167.042-.4.153-.458.139-.069.347.014.528.056.042.014.069.083.1.125a15.533,15.533,0,0,1,1.805,3.707A2.306,2.306,0,0,1,70.2,58.811a15.975,15.975,0,0,1-2.583.278A.345.345,0,0,1,67.6,58.978Z" transform="translate(14.574 9.378)"></path><path id="Trac&#xE9;_114" data-name="Trac&#xE9; 114" d="M59.2,56.425c.1-.389.181-.791.292-1.166a13.867,13.867,0,0,1,1.777-3.679c.167-.25.375-.444.666-.222.278.194.194.444.028.68a12.648,12.648,0,0,0-1.805,3.874c-.236.9-.014,1.264.916,1.43.972.167,1.958.319,2.93.458.305.042.555.153.486.514-.056.333-.319.347-.611.305-1.041-.167-2.1-.305-3.124-.5A1.677,1.677,0,0,1,59.2,56.425Z" transform="translate(12.047 9.195)"></path><path id="Trac&#xE9;_115" data-name="Trac&#xE9; 115" d="M69.382,50.941c-.083.111-.139.264-.25.305a.58.58,0,0,1-.43-.028c-.111-.042-.18-.181-.25-.292-.694-.972-1.375-1.972-2.1-2.916a1.178,1.178,0,0,0-2.11.1,10.491,10.491,0,0,0-.625,1.25,3.53,3.53,0,0,1-.4.75.55.55,0,0,1-.5.111.515.515,0,0,1-.194-.472,13.648,13.648,0,0,1,1.069-2.166,1.955,1.955,0,0,1,3.374-.139c.819,1.014,1.527,2.11,2.291,3.166C69.3,50.7,69.326,50.816,69.382,50.941Z" transform="translate(13.334 7.362)"></path><path id="Trac&#xE9;_116" data-name="Trac&#xE9; 116" d="M62.326,50.761c.639-.1,1.222-.194,1.819-.278.292-.042.583,0,.6.375s-.264.4-.555.458c-.666.125-1.333.25-1.972.417-.6.167-.805.028-.764-.6.056-.764.111-1.541.167-2.3a1.882,1.882,0,0,1,.028-.278c.042-.264.208-.43.458-.347a.6.6,0,0,1,.347.43c0,.6-.056,1.194-.1,1.791C62.34,50.539,62.34,50.65,62.326,50.761Z" transform="translate(12.919 8.001)"></path><path id="Trac&#xE9;_117" data-name="Trac&#xE9; 117" d="M64.4,57c-.583-.542-1.069-1-1.555-1.458-.222-.208-.347-.458-.083-.708.25-.222.472-.083.68.111.542.5,1.083.972,1.638,1.444.25.208.333.43.139.708a5.22,5.22,0,0,1-1.861,1.749c-.25.139-.528.236-.708-.1s.069-.472.305-.653C63.451,57.775,63.9,57.387,64.4,57Z" transform="translate(13.364 10.539)"></path><path id="Trac&#xE9;_118" data-name="Trac&#xE9; 118" d="M68.325,51.428c-.1.75-.18,1.444-.264,2.138-.028.292-.139.5-.444.472-.333-.028-.4-.264-.375-.569.083-.736.167-1.472.264-2.208a.709.709,0,0,1,.986-.639c.625.167,1.25.361,1.874.542.264.083.458.236.375.528s-.333.347-.6.264C69.56,51.789,68.977,51.622,68.325,51.428Z" transform="translate(15.169 8.93)"></path><path id="Trac&#xE9;_119" data-name="Trac&#xE9; 119" d="M99.916,71.841c0,7.526-.042,15.051.028,22.577a4.5,4.5,0,0,1-4.4,4.707c-1.763.125-3.555.042-5.332.042-2.791.014-5.582.042-8.373.042-1.861,0-3.735-.042-5.6-.042-2.944-.014-5.873-.014-8.817,0-2.416,0-4.818.042-7.234.042-2.777,0-5.554-.028-8.331-.042-.93,0-1.847.014-2.777,0C46.349,99.1,44.835,97.736,44.6,95a38.907,38.907,0,0,1-.056-4.027c.014-2,.069-3.985.069-5.984q.021-12.351,0-24.7c0-2.055-.167-4.11-.153-6.151a36.524,36.524,0,0,1,.292-5.1c.417-2.833,1.861-4.152,4.707-4.36,2.11-.153,4.249-.125,6.373-.139,2.61-.014,5.221.014,7.845.028,3.513.014,7.04.042,10.552.056,2.721.014,5.443,0,8.164,0,1.264,0,2.541.028,3.8,0,2.624-.056,5.248-.153,7.873-.167a10.783,10.783,0,0,1,2.583.319,4.081,4.081,0,0,1,3.277,4.235Q99.909,60.407,99.916,71.841Zm-41.4-26.562c-1.319,0-2.61.028-3.9-.014-1.569-.042-3.152-.264-4.721-.181C47.737,45.2,46.071,46.4,46,48.806c-.014.722,0,1.444-.014,2.18-.028,1.1-.083,2.208-.1,3.3-.014,1.888.014,3.763.028,5.651.014,1.722.014,3.443.028,5.165,0,.6.014,1.194.014,1.791-.014.9-.042,1.805-.042,2.708,0,.972.069,1.944.069,2.93.014,1.152-.014,2.319-.028,3.471,0,.708,0,1.416.014,2.124l.042,4.457c0,1.444-.014,2.9-.014,4.346,0,1.486.014,2.971,0,4.457,0,1.139-.111,2.291,0,3.416a8.084,8.084,0,0,0,.68,2.319,1.386,1.386,0,0,0,.861.625,27.44,27.44,0,0,0,3,.458c1.874.18,3.749.347,5.637.444,2.152.111,4.3.167,6.47.208,1.388.028,2.791-.028,4.179-.042,1.361-.014,2.721,0,4.068-.042,1.25-.028,2.5-.111,3.749-.139,1.472-.028,2.93-.028,4.4-.056,2.249-.056,4.5-.139,6.734-.167,1.666-.028,3.332.028,5,.042,1.527.014,3.041.014,4.568.083a1.918,1.918,0,0,0,1.833-.708,8,8,0,0,0,1.069-2.222,16.761,16.761,0,0,0,.43-2.777,26.707,26.707,0,0,0,.18-2.985c-.028-2.013-.139-4.013-.222-6.012-.069-1.555-.167-3.11-.222-4.665-.028-.972-.028-1.958,0-2.93.014-.708.153-1.4.153-2.11.014-1.611-.028-3.221-.028-4.832,0-1.18.028-2.347.028-3.527,0-1.444-.014-2.9-.014-4.346,0-1.68.028-3.36.028-5.054,0-1.6-.014-3.18-.042-4.776-.014-1.152-.028-2.3-.125-3.457a3.021,3.021,0,0,0-1.25-2.027A5.275,5.275,0,0,0,93.626,45.1c-2.3-.014-4.6.125-6.9.208-.736.028-.819.056-.833.819-.042,2.152-.056,4.3-.056,6.456,0,.833.056,1.666.1,2.5.1,1.555.222,3.11.319,4.651.056.833.069,1.666.083,2.485a14.037,14.037,0,0,1-.653,5.582c-.861,2.18-1.916,2.485-3.832,2.374A9.332,9.332,0,0,1,77.77,68.8c-1.763-1.014-3.471-2.1-5.193-3.194a.8.8,0,0,0-.986-.056c-1.055.653-2.1,1.305-3.166,1.916q-2.353,1.312-4.749,2.541a4.351,4.351,0,0,1-2.555.333c-1.444-.181-2.471-1.805-2.541-3.291-.1-2.069-.056-4.138-.056-6.193v-9.65C58.512,49.222,58.512,47.251,58.512,45.279Zm26.048-.042H59.97c0,2.1.042,4.138-.014,6.179-.069,2.555-.278,5.1-.305,7.651a61.509,61.509,0,0,0,.25,6.4,10.787,10.787,0,0,0,.9,3.041,1.82,1.82,0,0,0,2.61.75c1.486-.778,2.944-1.652,4.374-2.527a18.252,18.252,0,0,1,4.582-2.249,1.423,1.423,0,0,1,.958.1c.875.458,1.722,1,2.583,1.5,1.083.653,2.166,1.333,3.263,1.944.875.5,1.791.944,2.708,1.361,1.1.486,1.5,0,1.958-.75a2.4,2.4,0,0,0,.319-.75,24.434,24.434,0,0,0,.514-3.152c.125-2.069.139-4.152.167-6.234.014-.889-.069-1.763-.111-2.652-.056-1.5-.153-3-.167-4.513C84.532,49.334,84.56,47.32,84.56,45.238Z" transform="translate(6.32 6.554)"></path><path id="Trac&#xE9;_120" data-name="Trac&#xE9; 120" d="M52.8,74.493c1.888,0,3.777-.028,5.665.014.958.014,1.916.153,2.874.222a.742.742,0,0,1,.75.666,18.035,18.035,0,0,1,.389,2.833,19.483,19.483,0,0,1-.347,3.6c-.194,1.027-.611,1.208-1.666,1.222-1.569.014-3.138.125-4.721.167-1.625.042-3.263.125-4.887.014a3.364,3.364,0,0,1-2.624-.986,1.218,1.218,0,0,1-.305-.666c-.056-1.625-.1-3.249-.1-4.887a1.975,1.975,0,0,1,2.18-2.11c.472,0,.944.028,1.416.028h1.361A.345.345,0,0,0,52.8,74.493ZM55.161,82v.042c1.763,0,3.527.014,5.29-.014a.65.65,0,0,0,.472-.361,1.725,1.725,0,0,0,.111-.805c0-.75-.056-1.486-.056-2.235,0-.666.056-1.333.056-2,0-.75-.305-1.041-1.041-1.027-1.347.028-2.68.083-4.027.083-1.458,0-2.93-.069-4.388-.083a10.261,10.261,0,0,1-1.458.028c-.528-.1-.736.111-.75.569-.056,1.555-.083,3.11-.1,4.651a1.74,1.74,0,0,0,.181.791.657.657,0,0,0,.472.347C51.676,82.018,53.412,82,55.161,82Z" transform="translate(7.63 18.217)"></path><path id="Trac&#xE9;_121" data-name="Trac&#xE9; 121" d="M77.9,79.9c1.555,0,3.124-.014,4.679.014a4.683,4.683,0,0,1,1.236.194c.167.042.292.222.43.347a4.359,4.359,0,0,1-.43.444c-.056.056-.167.042-.264.042-2.846.042-5.693.1-8.539.1a17.139,17.139,0,0,1-2.222-.194c-.194-.028-.361-.236-.528-.361.222-.153.43-.417.653-.444,1.125-.083,2.249-.1,3.374-.125.542-.014,1.083,0,1.638,0C77.9,79.915,77.9,79.9,77.9,79.9Z" transform="translate(17.12 20.32)"></path></g></svg>