<svg xmlns="http://www.w3.org/2000/svg" width="24.445" height="23.399" viewBox="0 0 24.445 23.399">
  <g id="Panier" transform="translate(-13.134 -14.055)">
    <path id="Tracé_109" data-name="Tracé 109" d="M21.488,29.813c0,.056-.011.124-.011.2V32.16a.662.662,0,0,0,.733.722c3.046.113,6.1.226,9.15.35a9.558,9.558,0,0,1,1.264.113c-.406.023-.8.056-1.207.079a2.042,2.042,0,0,1,1.038,1.636,1.93,1.93,0,0,1-.474,1.467,2.057,2.057,0,1,1-2.843-2.933c-1.275.056-2.482.1-3.757.147A1.977,1.977,0,0,1,26,35.567a2.011,2.011,0,0,1-.722,1.23,2.053,2.053,0,0,1-2.674-.023c-.88-.767-.948-1.794-.181-2.978a1.4,1.4,0,0,0-.2-.023,1.437,1.437,0,0,1-1.467-1.5,18.307,18.307,0,0,0-.621-5.246c-.79-3.4-1.489-6.814-2.234-10.221a2.348,2.348,0,0,0-.2-.677,1.289,1.289,0,0,0-1.128-.53l-.7-.068v-.1a6.394,6.394,0,0,1,1.309-.056,1.132,1.132,0,0,1,.8.846c.226.621.406,1.264.609,1.929h.463c4.31-.079,8.608-.169,12.918-.237,1.557-.023,3.1-.011,4.659,0,.463,0,.677.248.575.711-.406,1.76-.835,3.509-1.264,5.269-.463,1.907-.948,3.813-1.422,5.72a.486.486,0,0,1-.564.406c-1.568-.023-3.136-.034-4.7-.056-2.211-.045-4.434-.1-6.645-.147C22.222,29.8,21.861,29.813,21.488,29.813Zm1.783-6.239c-.045-1.613-.09-3.2-.147-4.84l-4.219-.1c.474,1.783.925,3.509,1.388,5.224C21.319,23.766,22.312,23.665,23.271,23.575ZM36.392,18.9H32.409c-.056,1.579-.113,3.125-.158,4.671.97.09,1.952.192,2.967.293C35.6,22.221,36,20.585,36.392,18.9Zm-12.918-.192c.327,1.591.643,3.17.97,4.772l2.854-.1a23.379,23.379,0,0,1,.451-4.592C26.294,18.768,24.862,18.735,23.474,18.712Zm8.732.124H27.987c.124,1.5.259,3.012.384,4.558.914.023,1.873.056,2.843.09A24.94,24.94,0,0,1,32.206,18.836ZM24.4,29.261c-.338-1.681-.677-3.339-1.015-5.009-.959-.09-1.963-.192-2.978-.282.44,1.805.88,3.588,1.32,5.393C22.639,29.328,23.542,29.294,24.4,29.261Zm7.649-4.953a27.543,27.543,0,0,1-.993,4.863h.327c.767-.011,1.534-.034,2.3-.034.2,0,.259-.079.293-.248.2-.936.429-1.873.643-2.809.158-.688.316-1.365.474-2.065C34.079,24.116,33.075,24.206,32.048,24.308Zm-4.3,4.93a27.271,27.271,0,0,1-.451-4.863c-.959-.034-1.9-.056-2.8-.09.056,1.67.113,3.317.169,4.953Zm3.294-5c-.9.034-1.839.068-2.787.113a29.119,29.119,0,0,1-.44,4.784H30.83C30.909,27.478,30.976,25.876,31.044,24.24Zm-.463,9.206a1.4,1.4,0,0,0-1.354,1.512,1.343,1.343,0,1,0,1.354-1.512ZM22.707,34.9a1.333,1.333,0,0,0,2.617.35,1.418,1.418,0,0,0-.474-1.5.315.315,0,0,0-.2-.068c-.44.011-.891.023-1.331.045a.3.3,0,0,0-.214.1A1.558,1.558,0,0,0,22.707,34.9Z" transform="translate(0.351 0.166)"/>
    <path id="Tracé_110" data-name="Tracé 110" d="M16.006,15.539a4.382,4.382,0,0,0-.575-.553.863.863,0,0,0-1.162.2.749.749,0,0,0-.045.857.9.9,0,0,0,.9.35,1.255,1.255,0,0,0,.835-.677,1.128,1.128,0,0,1-.44,1.185,1.593,1.593,0,0,1-1.862-.045,1.679,1.679,0,0,1-.44-1.76,1.5,1.5,0,0,1,2.358-.722A1.153,1.153,0,0,1,16.006,15.539Z"/>
  </g>
</svg>
