<?xml version="1.0" encoding="utf-8"?>
<!-- Generator: Adobe Illustrator 25.2.0, SVG Export Plug-In . SVG Version: 6.00 Build 0)  -->
<svg version="1.1" id="Calque_1" xmlns="http://www.w3.org/2000/svg" xmlns:xlink="http://www.w3.org/1999/xlink" x="0px" y="0px"
	 viewBox="0 0 48 48" style="enable-background:new 0 0 48 48;" xml:space="preserve">
<style type="text/css">
	.st0{stroke:#000000;stroke-width:0.25;stroke-miterlimit:10;}
</style>
<path class="st0" d="M33.53,24.3c0,4.58-3.29,8.55-7.78,9.38c-5.23,0.97-10.3-2.5-11.27-7.73c-0.23-1.23-0.28-2.48,0.09-3.69
	c0.43-1.43,0.89-2.86,1.82-4.09c1.34-1.76,3.07-2.9,5.23-3.35c3.23-0.67,6.15,0.04,8.69,2.17c1.62,1.36,2.6,3.14,3.01,5.21
	c0.13,0.69,0.18,1.39,0.27,2.08C33.57,24.29,33.55,24.3,33.53,24.3z M23.63,14.99c-0.07,0-0.14,0-0.21,0
	c-0.11,0-0.22,0.01-0.33,0.02c-1.9,0.11-3.61,0.74-5.1,1.93c-1.55,1.24-2.51,2.87-3.14,4.72c-0.01,0.02,0,0.05,0,0.07
	c0,0.19,0.01,0.38-0.02,0.56c-0.16,1.22-0.13,2.43,0.13,3.64c1,4.62,5.34,7.79,10.02,7.25c3.29-0.38,5.65-2.14,7.11-5.1
	c0.82-1.66,1.04-3.44,0.77-5.28c-0.27-1.86-1-3.5-2.3-4.87C28.68,15.96,26.33,15.04,23.63,14.99z"/>
<path d="M24.33,18.74c0.03,0.18,0.05,0.36,0.08,0.55c0.59,0.09,1.13,0.3,1.52,0.79c-0.23-0.12-0.46-0.26-0.7-0.35
	c-0.25-0.09-0.51-0.13-0.8-0.2c0.05,1.23,0.09,2.42,0.14,3.61c0.28,0.05,0.57,0.08,0.84,0.14c1.11,0.25,1.83,1.04,1.91,2.08
	c0.09,1.24-0.45,2.2-1.53,2.62c-0.32,0.12-0.67,0.14-1.01,0.21c-0.04,0.01-0.09,0.01-0.14,0.02c-0.02,0.3-0.03,0.59-0.06,0.88
	c-0.01,0.13,0.01,0.33-0.17,0.35c-0.18,0.01-0.17-0.19-0.19-0.31c-0.05-0.31-0.09-0.63-0.13-0.92c-0.44-0.13-0.88-0.23-1.29-0.41
	c-0.32-0.14-0.61-0.36-0.9-0.56c-0.05-0.04-0.06-0.14-0.09-0.21c0.08,0,0.16-0.02,0.23,0c0.57,0.18,1.13,0.37,1.7,0.56
	c0.1,0.03,0.21,0.03,0.33,0.05c-0.02-1.32-0.04-2.62-0.06-3.91c-0.38-0.08-0.76-0.14-1.13-0.25c-0.83-0.24-1.38-0.91-1.39-1.68
	s0.35-1.37,0.92-1.85c0.48-0.4,1.03-0.63,1.66-0.63c0.04,0,0.08-0.01,0.11-0.01c0.03-0.19,0.06-0.37,0.09-0.56
	C24.29,18.73,24.31,18.74,24.33,18.74z M24.62,23.76c0,1.29,0,2.58,0,3.9c0.18-0.02,0.33-0.03,0.47-0.05
	c1.18-0.18,1.9-1.33,1.57-2.48C26.42,24.29,25.57,23.73,24.62,23.76z M24.15,19.62c-0.97-0.01-2.01,0.84-2.17,1.77
	c-0.08,0.48,0.03,0.91,0.41,1.23c0.47,0.4,1.05,0.46,1.63,0.51C24.07,21.95,24.11,20.79,24.15,19.62z"/>
</svg>
