<svg xmlns="http://www.w3.org/2000/svg" width="29.895" height="29.878" viewBox="0 0 29.895 29.878">
  <g id="prix" transform="translate(-14.18 -14.448)">
    <path id="Tracé_109" data-name="Tracé 109" d="M43.847,29.517A14.688,14.688,0,0,1,31.893,43.929,14.883,14.883,0,0,1,14.577,32.052a11.8,11.8,0,0,1,.138-5.67,19.229,19.229,0,0,1,2.8-6.284,13.23,13.23,0,0,1,8.036-5.147A15.079,15.079,0,0,1,38.9,18.285a13.622,13.622,0,0,1,4.625,8.005c.2,1.06.277,2.136.415,3.2A.218.218,0,0,1,43.847,29.517Zm-15.212-14.3h-.323c-.169,0-.338.015-.507.031a13.516,13.516,0,0,0-7.836,2.965,15.23,15.23,0,0,0-4.825,7.252c-.015.031,0,.077,0,.108a5.309,5.309,0,0,1-.031.86,16.3,16.3,0,0,0,.2,5.593,14.187,14.187,0,0,0,15.4,11.14,13.308,13.308,0,0,0,10.925-7.836,13.52,13.52,0,0,0,1.183-8.113,13.354,13.354,0,0,0-3.534-7.483A14.5,14.5,0,0,0,28.636,15.212Z" transform="translate(0 0)" stroke="#000" stroke-miterlimit="10" stroke-width="0.25"/>
    <path id="Tracé_110" data-name="Tracé 110" d="M25.854,18.741c.046.277.077.553.123.845A3.49,3.49,0,0,1,28.312,20.8a10.029,10.029,0,0,0-1.076-.538,11.964,11.964,0,0,0-1.229-.307c.077,1.89.138,3.718.215,5.547.43.077.876.123,1.291.215a3.529,3.529,0,0,1,2.935,3.2A3.719,3.719,0,0,1,28.1,32.939a10.294,10.294,0,0,1-1.552.323c-.061.015-.138.015-.215.031-.031.461-.046.907-.092,1.352-.015.2.015.507-.261.538-.277.015-.261-.292-.292-.476-.077-.476-.138-.968-.2-1.414a16.554,16.554,0,0,1-1.982-.63,8.635,8.635,0,0,1-1.383-.86c-.077-.061-.092-.215-.138-.323a1.359,1.359,0,0,1,.353,0c.876.277,1.736.569,2.612.86a4.424,4.424,0,0,0,.507.077c-.031-2.028-.061-4.026-.092-6.008-.584-.123-1.168-.215-1.736-.384a2.788,2.788,0,0,1-2.136-2.581A3.559,3.559,0,0,1,22.9,20.6a3.9,3.9,0,0,1,2.551-.968c.061,0,.123-.015.169-.015.046-.292.092-.569.138-.86C25.792,18.726,25.823,18.741,25.854,18.741Zm.446,7.713v5.992c.277-.031.507-.046.722-.077a2.976,2.976,0,0,0,2.412-3.811A3.086,3.086,0,0,0,26.3,26.455Zm-.722-6.361a3.6,3.6,0,0,0-3.334,2.72,1.908,1.908,0,0,0,.63,1.89,4.178,4.178,0,0,0,2.5.784C25.454,23.674,25.516,21.891,25.577,20.093Z" transform="translate(3.858 2.232)"/>
  </g>
</svg>
