<svg xmlns="http://www.w3.org/2000/svg" width="23.342" height="23.326" viewBox="0 0 23.342 23.326">
  <g id="prix" transform="translate(-14.179 -14.449)">
    <path id="Tracé_104" data-name="Tracé 104" d="M37.313,26.213A11.44,11.44,0,0,1,28,37.438a11.592,11.592,0,0,1-13.487-9.251,9.188,9.188,0,0,1,.108-4.416A14.977,14.977,0,0,1,16.8,18.877a10.3,10.3,0,0,1,6.259-4.009,11.745,11.745,0,0,1,10.4,2.6,10.609,10.609,0,0,1,3.6,6.235c.156.826.215,1.663.323,2.489A.17.17,0,0,1,37.313,26.213ZM25.466,15.071h-.251c-.132,0-.263.012-.395.024a10.527,10.527,0,0,0-6.1,2.31,11.862,11.862,0,0,0-3.758,5.649c-.012.024,0,.06,0,.084a4.135,4.135,0,0,1-.024.67,12.692,12.692,0,0,0,.156,4.356A11.05,11.05,0,0,0,27.081,36.84a10.365,10.365,0,0,0,8.509-6.1,10.53,10.53,0,0,0,.921-6.319,10.4,10.4,0,0,0-2.753-5.828A11.3,11.3,0,0,0,25.466,15.071Z" transform="translate(0)" stroke="#000" stroke-miterlimit="10" stroke-width="0.25"/>
    <path id="Tracé_105" data-name="Tracé 105" d="M24.889,18.74c.036.215.06.431.1.658a2.718,2.718,0,0,1,1.819.945,7.813,7.813,0,0,0-.838-.419,9.318,9.318,0,0,0-.957-.239c.06,1.472.108,2.9.168,4.32.335.06.682.1,1.005.168a2.749,2.749,0,0,1,2.286,2.489A2.9,2.9,0,0,1,26.636,29.8a8.018,8.018,0,0,1-1.209.251c-.048.012-.108.012-.168.024-.024.359-.036.706-.072,1.053-.012.156.012.395-.2.419s-.2-.227-.227-.371c-.06-.371-.108-.754-.156-1.1a12.894,12.894,0,0,1-1.544-.491,6.726,6.726,0,0,1-1.077-.67c-.06-.048-.072-.168-.108-.251a1.058,1.058,0,0,1,.275,0c.682.215,1.352.443,2.034.67a3.446,3.446,0,0,0,.395.06c-.024-1.58-.048-3.135-.072-4.679-.455-.1-.91-.168-1.352-.3A2.171,2.171,0,0,1,21.49,22.4a2.772,2.772,0,0,1,1.1-2.214,3.04,3.04,0,0,1,1.987-.754c.048,0,.1-.012.132-.012.036-.227.072-.443.108-.67C24.841,18.729,24.865,18.74,24.889,18.74Zm.347,6.008v4.667c.215-.024.395-.036.562-.06a2.318,2.318,0,0,0,1.879-2.968A2.4,2.4,0,0,0,25.236,24.748Zm-.562-4.955a2.8,2.8,0,0,0-2.6,2.118,1.486,1.486,0,0,0,.491,1.472,3.254,3.254,0,0,0,1.951.61C24.578,22.582,24.626,21.194,24.673,19.794Z" transform="translate(1.415 0.819)"/>
  </g>
</svg>
