<svg xmlns="http://www.w3.org/2000/svg" width="12.564" height="19.835" viewBox="0 0 12.564 19.835">
  <g id="produit_ecologique" data-name="produit ecologique" transform="translate(-17.637 -14.476)">
    <g id="Groupe_33" data-name="Groupe 33" transform="translate(20.193 24.78)">
      <path id="Tracé_106" data-name="Tracé 106" d="M20.439,27.552c.01,0,.01,0,.02.01-.02.079-.05.159-.07.238a1.871,1.871,0,0,0,.089,1.251,2.043,2.043,0,0,0,2.284,1.142.185.185,0,0,1,.2.06,1.5,1.5,0,0,0,.228.209,2.318,2.318,0,0,0,1.46.556A2.192,2.192,0,0,0,26.794,29.5a13.288,13.288,0,0,0,.367-1.37,5.358,5.358,0,0,1,.477-1.39.459.459,0,0,0-.377-.7c-.248-.02-.487-.03-.735-.03a5.789,5.789,0,0,0-2.741.566c-.07.04-.1,0-.139-.04a8.481,8.481,0,0,0-1.112-1.122,2.018,2.018,0,0,0-.715-.427.358.358,0,0,0-.506.268c-.01.03-.02.06-.03.1a4.32,4.32,0,0,1-.357,1.062C20.767,26.8,20.6,27.174,20.439,27.552Zm2.641,2.562c.119-.07.228-.119.328-.189a1.92,1.92,0,0,0,.774-.973.812.812,0,0,1,.119-.2,5.007,5.007,0,0,1,1.162-1.082,3.547,3.547,0,0,1,.556-.258c.02-.01.05-.01.06-.02a.41.41,0,0,0,.07-.109c-.04-.02-.079-.06-.119-.06a.588.588,0,0,0-.189.05,3.372,3.372,0,0,0-1.211.824l-.338.338a2.671,2.671,0,0,0-.467-1.658c.228-.089.427-.2.645-.268a6.853,6.853,0,0,1,2.8-.278.232.232,0,0,1,.179.367,4.615,4.615,0,0,0-.477,1.39,8.254,8.254,0,0,1-.4,1.45,2.135,2.135,0,0,1-2.3,1.34A2.01,2.01,0,0,1,23.08,30.113Zm-.457-.079c0-.348.02-.685.01-1.023a6.919,6.919,0,0,0-.427-2.423c-.02-.06-.01-.159-.119-.139-.07.01-.089.119-.05.218a7.884,7.884,0,0,1,.407,3.326.376.376,0,0,0-.01.079,4.92,4.92,0,0,1-.536-.06,1.877,1.877,0,0,1-1.3-2.194,5.124,5.124,0,0,1,.467-1.192,4.538,4.538,0,0,0,.477-1.331.193.193,0,0,1,.308-.129,2.876,2.876,0,0,1,.288.189A5.352,5.352,0,0,1,23.7,26.966a2.225,2.225,0,0,1,.2,2.085A1.646,1.646,0,0,1,22.624,30.034Z" transform="translate(-20.212 -24.854)"/>
      <path id="Tracé_107" data-name="Tracé 107" d="M24.688,31.125h-.04a2.472,2.472,0,0,1-1.519-.576c-.089-.079-.169-.149-.238-.218-.03-.04-.05-.04-.109-.03a2.138,2.138,0,0,1-2.4-1.2,1.99,1.99,0,0,1-.1-1.321c.01-.05.03-.109.04-.159l-.01-.01.03-.1.506-1.132a3.789,3.789,0,0,0,.348-1.043c.01-.04.02-.07.03-.109a.53.53,0,0,1,.238-.328.494.494,0,0,1,.4-.01,2.223,2.223,0,0,1,.745.447,8.072,8.072,0,0,1,1.122,1.132c.01.01.02.02.02.03a5.621,5.621,0,0,1,2.721-.6h.06c.228,0,.467.01.745.03a.554.554,0,0,1,.457.854A4.867,4.867,0,0,0,27.28,28.1l-.079.338a11.235,11.235,0,0,1-.308,1.092A2.318,2.318,0,0,1,24.688,31.125Zm-.427-.248a1.739,1.739,0,0,0,.4.04,2.076,2.076,0,0,0,2.045-1.45,4.1,4.1,0,0,0,.149-.5,4.17,4.17,0,0,1-.169.5,2.261,2.261,0,0,1-2.423,1.41Zm-1.013-.735a1.933,1.933,0,0,0,1.053.546A2.042,2.042,0,0,0,26.5,29.408a9.359,9.359,0,0,0,.387-1.44,4.678,4.678,0,0,1,.487-1.41.137.137,0,0,0,.01-.149.146.146,0,0,0-.119-.07,6.668,6.668,0,0,0-2.75.278c-.139.05-.278.109-.427.179-.03.02-.07.03-.1.05a2.77,2.77,0,0,1,.427,1.36c.05-.06.109-.109.159-.159A3.591,3.591,0,0,1,25.81,27.2l.03-.01a.588.588,0,0,1,.189-.05.2.2,0,0,1,.139.05c.01.01.02.01.03.02l.1.05-.079.119-.06.089a.275.275,0,0,1-.089.05c-.06.03-.119.05-.179.079a3.159,3.159,0,0,0-.367.179,4.861,4.861,0,0,0-1.142,1.062.943.943,0,0,0-.1.169,2.039,2.039,0,0,1-.814,1.023C23.4,30.063,23.328,30.1,23.248,30.142Zm-.725-.05-.01.03h.01Zm.318-.01a.168.168,0,0,1,.1.03l-.02-.02.209-.109C23.04,30.013,22.951,30.053,22.841,30.083Zm-1.122-4.846c-.02,0-.03,0-.04.01-.03.01-.04.04-.05.07a4.462,4.462,0,0,1-.487,1.36,5.223,5.223,0,0,0-.457,1.172,1.781,1.781,0,0,0,1.221,2.075,1.954,1.954,0,0,0,.348.05.169.169,0,0,1,.07.01,7.518,7.518,0,0,0-.4-3.257.316.316,0,0,1,0-.268.175.175,0,0,1,.129-.089.188.188,0,0,1,.228.169.036.036,0,0,0,.01.03,7.124,7.124,0,0,1,.437,2.462c0,.228,0,.457-.01.685v.209a1.487,1.487,0,0,0,1.072-.9,2.116,2.116,0,0,0-.189-2,5.35,5.35,0,0,0-1.529-1.579,2.182,2.182,0,0,0-.278-.179A.091.091,0,0,0,21.719,25.237Zm1.857,1.37c.07.1.139.2.2.3a2.306,2.306,0,0,1,.209,2.175,1.622,1.622,0,0,1-.526.7,1.831,1.831,0,0,0,.645-.864.723.723,0,0,1,.129-.228c.07-.079.139-.169.218-.248l-.258.268.01-.268a2.544,2.544,0,0,0-.457-1.6l-.07-.1.109-.05.209-.089a4.19,4.19,0,0,1,.447-.179,7.431,7.431,0,0,1,.953-.238,5.242,5.242,0,0,0-1.579.487A.172.172,0,0,1,23.576,26.608ZM20.508,27.72c-.01.03-.02.07-.03.1a1.736,1.736,0,0,0,.089,1.192,1.759,1.759,0,0,0,.586.725A2.048,2.048,0,0,1,20.5,27.8C20.5,27.769,20.508,27.739,20.508,27.72Zm7.09-1.311a.376.376,0,0,1-.05.248,4.814,4.814,0,0,0-.467,1.36l-.089.417c0-.01.01-.02.01-.03l.079-.338a5.387,5.387,0,0,1,.467-1.36A.416.416,0,0,0,27.6,26.409ZM20.567,27.5l-.01.03c.01-.02.01-.03.02-.05Zm.993-2.423h0a.347.347,0,0,0-.149.209.307.307,0,0,0-.02.079,4.328,4.328,0,0,1-.328,1.013,4.025,4.025,0,0,0,.377-1.1A.282.282,0,0,1,21.56,25.078Z" transform="translate(-20.211 -24.854)"/>
    </g>
    <path id="Tracé_108" data-name="Tracé 108" d="M27.669,17.975c.3.2.566.367.834.556.288.189.566.4.864.576a1.681,1.681,0,0,1,.824,1.509c0,.179.01.367.01.546V32.591a1.584,1.584,0,0,1-1.42,1.628,4.622,4.622,0,0,1-1.479.06c-.1-.01-.2-.01-.3-.01H19.179a1.539,1.539,0,0,1-1.539-1.589c.01-3.853.01-7.715.01-11.568a3.371,3.371,0,0,1,.02-.774,2.2,2.2,0,0,1,.8-1.172,12.244,12.244,0,0,1,1.5-.993c.169-.1.139-.149.02-.268a4.019,4.019,0,0,1-1.221-1.877,1.461,1.461,0,0,1,.079-1.082.77.77,0,0,1,1.261-.238,1.564,1.564,0,0,1,.437.685,2.782,2.782,0,0,0,1.072,1.5.2.2,0,0,0,.288-.01,6.251,6.251,0,0,1,1.271-.8,1.936,1.936,0,0,1,1.559,0,5.294,5.294,0,0,1,1.271.8c.129.109.209.089.328-.01a2.785,2.785,0,0,0,1-1.569,1,1,0,0,1,1.35-.685.728.728,0,0,1,.477.874,4.422,4.422,0,0,1-1.4,2.433A.449.449,0,0,0,27.669,17.975Zm-9.006,1.539c-.04-.01-.06.02-.07.05a.615.615,0,0,0-.238.348h0c-.04-.01-.04.02-.05.04a.882.882,0,0,0-.149.526v.109a1.4,1.4,0,0,0,0,.407v.1a1.4,1.4,0,0,0,0,.407v.1a1.4,1.4,0,0,0,0,.407v.3a1.4,1.4,0,0,0,0,.407v.07a1.331,1.331,0,0,0,0,.4V24.26a3.146,3.146,0,0,0,0,.864v.159a1.031,1.031,0,0,0,0,.427,1.609,1.609,0,0,0,.01.218.985.985,0,0,0-.01.417v.119a1.031,1.031,0,0,0,0,.427v.07a9.049,9.049,0,0,0,0,1.271v.07a5.707,5.707,0,0,0,0,.824v.943a6.414,6.414,0,0,0,0,.874v.189a1.538,1.538,0,0,0,.01.427v.318a3.812,3.812,0,0,0,.01.824c0,.07-.02.139.02.2a.525.525,0,0,0,.1.318.366.366,0,0,0,.109.189.465.465,0,0,0,.238.238.432.432,0,0,0,.07.04.676.676,0,0,0,.387.159,1.323,1.323,0,0,0,.487.089,4.3,4.3,0,0,0,.715.01l.218-.03a2.964,2.964,0,0,0,.725-.04h.189a12.081,12.081,0,0,0,1.34.03h5.034c.149,0,.308.01.457.01a1.5,1.5,0,0,0,.725-.1,1.02,1.02,0,0,0,.665-.655,1.714,1.714,0,0,0,.05-.745V29.007a1.86,1.86,0,0,0,0-.407v-.834a1.4,1.4,0,0,0,0-.407V26.087a5.3,5.3,0,0,0,0-.794V23.228a1.331,1.331,0,0,0,0-.4V21.619a7.642,7.642,0,0,0-.02-1.261c-.01-.02-.01-.04-.02-.05a.659.659,0,0,0-.119-.338c-.02-.04-.05-.079-.07-.119a.691.691,0,0,0-.228-.278.4.4,0,0,0-.159-.129l-.357-.209-.149-.089a.978.978,0,0,0-.3-.2c-.02-.01-.04-.03-.06-.04-.109-.07-.218-.149-.318-.218s-.209-.129-.308-.2a1.055,1.055,0,0,0-.308-.209l-.218-.159c-.119-.089-.248-.169-.367-.258-.01-.01-.03-.01-.04-.02-.139-.1-.288-.2-.427-.3l-.149-.089a.978.978,0,0,0-.3-.2l-.1-.07a.981.981,0,0,0-.318-.209.216.216,0,0,1-.05-.04.937.937,0,0,0-.328-.2l-.119-.089a1.352,1.352,0,0,0-.318-.209.563.563,0,0,0-.228-.119,1.1,1.1,0,0,0-1.023.119c-.387.209-.715.5-1.1.735a1.575,1.575,0,0,0,.606.209c.04.01.07.01.109.02l.109.03a7.869,7.869,0,0,1,1.8.338c.02.01.03.02.05.03.119.1.228.2.348.308.04.05.079.109.119.159a1.7,1.7,0,0,1,.209.854c0,.07-.05.149-.01.218a2.148,2.148,0,0,1-.566.854,1.87,1.87,0,0,1-.914.318,1.428,1.428,0,0,1-1.658-1.3c0-.1-.05-.119-.129-.129a5.13,5.13,0,0,1-1.668-.7c-.05-.03-.1-.07-.159-.02-.487.367-1.043.616-1.529.983-.04.03-.1.05-.089.119h0c-.119-.06-.159-.02-.169.04Zm8.063-2.5c-.03,0-.05.01-.05.04-.03.07-.348.079-.05.218a1.66,1.66,0,0,0,.348.238c.04.02.089.05.129.07.268.228.268.238.5-.02a5.149,5.149,0,0,0,.824-1.182,1.562,1.562,0,0,0,.248-.8v-.139a.393.393,0,0,0-.139-.377.412.412,0,0,0-.218-.169c-.228-.07-.377.01-.457.268-.07.209-.119.427-.209.626a3.871,3.871,0,0,1-.9,1.211C26.735,16.992,26.735,17,26.725,17.012Zm-3.773,2.522c.01.01.01.03.02.04A1.138,1.138,0,0,0,24.2,20.2a1.03,1.03,0,0,0,.8-.943c.01-.1-.03-.109-.109-.089a9.053,9.053,0,0,1-1.37.07h-.079c-.089-.01-.179-.01-.268-.02-.109-.01-.248-.079-.308.01C22.823,19.3,22.9,19.425,22.952,19.534ZM21.383,17.25c-.04-.03-.089-.05-.129-.079s-.06-.05-.089-.079A2.861,2.861,0,0,1,20.083,15.5a1.466,1.466,0,0,0-.129-.348.428.428,0,0,0-.516-.248c-.189.04-.278.179-.268.437a1.06,1.06,0,0,0,.03.248,3.876,3.876,0,0,0,1.44,2.244,5.6,5.6,0,0,0,4.19.943c.149-.02.129-.079.089-.169a1.132,1.132,0,0,0-1.152-.755A4.234,4.234,0,0,1,21.383,17.25Z"/>
  </g>
</svg>
