<svg xmlns="http://www.w3.org/2000/svg" xmlns:xlink="http://www.w3.org/1999/xlink" width="30" height="30" viewBox="0 0 30 30">
  <defs>
    <clipPath id="clip-path">
      <rect id="Rectangle_80" data-name="Rectangle 80" width="30" height="30" transform="translate(5865 1557)" fill="#fff"/>
    </clipPath>
  </defs>
  <g id="Groupe_906" data-name="Groupe 906" transform="translate(-5865 -1557)">
    <g id="Groupe_905" data-name="Groupe 905">
      <g id="Groupe_de_masques_1" data-name="Groupe de masques 1" clip-path="url(#clip-path)">
        <g id="produit_ecologique" data-name="produit ecologique" transform="translate(5843.827 1535.109)">
          <g id="Groupe_33" data-name="Groupe 33" transform="translate(30.538 37.475)">
            <path id="Tracé_106" data-name="Tracé 106" d="M30.91,41.667c.015,0,.015,0,.03.015-.03.119-.076.24-.106.36a2.83,2.83,0,0,0,.135,1.892,3.09,3.09,0,0,0,3.454,1.727.28.28,0,0,1,.3.091,2.268,2.268,0,0,0,.345.316,3.506,3.506,0,0,0,2.208.841,3.315,3.315,0,0,0,3.242-2.3,20.1,20.1,0,0,0,.555-2.072,8.1,8.1,0,0,1,.721-2.1.694.694,0,0,0-.57-1.059c-.375-.03-.736-.045-1.112-.045a8.755,8.755,0,0,0-4.145.856c-.106.061-.151,0-.21-.06a12.826,12.826,0,0,0-1.682-1.7A3.052,3.052,0,0,0,33,37.788a.541.541,0,0,0-.765.405c-.015.045-.03.091-.045.151a6.533,6.533,0,0,1-.54,1.606C31.406,40.53,31.154,41.1,30.91,41.667ZM34.9,45.542c.18-.106.345-.18.5-.286a2.9,2.9,0,0,0,1.171-1.471,1.228,1.228,0,0,1,.18-.3,7.572,7.572,0,0,1,1.757-1.636,5.365,5.365,0,0,1,.841-.39c.03-.015.076-.015.091-.03a.62.62,0,0,0,.106-.165c-.06-.03-.119-.091-.18-.091a.889.889,0,0,0-.286.076,5.1,5.1,0,0,0-1.831,1.246L36.737,43a4.039,4.039,0,0,0-.706-2.507c.345-.135.646-.3.975-.405a10.364,10.364,0,0,1,4.234-.42.351.351,0,0,1,.271.555,6.979,6.979,0,0,0-.721,2.1,12.482,12.482,0,0,1-.6,2.193,3.229,3.229,0,0,1-3.478,2.027,3.04,3.04,0,0,1-1.8-1.006Zm-.691-.119c0-.526.03-1.036.015-1.547a10.464,10.464,0,0,0-.646-3.664c-.03-.091-.015-.24-.18-.21-.106.015-.135.18-.076.33a11.923,11.923,0,0,1,.616,5.03.569.569,0,0,0-.015.119,7.44,7.44,0,0,1-.811-.091,2.839,2.839,0,0,1-1.966-3.318,7.749,7.749,0,0,1,.706-1.8,6.863,6.863,0,0,0,.721-2.013.292.292,0,0,1,.466-.2,4.349,4.349,0,0,1,.436.286,8.094,8.094,0,0,1,2.362,2.435,3.365,3.365,0,0,1,.3,3.153,2.489,2.489,0,0,1-1.93,1.487Z" transform="translate(-30.567 -37.587)"/>
            <path id="Tracé_107" data-name="Tracé 107" d="M37.336,47.071h-.06a3.738,3.738,0,0,1-2.3-.871c-.135-.119-.256-.225-.36-.33-.045-.06-.076-.06-.165-.045a3.233,3.233,0,0,1-3.63-1.815,3.01,3.01,0,0,1-.151-2c.015-.076.045-.165.06-.24l-.015-.015.045-.151.765-1.712a5.73,5.73,0,0,0,.526-1.577c.015-.06.03-.106.045-.165a.8.8,0,0,1,.36-.5.747.747,0,0,1,.6-.015,3.362,3.362,0,0,1,1.127.676,12.207,12.207,0,0,1,1.7,1.712c.015.015.03.03.03.045a8.5,8.5,0,0,1,4.115-.907h.091c.345,0,.706.015,1.127.045a.838.838,0,0,1,.691,1.292,7.361,7.361,0,0,0-.687,1.993l-.119.511a16.99,16.99,0,0,1-.466,1.651A3.506,3.506,0,0,1,37.336,47.071ZM36.69,46.7a2.63,2.63,0,0,0,.6.06,3.14,3.14,0,0,0,3.093-2.193,6.2,6.2,0,0,0,.225-.756,6.307,6.307,0,0,1-.256.756A3.419,3.419,0,0,1,36.693,46.7Zm-1.532-1.112a2.923,2.923,0,0,0,1.592.826,3.088,3.088,0,0,0,3.326-1.936,14.153,14.153,0,0,0,.585-2.178,7.075,7.075,0,0,1,.736-2.132.207.207,0,0,0,.015-.225.221.221,0,0,0-.18-.106,10.084,10.084,0,0,0-4.159.42c-.21.076-.42.165-.646.271-.045.03-.106.045-.151.076a4.189,4.189,0,0,1,.646,2.057c.076-.091.165-.165.24-.24a5.431,5.431,0,0,1,1.869-1.281l.045-.015a.889.889,0,0,1,.286-.076.3.3,0,0,1,.21.076c.015.015.03.015.045.03l.151.076-.119.18-.091.135a.416.416,0,0,1-.135.076c-.091.045-.18.076-.271.119a4.777,4.777,0,0,0-.555.271,7.351,7.351,0,0,0-1.727,1.606,1.426,1.426,0,0,0-.151.256,3.084,3.084,0,0,1-1.231,1.547C35.388,45.465,35.279,45.521,35.158,45.584Zm-1.1-.076-.015.045h.015Zm.481-.015a.254.254,0,0,1,.151.045l-.03-.03.316-.165c-.136.045-.271.106-.437.151Zm-1.7-7.329c-.03,0-.045,0-.06.015-.045.015-.06.06-.076.106a6.748,6.748,0,0,1-.736,2.057,7.9,7.9,0,0,0-.691,1.772,2.693,2.693,0,0,0,1.847,3.138,2.955,2.955,0,0,0,.526.076.256.256,0,0,1,.106.015,11.37,11.37,0,0,0-.6-4.926.478.478,0,0,1,0-.405.265.265,0,0,1,.2-.135.284.284,0,0,1,.345.256.054.054,0,0,0,.015.045,10.774,10.774,0,0,1,.661,3.723c0,.345,0,.691-.015,1.036v.316a2.249,2.249,0,0,0,1.621-1.361,3.2,3.2,0,0,0-.286-3.025,8.091,8.091,0,0,0-2.312-2.388,3.3,3.3,0,0,0-.42-.271.138.138,0,0,0-.113-.044Zm2.808,2.072c.106.151.21.3.3.454a3.487,3.487,0,0,1,.316,3.289,2.453,2.453,0,0,1-.8,1.059,2.769,2.769,0,0,0,.975-1.307,1.093,1.093,0,0,1,.2-.345c.106-.119.21-.256.33-.375l-.39.405.015-.405a3.847,3.847,0,0,0-.691-2.42l-.106-.151.165-.076.316-.135a6.337,6.337,0,0,1,.676-.271A11.239,11.239,0,0,1,38.4,39.6a7.928,7.928,0,0,0-2.388.737.26.26,0,0,1-.361-.1Zm-4.64,1.685c-.015.045-.03.106-.045.151a2.625,2.625,0,0,0,.135,1.8,2.66,2.66,0,0,0,.886,1.1A3.1,3.1,0,0,1,31,42.042C31,42,31.015,41.95,31.015,41.921Zm10.722-1.983a.569.569,0,0,1-.076.375,7.281,7.281,0,0,0-.706,2.057L40.82,43c0-.015.015-.03.015-.045l.119-.511a8.147,8.147,0,0,1,.706-2.057.629.629,0,0,0,.079-.449ZM31.1,41.589l-.015.045c.015-.03.015-.045.03-.076Zm1.5-3.664h0a.525.525,0,0,0-.225.316.464.464,0,0,0-.03.119,6.545,6.545,0,0,1-.5,1.532,6.087,6.087,0,0,0,.57-1.664.426.426,0,0,1,.181-.3Z" transform="translate(-30.565 -37.587)"/>
          </g>
          <path id="Tracé_108" data-name="Tracé 108" d="M41.844,27.184c.454.3.856.555,1.261.841.436.286.856.6,1.307.871a2.542,2.542,0,0,1,1.246,2.282c0,.271.015.555.015.826V49.288a2.4,2.4,0,0,1-2.147,2.462,6.99,6.99,0,0,1-2.237.091c-.151-.015-.3-.015-.454-.015H29a2.327,2.327,0,0,1-2.327-2.4q.023-8.74.015-17.494a5.1,5.1,0,0,1,.03-1.171,3.327,3.327,0,0,1,1.21-1.772,18.518,18.518,0,0,1,2.268-1.5c.256-.151.21-.225.03-.405a6.078,6.078,0,0,1-1.847-2.839A2.209,2.209,0,0,1,28.5,22.6a1.164,1.164,0,0,1,1.907-.36,2.365,2.365,0,0,1,.661,1.036,4.207,4.207,0,0,0,1.621,2.268.3.3,0,0,0,.436-.015,9.453,9.453,0,0,1,1.922-1.21,2.928,2.928,0,0,1,2.358,0,8.006,8.006,0,0,1,1.922,1.21c.2.165.316.135.5-.015a4.212,4.212,0,0,0,1.512-2.373,1.512,1.512,0,0,1,2.042-1.036A1.1,1.1,0,0,1,44.1,23.43a6.688,6.688,0,0,1-2.117,3.679.679.679,0,0,0-.141.074Zm-13.62,2.327c-.06-.015-.091.03-.106.076a.93.93,0,0,0-.36.526h0c-.06-.015-.06.03-.076.06a1.334,1.334,0,0,0-.225.8v.165a2.117,2.117,0,0,0,0,.616V31.9a2.117,2.117,0,0,0,0,.616v.151a2.117,2.117,0,0,0,0,.616v.454a2.117,2.117,0,0,0,0,.616v.106a2.013,2.013,0,0,0,0,.6v1.626a4.758,4.758,0,0,0,0,1.307v.24a1.559,1.559,0,0,0,0,.646,2.433,2.433,0,0,0,.015.33,1.49,1.49,0,0,0-.015.631v.18a1.559,1.559,0,0,0,0,.646v.106a13.684,13.684,0,0,0,0,1.922V42.8a8.63,8.63,0,0,0,0,1.246v1.426a9.7,9.7,0,0,0,0,1.322v.286a2.326,2.326,0,0,0,.015.646v.481a5.765,5.765,0,0,0,.015,1.246c0,.106-.03.21.03.3a.794.794,0,0,0,.151.481.554.554,0,0,0,.165.286.7.7,0,0,0,.36.36.654.654,0,0,0,.106.06,1.022,1.022,0,0,0,.585.24,2,2,0,0,0,.737.135,6.5,6.5,0,0,0,1.081.015l.33-.045a4.483,4.483,0,0,0,1.1-.06h.286a18.27,18.27,0,0,0,2.027.045h7.613c.225,0,.466.015.691.015a2.269,2.269,0,0,0,1.1-.151,1.543,1.543,0,0,0,1.006-.991,2.592,2.592,0,0,0,.076-1.127V43.868a2.813,2.813,0,0,0,0-.616V41.991a2.117,2.117,0,0,0,0-.616V39.452a8.015,8.015,0,0,0,0-1.2V35.128a2.013,2.013,0,0,0,0-.6V32.695a11.557,11.557,0,0,0-.03-1.907c-.015-.03-.015-.06-.03-.076a1,1,0,0,0-.18-.511c-.03-.06-.076-.119-.106-.18a1.045,1.045,0,0,0-.345-.42.6.6,0,0,0-.24-.2l-.54-.316-.225-.135a1.479,1.479,0,0,0-.454-.3c-.03-.015-.06-.045-.091-.06-.165-.106-.33-.225-.481-.33s-.316-.2-.466-.3a1.6,1.6,0,0,0-.466-.316l-.33-.24c-.18-.135-.375-.256-.555-.39-.015-.015-.045-.015-.06-.03-.21-.151-.436-.3-.646-.454l-.225-.135a1.479,1.479,0,0,0-.454-.3l-.151-.106a1.484,1.484,0,0,0-.481-.316.327.327,0,0,1-.076-.06,1.417,1.417,0,0,0-.5-.3l-.18-.135a2.045,2.045,0,0,0-.481-.316.851.851,0,0,0-.345-.18,1.664,1.664,0,0,0-1.547.18c-.585.316-1.081.756-1.664,1.112a2.382,2.382,0,0,0,.916.316c.06.015.106.015.165.03l.165.045a11.9,11.9,0,0,1,2.722.511c.03.015.045.03.076.045.18.151.345.3.526.466.06.076.119.165.18.24a2.571,2.571,0,0,1,.316,1.292c0,.106-.076.225-.015.33a3.248,3.248,0,0,1-.856,1.292,2.828,2.828,0,0,1-1.382.481,2.16,2.16,0,0,1-2.507-1.966c0-.151-.076-.18-.2-.2A7.758,7.758,0,0,1,31.167,27.8c-.076-.045-.151-.106-.24-.03-.736.555-1.577.932-2.312,1.487-.06.045-.151.076-.135.18h0c-.18-.091-.24-.03-.256.06Zm12.194-3.781c-.045,0-.076.015-.076.06-.045.106-.526.119-.076.33a2.511,2.511,0,0,0,.526.36c.06.03.135.076.2.106.405.345.405.36.756-.03a7.787,7.787,0,0,0,1.246-1.788,2.362,2.362,0,0,0,.375-1.21v-.21a.594.594,0,0,0-.21-.57.623.623,0,0,0-.33-.256c-.345-.106-.57.015-.691.405a9.924,9.924,0,0,1-.316.947,5.854,5.854,0,0,1-1.361,1.831c-.026-.009-.026,0-.041.021Zm-5.706,3.814c.015.015.015.045.03.06a1.721,1.721,0,0,0,1.856.944,1.558,1.558,0,0,0,1.21-1.426c.015-.151-.045-.165-.165-.135a13.69,13.69,0,0,1-2.072.106h-.119c-.135-.015-.271-.015-.405-.03-.165-.015-.375-.119-.466.015-.065.109.051.3.13.463Zm-2.374-3.457c-.06-.045-.135-.076-.2-.119a.977.977,0,0,1-.135-.119,4.327,4.327,0,0,1-1.636-2.408,2.217,2.217,0,0,0-.2-.526.647.647,0,0,0-.78-.375c-.286.06-.42.271-.405.661a1.6,1.6,0,0,0,.045.375,5.862,5.862,0,0,0,2.178,3.394A8.469,8.469,0,0,0,37.551,28.4c.225-.03.2-.119.135-.256A1.712,1.712,0,0,0,35.943,27,6.4,6.4,0,0,1,32.338,26.087Z"/>
        </g>
      </g>
    </g>
  </g>
</svg>
