<svg xmlns="http://www.w3.org/2000/svg" width="100.349" height="100.349" viewBox="0 0 100.349 100.349"><g id="Produits_test&#xE9;s_sains_et_&#xE9;cologiques" data-name="Produits test&#xE9;s sains et &#xE9;cologiques" transform="translate(-28.19 -27.59)"><circle id="Ellipse_8" data-name="Ellipse 8" cx="50.174" cy="50.174" r="50.174" transform="translate(28.19 27.59)" fill="#c1dfb3"></circle><g id="Groupe_35" data-name="Groupe 35" transform="translate(67.573 79.469)"><path id="Trac&#xE9;_122" data-name="Trac&#xE9; 122" d="M57.208,73.011c.014,0,.028.014.042.014-.069.235-.138.471-.194.706a5.515,5.515,0,0,0,.277,3.737,6.1,6.1,0,0,0,6.81,3.391.586.586,0,0,1,.609.18,7.38,7.38,0,0,0,.678.637,6.949,6.949,0,0,0,4.346,1.661,6.542,6.542,0,0,0,6.381-4.526c.457-1.329.761-2.713,1.093-4.069A16.615,16.615,0,0,1,78.662,70.6a1.368,1.368,0,0,0-1.121-2.1c-.734-.055-1.453-.083-2.187-.083a17.4,17.4,0,0,0-8.18,1.7c-.208.111-.291.014-.4-.125a23.549,23.549,0,0,0-3.308-3.336,6.506,6.506,0,0,0-2.118-1.273,1.058,1.058,0,0,0-1.509.789,2.213,2.213,0,0,0-.069.291,12.223,12.223,0,0,1-1.066,3.17C58.2,70.755,57.706,71.89,57.208,73.011Zm7.89,7.64c.346-.194.678-.36.983-.554a5.708,5.708,0,0,0,2.311-2.907,1.973,1.973,0,0,1,.346-.6,15.1,15.1,0,0,1,3.474-3.225,13.771,13.771,0,0,1,1.647-.775c.055-.028.152-.028.18-.069.083-.1.138-.221.208-.318-.125-.055-.235-.18-.36-.166a2.054,2.054,0,0,0-.567.166,10.212,10.212,0,0,0-3.6,2.45c-.332.318-.651.664-1,1.024a7.983,7.983,0,0,0-1.4-4.955c.664-.277,1.287-.581,1.924-.8a20.451,20.451,0,0,1,8.332-.844.688.688,0,0,1,.54,1.093A14.03,14.03,0,0,0,76.7,74.3a25.875,25.875,0,0,1-1.176,4.318,6.406,6.406,0,0,1-6.865,4.014A5.989,5.989,0,0,1,65.1,80.652Zm-1.37-.249c.014-1.038.055-2.035.028-3.031a20.749,20.749,0,0,0-1.273-7.225c-.069-.166-.042-.471-.36-.415-.208.042-.277.346-.166.664a23.173,23.173,0,0,1,1.2,9.91,1.61,1.61,0,0,1-.042.221,11.708,11.708,0,0,1-1.578-.18A5.6,5.6,0,0,1,57.664,73.8a15.053,15.053,0,0,1,1.384-3.557,13.286,13.286,0,0,0,1.426-3.959A.585.585,0,0,1,61.4,65.9a7.08,7.08,0,0,1,.858.567A16.389,16.389,0,0,1,66.9,71.24a6.657,6.657,0,0,1,.6,6.215A4.8,4.8,0,0,1,63.727,80.4Z" transform="translate(-56.562 -64.986)"></path><path id="Trac&#xE9;_123" data-name="Trac&#xE9; 123" d="M69.954,83.741h-.111a7.223,7.223,0,0,1-4.526-1.73,5.5,5.5,0,0,1-.706-.664c-.1-.111-.152-.125-.318-.1a6.387,6.387,0,0,1-7.156-3.571,5.927,5.927,0,0,1-.291-3.931c.042-.152.083-.3.125-.471l-.042-.014L57,72.973,58.493,69.6a12.016,12.016,0,0,0,1.038-3.1,1.351,1.351,0,0,1,.083-.318,1.536,1.536,0,0,1,.706-.969,1.574,1.574,0,0,1,1.19-.042,6.744,6.744,0,0,1,2.215,1.329,22.882,22.882,0,0,1,3.35,3.391c.028.028.055.069.069.083a16.845,16.845,0,0,1,8.111-1.758h.18c.664,0,1.384.028,2.2.083a1.685,1.685,0,0,1,1.412.872,1.747,1.747,0,0,1-.042,1.689,15.209,15.209,0,0,0-1.343,3.889l-.249,1.01c-.263,1.08-.526,2.187-.9,3.267A6.863,6.863,0,0,1,69.954,83.741Zm-1.273-.734a5.568,5.568,0,0,0,1.176.125,6.162,6.162,0,0,0,6.09-4.318c.166-.484.318-.983.457-1.481q-.208.747-.5,1.495a6.675,6.675,0,0,1-7.184,4.194C68.708,83.021,68.694,83.008,68.681,83.008Zm-3-2.2a5.705,5.705,0,0,0,3.142,1.619,6.085,6.085,0,0,0,6.533-3.82A26.051,26.051,0,0,0,76.5,74.329a14.517,14.517,0,0,1,1.453-4.208A.436.436,0,0,0,78,69.678a.411.411,0,0,0-.346-.208,19.994,19.994,0,0,0-8.208.83,12.373,12.373,0,0,0-1.273.526,2.963,2.963,0,0,0-.3.138,8.336,8.336,0,0,1,1.26,4.069c.166-.166.318-.332.484-.484a10.589,10.589,0,0,1,3.709-2.519L73.4,72a1.8,1.8,0,0,1,.567-.152A.667.667,0,0,1,74.4,72c.028.014.055.042.083.055l.291.152-.235.374a1.9,1.9,0,0,1-.18.277.485.485,0,0,1-.263.138c-.194.083-.36.152-.54.235a8,8,0,0,0-1.093.526,15.088,15.088,0,0,0-3.391,3.156,1.963,1.963,0,0,0-.291.5,6.1,6.1,0,0,1-2.436,3.059C66.12,80.571,65.9,80.7,65.677,80.807ZM63.5,80.682l-.014.1H63.5Zm.969-.042a.649.649,0,0,1,.291.083l-.055-.069.609-.332A6.693,6.693,0,0,1,64.473,80.641Zm-3.35-14.45a.4.4,0,0,0-.125.028.284.284,0,0,0-.138.208,13.218,13.218,0,0,1-1.453,4.042,14.278,14.278,0,0,0-1.356,3.474,5.329,5.329,0,0,0,3.654,6.2,5.9,5.9,0,0,0,1.024.138c.069,0,.138.014.221.014a22.441,22.441,0,0,0-1.19-9.717.919.919,0,0,1,.014-.789.51.51,0,0,1,.374-.277c.36-.069.581.111.678.512.014.028.014.055.028.083a21.3,21.3,0,0,1,1.3,7.336c.014.678,0,1.356-.014,2.049,0,.208-.014.4-.014.609a4.4,4.4,0,0,0,3.2-2.685,6.3,6.3,0,0,0-.567-5.938A15.713,15.713,0,0,0,62.2,66.786a9.4,9.4,0,0,0-.83-.54A1.027,1.027,0,0,0,61.123,66.19ZM66.66,70.3c.208.291.4.581.581.886a6.835,6.835,0,0,1,.609,6.478,4.817,4.817,0,0,1-1.564,2.076,5.478,5.478,0,0,0,1.91-2.574,2.049,2.049,0,0,1,.4-.678c.208-.249.429-.5.651-.747l-.775.789.042-.789a7.806,7.806,0,0,0-1.343-4.775l-.194-.3.332-.138c.208-.083.415-.18.623-.277a13.378,13.378,0,0,1,1.329-.54,17.5,17.5,0,0,1,2.851-.692,15,15,0,0,0-4.692,1.453A.561.561,0,0,1,66.66,70.3Zm-9.149,3.28c-.028.1-.055.208-.083.3a5.306,5.306,0,0,0,.249,3.543,5.805,5.805,0,0,0,1.73,2.173,6.079,6.079,0,0,1-1.965-5.772A.84.84,0,0,0,57.511,73.582Zm21.122-3.889a1.056,1.056,0,0,1-.152.72,14.35,14.35,0,0,0-1.4,4.042c-.083.415-.18.83-.277,1.246a.875.875,0,0,0,.028-.1l.249-1.01a16.1,16.1,0,0,1,1.4-4.042A1.086,1.086,0,0,0,78.632,69.692ZM57.677,72.959l-.014.1c.014-.055.028-.1.042-.138Zm2.962-7.225c-.014,0-.014.014-.028.014a.96.96,0,0,0-.415.6,2.309,2.309,0,0,0-.069.249,11.993,11.993,0,0,1-1,3.031,11.34,11.34,0,0,0,1.107-3.28A1.059,1.059,0,0,1,60.639,65.734Z" transform="translate(-56.644 -65.072)"></path></g><path id="Trac&#xE9;_124" data-name="Trac&#xE9; 124" d="M81.026,53.338c.886.581,1.689,1.107,2.505,1.647.858.567,1.689,1.19,2.574,1.716a4.987,4.987,0,0,1,2.436,4.5c.014.54.014,1.093.014,1.633V96.882c0,2.561-1.467,4.249-4.222,4.858a13.9,13.9,0,0,1-4.415.166q-.436-.042-.872-.042-11.647,0-23.309-.014a4.612,4.612,0,0,1-4.6-4.72q.042-17.232.028-34.465a9.35,9.35,0,0,1,.069-2.325,6.657,6.657,0,0,1,2.395-3.5,41.608,41.608,0,0,1,4.457-2.976c.484-.3.415-.457.055-.8a11.931,11.931,0,0,1-3.626-5.606,4.446,4.446,0,0,1,.249-3.239,2.309,2.309,0,0,1,3.765-.706,4.28,4.28,0,0,1,1.287,2.035A8.152,8.152,0,0,0,63.033,50a.61.61,0,0,0,.858-.028,16.822,16.822,0,0,1,3.792-2.381,5.7,5.7,0,0,1,4.637.014A15.6,15.6,0,0,1,76.1,50c.4.318.623.249.969-.028A8.18,8.18,0,0,0,80.044,45.3a2.957,2.957,0,0,1,4.014-2.035,2.166,2.166,0,0,1,1.412,2.616A13.18,13.18,0,0,1,81.3,53.13,1.2,1.2,0,0,1,81.026,53.338Zm-26.838,4.6c-.125-.014-.18.055-.221.166a2.078,2.078,0,0,0-.72,1.024h.014c-.125-.028-.111.069-.138.138a2.557,2.557,0,0,0-.429,1.55c0,.111-.014.221-.014.332a4.488,4.488,0,0,0,.014,1.218,2.044,2.044,0,0,1-.014.291,4.386,4.386,0,0,0,0,1.2v.3a4.386,4.386,0,0,0,0,1.2v.9a4.486,4.486,0,0,0,0,1.218v.208a5.7,5.7,0,0,0,0,1.19v3.225a10.794,10.794,0,0,0-.014,2.588v.457a3.289,3.289,0,0,0-.014,1.273c0,.221.014.429.014.651a2.477,2.477,0,0,0-.014,1.232v.346a3.656,3.656,0,0,0,0,1.287v.208a31.289,31.289,0,0,0-.014,3.779,1.048,1.048,0,0,1-.014.208,18.294,18.294,0,0,0,0,2.464c0,.277-.014.554-.014.83,0,.429.014.858.014,1.287v.664a20.393,20.393,0,0,0,.014,2.6c0,.18,0,.374-.014.554a3.925,3.925,0,0,0,.028,1.273v.941a11.155,11.155,0,0,0,.028,2.45,1.045,1.045,0,0,0,.069.581,1.612,1.612,0,0,0,.291.941.981.981,0,0,0,.318.554,1.4,1.4,0,0,0,.72.72.982.982,0,0,1,.194.138,2.067,2.067,0,0,0,1.149.471,4.271,4.271,0,0,0,1.439.263,10.967,10.967,0,0,0,2.132.014c.208-.028.429-.055.637-.069a8.56,8.56,0,0,0,2.145-.111c.194,0,.374,0,.567-.014a35.014,35.014,0,0,0,4,.1H81.317c.457.014.914.028,1.37.028a4.849,4.849,0,0,0,2.173-.291,3.04,3.04,0,0,0,1.993-1.965,5.686,5.686,0,0,0,.166-2.215V86.2a5.007,5.007,0,0,0,0-1.2V82.5a5.007,5.007,0,0,0,0-1.2v-3.82a19.518,19.518,0,0,0,0-2.381V68.937a4.893,4.893,0,0,0,0-1.19v-3.6a24.246,24.246,0,0,0-.055-3.751c-.014-.055-.042-.111-.055-.152a1.9,1.9,0,0,0-.36-1.01c-.069-.111-.138-.235-.208-.346a1.882,1.882,0,0,0-.692-.817,1.241,1.241,0,0,0-.484-.4c-.36-.208-.706-.415-1.066-.623-.138-.083-.291-.18-.429-.263a3.212,3.212,0,0,0-.886-.6,1.155,1.155,0,0,0-.166-.111c-.318-.221-.637-.443-.955-.651l-.914-.581a3.212,3.212,0,0,0-.927-.623c-.221-.152-.443-.318-.651-.471-.374-.249-.734-.512-1.107-.761-.042-.014-.083-.042-.125-.055-.429-.291-.858-.6-1.287-.886-.152-.083-.3-.18-.443-.263a2.811,2.811,0,0,0-.886-.609c-.1-.069-.208-.138-.3-.208a3.06,3.06,0,0,0-.941-.609l-.166-.125a3.589,3.589,0,0,0-.983-.6c-.125-.1-.249-.18-.36-.277a3.665,3.665,0,0,0-.955-.623,1.45,1.45,0,0,0-.692-.36,3.3,3.3,0,0,0-3.059.346c-1.149.623-2.132,1.495-3.28,2.187a4.647,4.647,0,0,0,1.786.609c.111.014.221.042.332.055a2.913,2.913,0,0,0,.332.083,24.251,24.251,0,0,1,5.343,1c.042.028.1.069.138.1.346.3.692.6,1.038.9.111.166.235.318.346.484a5.267,5.267,0,0,1,.637,2.547c0,.221-.138.429-.028.651a6.058,6.058,0,0,1-1.689,2.533,5.765,5.765,0,0,1-2.713.955c-2.561.194-4.941-1.426-4.941-3.876,0-.277-.152-.346-.388-.4a14.727,14.727,0,0,1-4.969-2.09c-.138-.1-.277-.208-.471-.069-1.439,1.093-3.114,1.827-4.554,2.934-.111.083-.291.138-.249.346v.014c-.221-.055-.3.055-.346.249ZM78.2,50.459a.122.122,0,0,0-.152.111c-.083.208-1.024.235-.152.664a5.348,5.348,0,0,0,1.038.72l.374.208c.789.692.789.692,1.495-.069a15.409,15.409,0,0,0,2.45-3.516A4.926,4.926,0,0,0,84,46.168v-.415a1.251,1.251,0,0,0-.4-1.135,1.175,1.175,0,0,0-.651-.5c-.678-.221-1.121.028-1.37.817-.194.623-.374,1.26-.623,1.869a11.629,11.629,0,0,1-2.671,3.613C78.231,50.417,78.217,50.431,78.2,50.459Zm-11.239,7.5c.028.042.042.069.069.111A3.35,3.35,0,0,0,70.7,59.926a3.05,3.05,0,0,0,2.395-2.81c.028-.291-.083-.318-.332-.277a24.977,24.977,0,0,1-4.069.194h-.221c-.263-.028-.54-.042-.8-.069-.318-.028-.747-.235-.914.028C66.562,57.269,66.812,57.656,66.964,57.961ZM62.3,51.192c-.125-.083-.249-.152-.388-.235a2.127,2.127,0,0,0-.263-.235,8.528,8.528,0,0,1-3.239-4.734,6.613,6.613,0,0,0-.374-1.038,1.268,1.268,0,0,0-1.523-.747c-.554.125-.817.54-.8,1.315a3.343,3.343,0,0,0,.083.747,11.588,11.588,0,0,0,4.3,6.7c3.723,2.782,7.986,3.336,12.471,2.824.443-.055.388-.221.277-.512a3.426,3.426,0,0,0-3.433-2.256A13.14,13.14,0,0,1,62.3,51.192Z" transform="translate(8.812 5.852)"></path></g></svg>