<svg xmlns="http://www.w3.org/2000/svg" width="22.488" height="22.212" viewBox="0 0 22.488 22.212">
  <g id="promotion" transform="translate(-14.421 -14.986)">
    <path id="Tracé_93" data-name="Tracé 93" d="M16.923,19.064c.626-.106,1.263-.2,1.889-.342a7.052,7.052,0,0,0,1.311-.413,2.847,2.847,0,0,0,1.724-1.924q.142-.5.319-.992a1.18,1.18,0,0,1,.2-.331.16.16,0,0,1,.272,0,4.886,4.886,0,0,0,5.4,1.37c.425-.142.815-.342,1.24-.508a.367.367,0,0,1,.3,0c.047.035.024.177.024.272a.321.321,0,0,0,0,.106,12.283,12.283,0,0,0,.708,1.724,3.423,3.423,0,0,0,3.341,1.724c.366-.012.732-.094,1.1-.142a.645.645,0,0,1,.213-.012c.177.012.26.177.142.307a.432.432,0,0,0-.094.354c0,.366-.035.72-.047,1.086a8.314,8.314,0,0,0,.3,2.692A4.075,4.075,0,0,0,36.723,26.1c.224.189.248.236.059.46-.224.26-.472.508-.708.756-.165.177-.342.354-.519.519a3.879,3.879,0,0,0-1.263,2.987c0,.5.024.98.035,1.476a.364.364,0,0,0,.035.153c.118.224.083.331-.165.342-.378.024-.767.012-1.157.024-.555.012-1.11.024-1.665.059a1.66,1.66,0,0,0-1.11.6,5.515,5.515,0,0,0-.968,1.795c-.165.46-.319.933-.484,1.393a.45.45,0,0,0-.012.177c.012.2-.106.283-.3.2-.106-.047-.189-.13-.3-.189-.756-.425-1.5-.862-2.267-1.275a2.24,2.24,0,0,0-2.149.047,6.635,6.635,0,0,0-.98.638c-.342.26-.649.567-.968.862-.13.118-.248.083-.307-.071a3.3,3.3,0,0,1-.153-.484,8,8,0,0,0-1.2-2.845,3.09,3.09,0,0,0-2.633-1.4c-.472,0-.933.024-1.4.047a.2.2,0,0,1-.213-.272,4.7,4.7,0,0,1,.2-.519,5.179,5.179,0,0,0,.449-2.385A3.715,3.715,0,0,0,14.9,26.278c-.118-.083-.248-.165-.366-.248-.165-.118-.153-.26.024-.354a1.707,1.707,0,0,1,.26-.106A3.616,3.616,0,0,0,17.289,22a11.374,11.374,0,0,0-.378-2.893A.069.069,0,0,0,16.923,19.064ZM16.6,32.016h.071l.39-.071a3.481,3.481,0,0,1,2.987.649,5.48,5.48,0,0,1,1.842,3.365c.035.177.047.366.083.59.083-.094.118-.142.165-.189a10.188,10.188,0,0,1,.945-.945,2.842,2.842,0,0,1,2.243-.708,4.9,4.9,0,0,1,1.924.732c.472.3.909.638,1.346.956a8.35,8.35,0,0,1,.626-2.527A2.5,2.5,0,0,1,31,32.228a10.557,10.557,0,0,1,1.83-.083c.366,0,.732.083,1.122.118a4.933,4.933,0,0,1,2.479-6.1,2.5,2.5,0,0,1-1.063-.732,5.159,5.159,0,0,1-1.133-4.168c.035-.3.094-.6.153-.921a3.693,3.693,0,0,1-3.483-.661,3.862,3.862,0,0,1-1.464-3.223,4.7,4.7,0,0,1-6.718-.968c-.059.319-.106.626-.177.933a3.224,3.224,0,0,1-2.161,2.527,7.031,7.031,0,0,1-2.845.307,3.078,3.078,0,0,0-.331,0c.035.071.047.118.071.153a5.078,5.078,0,0,1,.543,3.814,3.673,3.673,0,0,1-2.125,2.68c-.153.071-.331.118-.5.177A4.053,4.053,0,0,1,16.6,32.016Z"/>
    <path id="Tracé_94" data-name="Tracé 94" d="M20.94,30.76a2.333,2.333,0,0,1,.094-.307c.46-.933.9-1.877,1.381-2.8,1.3-2.479,2.68-4.912,4.191-7.285.331-.519.685-1.015,1.051-1.511.094-.13.213-.342.425-.213.189.118.059.319-.012.46-.449.862-.886,1.724-1.393,2.55-1.736,2.881-3.495,5.738-5.254,8.607-.118.189-.272.354-.4.531C21,30.783,20.964,30.772,20.94,30.76Z" transform="translate(1.178 0.654)"/>
    <path id="Tracé_95" data-name="Tracé 95" d="M26.479,30a1.984,1.984,0,0,1-2-1.913,3.445,3.445,0,0,1,.39-2.113,1.983,1.983,0,0,1,1.051-.956,1.7,1.7,0,0,1,1.724.342,4.427,4.427,0,0,1,.519.531c.177.213.319.449.519.649a1.259,1.259,0,0,1,.3.767,2.47,2.47,0,0,1-1.429,2.409A11.053,11.053,0,0,1,26.479,30Zm-1.322-2.479a3.31,3.31,0,0,0,0,.342,1.276,1.276,0,0,0,.9,1.287,1.565,1.565,0,0,0,2.031-1.039,11.691,11.691,0,0,0,.3-1.606.121.121,0,0,0-.047-.118,7.49,7.49,0,0,0-1.11-.85,1.232,1.232,0,0,0-1.771.6A2.807,2.807,0,0,0,25.157,27.519Z" transform="translate(1.813 1.793)"/>
    <path id="Tracé_96" data-name="Tracé 96" d="M21.369,25.015A1.926,1.926,0,0,1,19.4,23.22a3.284,3.284,0,0,1,.272-2.066,2.185,2.185,0,0,1,1.24-1.122,1.766,1.766,0,0,1,1.783.472,3.63,3.63,0,0,1,.4.449,2.991,2.991,0,0,0,.5.6.981.981,0,0,1,.307.885,2.469,2.469,0,0,1-1.948,2.479A3.283,3.283,0,0,1,21.369,25.015Zm-1.358-2.609c.035.283.059.567.118.85a1.128,1.128,0,0,0,.9.968,1.823,1.823,0,0,0,2-.909,2.316,2.316,0,0,0,.283-1.535c-.024-.106.012-.26-.047-.319a3.155,3.155,0,0,0-1.228-.921,1.187,1.187,0,0,0-1.417.354A2.066,2.066,0,0,0,20.011,22.405Z" transform="translate(0.89 0.897)"/>
  </g>
</svg>
