<svg xmlns="http://www.w3.org/2000/svg" width="21" height="21.063" viewBox="0 0 21 21.063">
  <g id="riche_en_fer" data-name="riche en fer" transform="translate(-13.344 -13.737)">
    <path id="Tracé_91" data-name="Tracé 91" d="M33.81,23.86a9.359,9.359,0,0,0-4.5-7.9,22.1,22.1,0,0,0-2.11-1.09c-.08-.04-.2-.07-.22-.13a.53.53,0,0,1,.01-.33c.02-.04.19-.06.27-.03a10.847,10.847,0,0,1,4.03,2.65,10.408,10.408,0,0,1,.84,13.59,10.435,10.435,0,0,1-6.9,4.01,9.843,9.843,0,0,1-7.57-1.78,10.117,10.117,0,0,1-3.84-5.37,9.891,9.891,0,0,1,.13-6.27,10.655,10.655,0,0,1,6.98-6.95,9.633,9.633,0,0,1,2.72-.46c.16-.01.33-.02.34.2s-.13.29-.32.29a10.681,10.681,0,0,0-3.27.6,9.528,9.528,0,0,0-5.82,5.59,10.018,10.018,0,0,0-.72,4.84,9.461,9.461,0,0,0,4.02,7.12,9.987,9.987,0,0,0,6.4,1.9,9.377,9.377,0,0,0,7.33-3.74A10.5,10.5,0,0,0,33.81,23.86Z"/>
    <path id="Tracé_92" data-name="Tracé 92" d="M23.5,34.8a9.749,9.749,0,0,1-5.85-1.93,10.193,10.193,0,0,1-3.86-5.39,9.916,9.916,0,0,1,.14-6.3,10.748,10.748,0,0,1,7.01-6.97,9.553,9.553,0,0,1,2.73-.47h.02c.15-.01.35-.01.36.24a.315.315,0,0,1-.07.24.366.366,0,0,1-.29.1,10.564,10.564,0,0,0-3.26.6,9.47,9.47,0,0,0-5.79,5.57,10.052,10.052,0,0,0-.71,4.82,9.415,9.415,0,0,0,4.01,7.09,9.958,9.958,0,0,0,6.38,1.89,9.35,9.35,0,0,0,7.3-3.73,10.627,10.627,0,0,0,2.17-6.71,9.333,9.333,0,0,0-4.48-7.86,12.907,12.907,0,0,0-1.42-.76c-.23-.11-.46-.22-.68-.33l-.06-.03c-.07-.03-.15-.06-.17-.13a.551.551,0,0,1,.01-.36c.04-.08.24-.08.32-.05a11.076,11.076,0,0,1,4.04,2.66,10.457,10.457,0,0,1,.85,13.64,10.487,10.487,0,0,1-6.92,4.03A11.02,11.02,0,0,1,23.5,34.8Zm.27-20.97h-.09a9.7,9.7,0,0,0-2.7.46,10.666,10.666,0,0,0-6.96,6.92,9.831,9.831,0,0,0-.13,6.25,10.11,10.11,0,0,0,3.83,5.34,9.789,9.789,0,0,0,7.53,1.77,10.4,10.4,0,0,0,6.87-4,10.362,10.362,0,0,0-.84-13.53,11.04,11.04,0,0,0-4.01-2.64.312.312,0,0,0-.22.01.438.438,0,0,0-.01.3c.01.03.08.06.13.08.02.01.05.02.07.03.22.12.46.23.68.33a13.048,13.048,0,0,1,1.43.76,9.43,9.43,0,0,1,4.52,7.93h0a10.645,10.645,0,0,1-2.19,6.76,9.436,9.436,0,0,1-7.36,3.76,10.115,10.115,0,0,1-6.43-1.91,9.5,9.5,0,0,1-4.04-7.15,10.116,10.116,0,0,1,.72-4.86,9.536,9.536,0,0,1,5.84-5.61,10.461,10.461,0,0,1,3.29-.6.289.289,0,0,0,.23-.08.231.231,0,0,0,.05-.17C23.96,13.86,23.89,13.83,23.77,13.83Z"/>
    <g id="Groupe_33" data-name="Groupe 33">
      <path id="Tracé_93" data-name="Tracé 93" d="M19.5,27.95a.414.414,0,0,1-.31-.12.407.407,0,0,1-.12-.3V21.25a.385.385,0,0,1,.12-.29.4.4,0,0,1,.29-.12h3.57a.41.41,0,0,1,.41.41.373.373,0,0,1-.12.27.4.4,0,0,1-.29.12h-3.2l.06-.08v2.48l-.05-.11H22.6a.423.423,0,0,1,.3.12.385.385,0,0,1,.12.29.342.342,0,0,1-.12.27.443.443,0,0,1-.3.11H19.84l.07-.08v2.91a.423.423,0,0,1-.12.3A.441.441,0,0,1,19.5,27.95Z"/>
      <path id="Tracé_94" data-name="Tracé 94" d="M26.96,28.05a2.832,2.832,0,0,1-1.43-.35,2.477,2.477,0,0,1-.95-.95,2.872,2.872,0,0,1-.34-1.4,3.092,3.092,0,0,1,.35-1.51,2.434,2.434,0,0,1,.92-.96,2.324,2.324,0,0,1,1.19-.33,2.522,2.522,0,0,1,.9.17,2.206,2.206,0,0,1,.77.51,2.765,2.765,0,0,1,.54.79,2.477,2.477,0,0,1,.21,1.04.342.342,0,0,1-.12.27.43.43,0,0,1-.28.11H24.7l-.18-.7h3.9l-.16.14v-.22a1.267,1.267,0,0,0-.27-.72,1.624,1.624,0,0,0-.58-.46,1.644,1.644,0,0,0-.72-.16,1.769,1.769,0,0,0-.6.11,1.437,1.437,0,0,0-.54.35,1.779,1.779,0,0,0-.39.61,2.441,2.441,0,0,0-.15.91,2.186,2.186,0,0,0,.24,1.04,1.829,1.829,0,0,0,.67.71,1.909,1.909,0,0,0,1,.26,1.93,1.93,0,0,0,.62-.09,1.581,1.581,0,0,0,.45-.23,1.783,1.783,0,0,0,.32-.28.479.479,0,0,1,.26-.09.3.3,0,0,1,.24.1.325.325,0,0,1,.1.24.416.416,0,0,1-.16.32,2.772,2.772,0,0,1-.78.55A2.264,2.264,0,0,1,26.96,28.05Z"/>
    </g>
  </g>
</svg>
