<svg xmlns="http://www.w3.org/2000/svg" width="24.668" height="21.054" viewBox="0 0 24.668 21.054">
  <g id="riche_en_proteine" data-name="riche en proteine" transform="translate(-11.655 -13.896)">
    <path id="Tracé_95" data-name="Tracé 95" d="M22.69,32.3a6.574,6.574,0,0,1-1.68,1.19,7.285,7.285,0,0,1-1.99.61,5.578,5.578,0,0,1-1.58.01,3.748,3.748,0,0,1-3.21-2.86,4.576,4.576,0,0,1,.2-2.54c.18-.59.4-1.16.57-1.74a2.6,2.6,0,0,0-.61-2.58,9.349,9.349,0,0,0-.97-.92,4.788,4.788,0,0,1-1.74-3.34,5.809,5.809,0,0,1,1.76-4.59,5.57,5.57,0,0,1,4.65-1.61,8.953,8.953,0,0,1,3.02.76,8.869,8.869,0,0,1,4.1,4.04,11.3,11.3,0,0,1,1.29,5.95,9.864,9.864,0,0,1-.87,3.66c-.07.15-.04.19.11.23.35.09.7.2,1.04.3a.151.151,0,0,0,.21-.09,2.4,2.4,0,0,1,1.15-1.05,10.518,10.518,0,0,1,1.9-.61,4.519,4.519,0,0,0,1.6-.75,1.524,1.524,0,0,1,.54-.27.244.244,0,0,1,.33.12,4.741,4.741,0,0,1-.9,5.33,2.923,2.923,0,0,1-1.41.69c-.13.02-.16.07-.14.2a8.188,8.188,0,0,1,.18,1.01.88.88,0,0,1-.5.95,4.2,4.2,0,0,1-1.01.31,6,6,0,0,1-3.36,0,3.669,3.669,0,0,1-2.64-2.34A.251.251,0,0,0,22.69,32.3Zm1.69-4.53c-.04,0-.04.02-.05.05-.01.01-.01.01-.01.02-.08.07-.1.13.02.18a1.3,1.3,0,0,0,.32.14c.04.02.09.04.13.06l.21.09c.09.05.16.04.18-.07.02-.09.1-.17.08-.27h0c.03,0,.04-.02.04-.05.02-.05.06-.09.05-.16h0c.01-.01.02-.03.03-.04a1.488,1.488,0,0,0,.14-.51h0c.03,0,.04-.02.04-.05s.01-.05.01-.08h0c.04.01.03-.02.03-.04.04-.17.08-.34.13-.51l.09-.42a2.088,2.088,0,0,0,.08-.5c.02-.13.03-.25.05-.38a2.487,2.487,0,0,0,.04-.47,1.927,1.927,0,0,1,.01-.24,1.548,1.548,0,0,0,0-.43v-.11a3.09,3.09,0,0,0-.05-.86.862.862,0,0,0-.01-.32,2.048,2.048,0,0,0-.07-.42c0-.04-.01-.09-.01-.13-.03-.14-.05-.27-.08-.41-.01-.04-.02-.07-.03-.11a.7.7,0,0,0-.09-.37c.02-.09-.03-.16-.05-.24a1.149,1.149,0,0,0-.12-.37.85.85,0,0,0-.11-.34,1.042,1.042,0,0,0-.11-.34.756.756,0,0,0-.11-.26,2.918,2.918,0,0,0-.34-.74.3.3,0,0,0-.08-.16.609.609,0,0,0-.18-.31.782.782,0,0,0-.18-.32.923.923,0,0,0-.18-.3.453.453,0,0,0-.15-.21.837.837,0,0,0-.2-.29c-.02-.02-.03-.04-.05-.06a.855.855,0,0,0-.22-.28.849.849,0,0,0-.21-.25c-.08-.09-.14-.21-.27-.25,0-.07-.05-.1-.1-.14a1.921,1.921,0,0,0-.29-.28.428.428,0,0,0-.16-.14.994.994,0,0,0-.3-.24c-.02-.01-.03-.03-.05-.04-.11-.08-.19-.21-.35-.21-.03-.14-.17-.16-.27-.22a3.838,3.838,0,0,0-.77-.42,1.19,1.19,0,0,0-.36-.17,1.214,1.214,0,0,0-.45-.16.89.89,0,0,0-.39-.12,1.023,1.023,0,0,0-.52-.12.235.235,0,0,0-.16-.05,1.9,1.9,0,0,0-.58-.09,1.705,1.705,0,0,0-.55-.04,4.471,4.471,0,0,0-1.85.19,1.657,1.657,0,0,0-.37.14.63.63,0,0,0-.27.1,5.1,5.1,0,0,0-1.84,1.38,3.957,3.957,0,0,0-.7,1.1,1.131,1.131,0,0,0-.17.39,1.144,1.144,0,0,0-.17.56h0c-.04,0-.04.02-.04.05s-.03.08-.04.12a2.255,2.255,0,0,0-.08.51c-.01.09-.02.19-.03.28a2.092,2.092,0,0,0-.01.5.82.82,0,0,0,.03.31,2.629,2.629,0,0,0,.14.83,1.01,1.01,0,0,0,.07.3.987.987,0,0,0,.13.41h0a.886.886,0,0,0,.16.34.374.374,0,0,0,.12.2.7.7,0,0,0,.19.29.237.237,0,0,0,.11.13.886.886,0,0,0,.23.28.915.915,0,0,0,.23.25.917.917,0,0,0,.25.27l.05.05a.991.991,0,0,0,.27.27.769.769,0,0,0,.18.18,1.141,1.141,0,0,0,.26.28c.07.08.15.15.22.23a1.372,1.372,0,0,0,.25.29.377.377,0,0,0,.12.16,6.194,6.194,0,0,1,.36.67c.02.1.05.19.07.29.02.14.03.28.05.42,0,.12-.01.24-.01.37-.03.17-.06.33-.09.5a.787.787,0,0,0-.08.3,1.592,1.592,0,0,0-.16.51h0c-.03,0-.04.02-.04.05a.749.749,0,0,0-.05.16,2.55,2.55,0,0,0-.22.54.584.584,0,0,0-.08.22,2.019,2.019,0,0,0-.18.54,1.637,1.637,0,0,0-.1.38,2.043,2.043,0,0,0-.02.92v.09a1.8,1.8,0,0,0,.08.39.392.392,0,0,0,.06.24.639.639,0,0,0,.1.33.656.656,0,0,0,.12.3,1.036,1.036,0,0,0,.17.33.985.985,0,0,0,.2.3.849.849,0,0,0,.24.29.142.142,0,0,0,.09.08.809.809,0,0,0,.27.25l.12.09a1,1,0,0,0,.36.21.248.248,0,0,0,.14.08.906.906,0,0,0,.44.16.926.926,0,0,0,.43.12,1.977,1.977,0,0,0,.6.08,2.812,2.812,0,0,0,.58-.01,4.62,4.62,0,0,0,1.43-.3,6.256,6.256,0,0,0,2.28-1.4c.17-.16.24-.31.12-.52-.01-.03-.01-.05-.02-.08a6.819,6.819,0,0,1-.09-.93c-.23.21-.41.4-.61.57a6.019,6.019,0,0,1-2.9,1.46l-.2.03a3.8,3.8,0,0,1-1.57-.13c-.05-.01-.09-.03-.14-.04a2.1,2.1,0,0,0-.39-.21c-.02-.01-.03-.03-.05-.04-.12-.1-.23-.2-.35-.29-.06-.07-.12-.15-.18-.22-.07-.12-.14-.24-.21-.37-.03-.08-.06-.17-.09-.25l-.09-.42a.381.381,0,0,0-.03-.18c0-.15,0-.31-.01-.46a.637.637,0,0,0,.02-.07c.03-.37.15-.72.2-1.09h0c.03,0,.04-.02.04-.05.04-.1.07-.2.11-.29.09-.23.18-.45.28-.68a.213.213,0,0,0,.07-.15,1.8,1.8,0,0,0,.25-1.2v-.19a1.3,1.3,0,0,0-.04-.48V25.5c0-.17.01-.34.01-.51.03-.1.06-.19.09-.29h0c.01-.01.02-.03.04-.04a1,1,0,0,1,.81-.35h.11l.88.09.16.03c.62.12,1.25.22,1.87.35.57.12,1.13.25,1.69.38.04.05.09.03.13.03a12.188,12.188,0,0,1,1.54.64.607.607,0,0,1,.1.07c.14.1.28.21.42.31.05.06.1.11.15.17.06.14.18.25.15.42l-.06.33a2.942,2.942,0,0,0-.23.64ZM32,30.37c.04,0,.03-.02.03-.05a1.623,1.623,0,0,0,.16-.61.235.235,0,0,0,.05-.24,1.813,1.813,0,0,0,.07-.52.3.3,0,0,0,.01-.23v-.44a.546.546,0,0,0,.01-.31,6.789,6.789,0,0,0-.05-.9.25.25,0,0,0,0-.19c-.01-.16-.03-.33-.04-.53a4.59,4.59,0,0,1-1.89.93,3.614,3.614,0,0,0-.64.19,2.017,2.017,0,0,0-.86.27h-.01v.01c-.01.01-.03.02-.04.03a.066.066,0,0,0-.06-.01,1.977,1.977,0,0,0-1.33,1.14c-.04.09.01.11.08.13.2.07.4.15.61.22.02.05.07.05.11.06a5.434,5.434,0,0,1,.51.32.272.272,0,0,0,.34.02c.17-.1.34-.2.51-.29a1.817,1.817,0,0,1,.87-.33c.12,0,.27-.01.3.12s-.12.19-.23.23c-.35.14-.69.3-1.02.47s-.34.18-.12.48c0,.06.02.11.09.12a1.688,1.688,0,0,0,.19.38c.01.05.01.11.07.14a2.016,2.016,0,0,0,.15.41.252.252,0,0,0,.06.22c.04.11,0,.3.11.33a.571.571,0,0,0,.42-.12.5.5,0,0,0,.08-.07.941.941,0,0,0,.68-.36h0c.06.04.07-.02.1-.05a2.362,2.362,0,0,0,.6-.77.211.211,0,0,0,.08-.2Zm-8.11,2.8a.411.411,0,0,0,.2.23.958.958,0,0,0,.26.27c.01.07.06.08.11.09a.556.556,0,0,0,.27.21.175.175,0,0,0,.17.11.568.568,0,0,0,.34.18c.03.07.09.08.15.1a1.634,1.634,0,0,0,.44.15.3.3,0,0,0,.24.07,1.711,1.711,0,0,0,.51.1.579.579,0,0,0,.32.03,4.773,4.773,0,0,0,1.07-.05,1.222,1.222,0,0,0,.59-.14,1.222,1.222,0,0,0,.56-.14c.13-.04.27-.09.42-.14a10.365,10.365,0,0,0-.87-.79,10.594,10.594,0,0,0-3-1.9c-.08-.03-.15-.07-.14-.18a.181.181,0,0,1,.2-.17.968.968,0,0,1,.41.08,9.3,9.3,0,0,1,1.79,1.02,14.677,14.677,0,0,1,1.79,1.4,8.007,8.007,0,0,0-.17-1.14.093.093,0,0,0-.03-.12.861.861,0,0,0-.1-.38.1.1,0,0,0-.04-.15,3.357,3.357,0,0,0-2.75-2.75,1.032,1.032,0,0,0-.39-.11c-.46-.13-.92-.24-1.37-.39a5.12,5.12,0,0,1-1.72-.92c-.08.41-.16.78-.22,1.17a7.738,7.738,0,0,0-.06,1.52,3.5,3.5,0,0,0,.23,1.2c0,.05-.02.11.04.15a.784.784,0,0,0,.13.36.294.294,0,0,0,.09.22.9.9,0,0,0,.17.32.368.368,0,0,0,.11.19A2.484,2.484,0,0,0,23.89,33.17Zm-7.82-2.96c0,.03.01.06.01.09.02.11.03.22.05.33a2.108,2.108,0,0,0,2.55,1.8,5.688,5.688,0,0,0,3.47-2.02.864.864,0,0,0,.24-.6c0-.31.01-.61.04-.92a3.411,3.411,0,0,1,.29-1.17.514.514,0,0,1,.69-.29,1,1,0,0,1,.36.21c.05.04.08.07.14,0a.93.93,0,0,0-.18-1.34,8.35,8.35,0,0,0-1.27-.54c-.22-.1-.46-.15-.69-.23a.3.3,0,0,1-.08-.04,15.509,15.509,0,0,0-1.89-.51,14.863,14.863,0,0,0-2.47-.36c-.25-.01-.36.1-.37.36a1.884,1.884,0,0,0,.07.58,2.912,2.912,0,0,1-.02,1.55c-.09.34-.21.66-.32.99a.565.565,0,0,0-.11.25,7.22,7.22,0,0,0-.38,1.01A2.741,2.741,0,0,0,16.07,30.21Z"/>
    <path id="Tracé_96" data-name="Tracé 96" d="M36.32,17.88c.01.03-.01.04-.04.05C36.28,17.9,36.28,17.87,36.32,17.88Z"/>
    <path id="Tracé_97" data-name="Tracé 97" d="M24.95,22.21c0,.03.01.06.01.09a1.216,1.216,0,0,0,.09.42v.12c.02.15.03.31.05.46v.29a3.088,3.088,0,0,1-.09.53.931.931,0,0,1-1.31.61c-.1-.04-.21-.08-.31-.12a.336.336,0,0,0-.17-.08,12.713,12.713,0,0,0-2.57-.78c-.58-.12-1.17-.22-1.77-.29a.757.757,0,0,1-.15-.01,8.628,8.628,0,0,0-1.52-.17c-.01-.01-.03-.02-.04-.03l-.81-.09c-.12-.01-.24-.03-.36-.04a4.429,4.429,0,0,0-.72-.09c-.09-.02-.19-.03-.28-.05l-.7-.55a.875.875,0,0,0-.18-.21c-.08-.11-.17-.22-.25-.33a.607.607,0,0,0-.07-.1l-.21-.36a1.194,1.194,0,0,1-.08-.16c-.09-.27-.18-.54-.27-.8-.02-.08-.03-.16-.05-.25a5.839,5.839,0,0,1-.08-.93c0-.08.01-.17.01-.25l.09-.6a.681.681,0,0,0,.08-.24,4.209,4.209,0,0,1,2.67-2.63c.05-.02.09-.03.11-.09a.717.717,0,0,0,.32-.05c.03,0,.05,0,.06-.03h0a7.021,7.021,0,0,1,1.52-.09c.16.01.32.03.48.04a2.886,2.886,0,0,1,.29.04c.2.05.4.1.61.14.1.03.19.07.29.1a7.17,7.17,0,0,1,.99.42c.07.03.15.07.23.1.28.18.55.35.83.53l.15.09a1.443,1.443,0,0,0,.33.27c.03.03.06.05.09.08.11.1.22.2.34.3l.2.2c.19.21.37.43.56.64.04.05.08.11.12.16a1.98,1.98,0,0,0,.24.35c.05.08.09.16.14.24.07.13.13.25.2.38.02.04.03.07.05.11.11.26.2.53.33.78a.407.407,0,0,0,.08.24c.05.14.09.28.14.41.03.1.07.2.1.29a1.274,1.274,0,0,0,.11.38c.01.07.03.13.04.2A.571.571,0,0,0,24.95,22.21Zm-8.03.6.73.06a21.72,21.72,0,0,1,6.32,1.52c.29.11.41.05.49-.24a1.746,1.746,0,0,0,.04-.56c-.02-.62-.13-1.23-.2-1.85a2.973,2.973,0,0,0-.31-1.08.076.076,0,0,0-.03-.09,4.384,4.384,0,0,0-.37-.79.405.405,0,0,1-.05-.09,2.258,2.258,0,0,0-.31-.49.1.1,0,0,0-.06-.09,3.176,3.176,0,0,0-.27-.37.237.237,0,0,0-.11-.13,3.768,3.768,0,0,0-.6-.66.436.436,0,0,0-.16-.17,1.729,1.729,0,0,0-.35-.31c-.02-.04-.04-.08-.1-.06-.04-.1-.13-.14-.21-.2a7.792,7.792,0,0,0-1.3-.84,5.886,5.886,0,0,0-1.95-.64,1.846,1.846,0,0,1-.23-.04,3.609,3.609,0,0,0-2.83.8,4.15,4.15,0,0,0-1.38,2.25,3.215,3.215,0,0,0,.02,1.31,3.706,3.706,0,0,0,.89,1.92.314.314,0,0,0,.15.17,2.233,2.233,0,0,0,.88.57c.06.03.12.07.19.04.03.05.08.05.13.05.24,0,.49.01.73.01A1.045,1.045,0,0,1,16.92,22.81Z"/>
    <path id="Tracé_98" data-name="Tracé 98" d="M16.58,20.9c-.04-.01-.08-.01-.12-.02a1.445,1.445,0,0,1-1.16-1.2,1.856,1.856,0,0,1,1.31-2.11,1.965,1.965,0,0,1,1.64.23,1.606,1.606,0,0,1,.53,2.08,1.71,1.71,0,0,1-1.57,1.03A2.648,2.648,0,0,1,16.58,20.9Zm1.82-1.92c-.01-.03-.01-.07-.02-.1a.651.651,0,0,0-.16-.37.315.315,0,0,0-.13-.17.71.71,0,0,0-.29-.28.447.447,0,0,0-.22-.13.948.948,0,0,0-.48-.16c-.06,0-.11-.04-.17-.01a.82.82,0,0,0-.48.12,1.465,1.465,0,0,0-.67,1.02c-.05.07-.02.14-.02.21a.9.9,0,0,0,.06.49c.01.06.01.13.06.17a.734.734,0,0,0,.2.34.159.159,0,0,0,.12.09.536.536,0,0,0,.33.28.544.544,0,0,0,.34.14,1.114,1.114,0,0,0,1.45-.7c.05-.16-.07-.05-.11-.07h0c-.04-.05,0-.08.03-.1A.694.694,0,0,0,18.4,18.98Z"/>
  </g>
</svg>
