<svg xmlns="http://www.w3.org/2000/svg" width="21.027" height="20.957" viewBox="0 0 21.027 20.957">
  <g id="riche_en_fibre" data-name="riche en fibre" transform="translate(-13.554 -14.169)">
    <path id="Tracé_95" data-name="Tracé 95" d="M18.45,24.94a2.95,2.95,0,0,1-2.68.77,2.859,2.859,0,0,1-1.8-1.37c-.77-1.27-.59-3.1,1.55-3.99a3.629,3.629,0,0,1,1.21-4.13,3.888,3.888,0,0,1,4.37-.64,3.92,3.92,0,0,1,6.05.03,3.76,3.76,0,0,1,4.27.55,3.6,3.6,0,0,1,1.19,4.14l.27.12a3.074,3.074,0,0,1,1.12.8,2.353,2.353,0,0,1,.48,2.26,3.083,3.083,0,0,1-2.74,2.3,2.838,2.838,0,0,1-1.95-.68l-.15-.12c-.01,0-.01,0-.04-.01-.09.09-.18.19-.27.29a8.661,8.661,0,0,0-1.9,4.02,18.248,18.248,0,0,0-.27,4.43A1.118,1.118,0,0,1,26.22,35a6.982,6.982,0,0,1-2.04.1c-.74-.03-1.49-.05-2.23-.06a.722.722,0,0,1-.77-.53,5.542,5.542,0,0,1-.19-1.14c-.05-.93-.04-1.86-.1-2.78a8.539,8.539,0,0,0-1.71-4.88c-.18-.23-.38-.44-.58-.65A1.576,1.576,0,0,1,18.45,24.94Zm13.89-5.79c-.02,0-.04-.01-.06-.01a3.085,3.085,0,0,0-.27-1.44,3.541,3.541,0,0,0-1.82-1.89,3.378,3.378,0,0,0-2.1-.23,7.291,7.291,0,0,0-.99.35c-.14.05-.29.11-.4-.06a3.005,3.005,0,0,0-1.4-1.14,3.242,3.242,0,0,0-1.82-.21,2.961,2.961,0,0,0-2.03,1.27.43.43,0,0,1-.58.16,4.226,4.226,0,0,0-.58-.25,3.263,3.263,0,0,0-2.38.1,3.565,3.565,0,0,0-2.04,3.46,2.928,2.928,0,0,0,.1.67c.14.48.16.48-.29.65a2.315,2.315,0,0,0-1.46,2.93,2.867,2.867,0,0,0,1.2,1.68,1.86,1.86,0,0,0,1.54.29,2.491,2.491,0,0,0,1.75-1.6c.14-.38.25-.43.64-.3.29.1.58.23.87.34a1.949,1.949,0,0,0,1.76-.04,1.166,1.166,0,0,1,1.1-.07,5.313,5.313,0,0,0,.97.25,2.706,2.706,0,0,0,1.34-.29,1.132,1.132,0,0,1,.77,0,2.783,2.783,0,0,0,1.54.25,3.754,3.754,0,0,0,1.14-.39,2.751,2.751,0,0,1,.3-.14c.15-.05.24,0,.29.16a2.472,2.472,0,0,0,2.49,1.82,2.053,2.053,0,0,0,1.86-1.25,2.7,2.7,0,0,0,.08-2.19,2.149,2.149,0,0,0-.96-1.19,4.548,4.548,0,0,0-.64-.27c-.14-.05-.17-.11-.13-.26C32.19,19.92,32.26,19.53,32.34,19.15ZM18.82,24.57c.19.2.39.4.57.6a7.893,7.893,0,0,1,1.66,3.21,13.884,13.884,0,0,1,.41,3.34c.02.71,0,1.42.08,2.12.08.73.26.84.88.83.06,0,.12-.01.19-.01.48,0,.95.01,1.43.01.63,0,1.27.01,1.9-.01a.645.645,0,0,0,.64-.55,1.841,1.841,0,0,0,.05-.41c.02-1.02.02-2.03.04-3.05a8.643,8.643,0,0,1,.97-3.62,9.356,9.356,0,0,1,1.54-2.25c.05-.05.11-.16.08-.2-.11-.23-.25-.45-.37-.66a7.248,7.248,0,0,1-.78.28.779.779,0,0,0-.44.31,14.445,14.445,0,0,0-1.48,2.59.842.842,0,0,1-.55.46.539.539,0,0,1-.73-.41,1.557,1.557,0,0,1-.08-.43c.01-.72.03-1.44.04-2.16a1.844,1.844,0,0,0-.03-.28c-.45.01-.86.04-1.27.03-.36-.01-.37-.02-.36.35v.04c.03.52.07,1.05.08,1.58a1.5,1.5,0,0,1-.19.9.647.647,0,0,1-1.11.04,5.632,5.632,0,0,1-.37-.62c-.3-.55-.58-1.12-.9-1.66a1.231,1.231,0,0,0-.93-.76,2.556,2.556,0,0,1-.64-.22A4.561,4.561,0,0,1,18.82,24.57Zm6.71,2.67c.03-.01.05-.02.08-.03a16.567,16.567,0,0,1,1.68-2.89,2.637,2.637,0,0,1-.4,0c-.4-.09-.8-.2-1.2-.31-.18-.05-.31-.01-.31.16,0,.93,0,1.86.01,2.78A1.108,1.108,0,0,0,25.53,27.24Zm-2.88.04a.62.62,0,0,0,.05-.18c.03-.37.07-.74.07-1.12,0-.53-.04-1.07-.02-1.6.01-.23-.07-.34-.26-.38a.372.372,0,0,0-.21.01c-.22.07-.44.16-.67.21s-.45.08-.7.12A31.576,31.576,0,0,1,22.65,27.28Z"/>
    <path id="Tracé_96" data-name="Tracé 96" d="M22.4,17.14a.744.744,0,0,1,.7-.14,3.057,3.057,0,0,1,.81.35,1.723,1.723,0,0,1,.77,1.24c.04.27-.08.42-.31.42-.15,0-.22-.05-.23-.22a1.669,1.669,0,0,0-1.53-1.53.8.8,0,0,1-.21-.05C22.4,17.19,22.4,17.17,22.4,17.14Z"/>
    <path id="Tracé_97" data-name="Tracé 97" d="M30.89,21.55a1.2,1.2,0,0,1,1.24,1.11c.01.21-.08.32-.27.34s-.26-.06-.28-.29a.85.85,0,0,0-.67-.75.572.572,0,0,1-.23-.08c-.06-.04-.09-.12-.14-.18a1.373,1.373,0,0,1,.2-.13A.364.364,0,0,1,30.89,21.55Z"/>
    <path id="Tracé_98" data-name="Tracé 98" d="M15.98,22.23a1.431,1.431,0,0,1,1.26.96.5.5,0,0,1-.08.37.328.328,0,0,1-.3.12c-.08-.02-.15-.17-.16-.28a.848.848,0,0,0-.72-.74c-.15-.02-.31-.03-.29-.24C15.71,22.24,15.87,22.23,15.98,22.23Z"/>
    <path id="Tracé_99" data-name="Tracé 99" d="M27.57,21.91c-.05.22-.15.33-.34.35s-.24-.11-.26-.27a.883.883,0,0,0-.79-.78.711.711,0,0,1-.24-.13c.07-.07.13-.17.21-.2a1.122,1.122,0,0,1,1.13.44A5.385,5.385,0,0,1,27.57,21.91Z"/>
    <path id="Tracé_100" data-name="Tracé 100" d="M20.36,20.84a1.437,1.437,0,0,1,1.14.94.354.354,0,0,1-.4.44.227.227,0,0,1-.14-.16.956.956,0,0,0-.88-.89.548.548,0,0,1-.15-.08c.03-.05.06-.12.1-.14A2.129,2.129,0,0,1,20.36,20.84Z"/>
    <path id="Tracé_101" data-name="Tracé 101" d="M20.13,17.81a2.644,2.644,0,0,1-.43.14,1.182,1.182,0,0,0-1.01,1.09.326.326,0,0,1-.07.18,2.027,2.027,0,0,1-.37.14,1.306,1.306,0,0,1-.06-.38,1.727,1.727,0,0,1,1.4-1.25A.608.608,0,0,1,20.13,17.81Z"/>
    <path id="Tracé_102" data-name="Tracé 102" d="M29.97,18.19a1.243,1.243,0,0,1-.31.1,1.2,1.2,0,0,0-1.06,1.09c-.01.07-.03.17-.08.2a2.315,2.315,0,0,1-.37.13,1.18,1.18,0,0,1-.06-.36,1.584,1.584,0,0,1,1.34-1.21c.17-.03.34-.04.51-.06C29.95,18.12,29.96,18.15,29.97,18.19Z"/>
  </g>
</svg>
