<svg xmlns="http://www.w3.org/2000/svg" width="13.525" height="21.095" viewBox="0 0 13.525 21.095">
  <g id="sans_sel" data-name="sans sel" transform="translate(-17.195 -13.818)">
    <path id="Tracé_93" data-name="Tracé 93" d="M17.28,26.24c.05-1.58.09-3.17.16-4.75a8.063,8.063,0,0,1,.17-1.2,2.257,2.257,0,0,1,.79-1.26c.05-.04.1-.09.16-.13a1.821,1.821,0,0,0,.79-1.97,5.012,5.012,0,0,1,.02-1.34,1.712,1.712,0,0,1,1.05-1.23A4.364,4.364,0,0,1,22.27,14c1.43-.06,2.86-.13,4.29-.18a3.877,3.877,0,0,1,1.13.11,1.732,1.732,0,0,1,1.3,1.67,5.61,5.61,0,0,1-.03,1.23,2.379,2.379,0,0,0,.59,2.1,3.753,3.753,0,0,1,1.04,2.18,14.058,14.058,0,0,1,.13,1.71q-.015,3.825-.08,7.64a8.1,8.1,0,0,1-.22,1.63,2.99,2.99,0,0,1-2.2,2.3,14.627,14.627,0,0,1-2.27.42,17.838,17.838,0,0,1-4.44-.08,6.85,6.85,0,0,1-2.85-.93,2.921,2.921,0,0,1-1.44-2.38c-.05-1.03-.01-2.06,0-3.1,0-.67.04-1.38.06-2.08Zm12.96-3.59a1.6,1.6,0,0,0-1.33.29.363.363,0,0,1-.28.06c-.07-.03-.1-.17-.13-.26a.405.405,0,0,1,0-.11,1.006,1.006,0,0,0-1.13-1.04,3.575,3.575,0,0,0-.55.19.411.411,0,0,1-.29,0,.339.339,0,0,1-.06-.28c.07-.22.18-.42.26-.64a.536.536,0,0,0-.27-.73.74.74,0,0,0-.85.11,2.977,2.977,0,0,0-.35.36c-.16.18-.31.16-.44-.05-.03-.05-.05-.1-.08-.14a1.125,1.125,0,0,0-2.09.72q.075.525-.42.33a1.763,1.763,0,0,0-2.3.74c-.18.28-.26.29-.52.08a1.585,1.585,0,0,0-1.36-.33.244.244,0,0,0-.23.27c-.04,2.02-.1,4.04-.15,6.06-.02.93-.06,1.87-.05,2.8a2.769,2.769,0,0,0,1.63,2.59,7.133,7.133,0,0,0,2.26.64,17.209,17.209,0,0,0,4.42.08,14.433,14.433,0,0,0,2.16-.41,2.524,2.524,0,0,0,1.88-2,9.487,9.487,0,0,0,.21-1.59c.05-1.93.08-3.86.11-5.78C30.3,23.95,30.26,23.31,30.24,22.65Zm-1.73-4.36a15.844,15.844,0,0,1-8.69-.15c-.21.28-.37.53-.57.76a4.691,4.691,0,0,1-.54.46,2.694,2.694,0,0,0-.88,2.15,2.159,2.159,0,0,1,1.77.3,2.277,2.277,0,0,1,2.56-.9,1.6,1.6,0,0,1,2.91-.86c.68-.52,1.17-.61,1.66-.3.46.29.56.63.4,1.38a1.516,1.516,0,0,1,1.8,1.18c.43-.07.84-.13,1.27-.19a4.205,4.205,0,0,0-.76-2.59C29.13,19.14,28.84,18.73,28.51,18.29Zm-.03-2.9a14.062,14.062,0,0,1-8.65.38,2.159,2.159,0,0,0-.06.38c.01.47.03.93.06,1.4,0,.06.09.14.15.15a14.78,14.78,0,0,0,3.1.6,14.432,14.432,0,0,0,3.77-.14c.55-.09,1.09-.22,1.64-.33A15.28,15.28,0,0,0,28.48,15.39Zm-.2-.42c.02-.04.05-.08.07-.12-.13-.1-.26-.2-.4-.3a2.032,2.032,0,0,0-1.3-.28c-1.5.06-3,.12-4.49.19a3.77,3.77,0,0,0-1.48.27,1.3,1.3,0,0,0-.67.61A13.5,13.5,0,0,0,28.28,14.97Z"/>
    <path id="Tracé_94" data-name="Tracé 94" d="M23.9,29.34c-1.03-.12-2.06-.19-3.08-.36a1.777,1.777,0,0,1-1.54-1.6,7.825,7.825,0,0,1-.02-2.6,1.111,1.111,0,0,1,1.02-1c.77-.08,1.55-.13,2.33-.14,1.7-.02,3.4-.02,5.09-.01a.992.992,0,0,1,1.12,1.01,9.47,9.47,0,0,1-.13,2.76,1.8,1.8,0,0,1-1.61,1.56C26.04,29.13,24.97,29.22,23.9,29.34Zm.17-.48c.97-.1,1.9-.18,2.82-.31a1.368,1.368,0,0,0,1.38-1.37,17.551,17.551,0,0,0,.13-2.17c.01-.76-.17-.92-.92-.93-1.64,0-3.27,0-4.91.02-.7.01-1.39.04-2.08.1a.74.74,0,0,0-.79.77,12.625,12.625,0,0,0,.01,2.13,1.454,1.454,0,0,0,1.47,1.5C22.15,28.73,23.12,28.78,24.07,28.86Z"/>
    <path id="Tracé_95" data-name="Tracé 95" d="M24.15,25.96c-.95-.05-1.89-.11-2.84-.16-.16-.01-.3-.07-.28-.26.01-.17.15-.21.3-.2.57.04,1.15.1,1.72.1,1.24-.01,2.48-.05,3.71-.08.04,0,.08-.01.11-.01.16,0,.28.05.28.23,0,.16-.11.22-.26.23-.37.03-.73.07-1.1.08-.55.01-1.1,0-1.65,0A.148.148,0,0,1,24.15,25.96Z"/>
    <path id="Tracé_96" data-name="Tracé 96" d="M24.04,27.29l-2.44-.25c-.16-.02-.28-.09-.26-.26s.16-.22.33-.2a16.8,16.8,0,0,0,4.25.13c.17-.02.37-.07.42.19.03.17-.1.25-.39.27C25.38,27.21,24.81,27.25,24.04,27.29Z"/>
    <path id="Tracé_97" data-name="Tracé 97" d="M25.87,15.16a.427.427,0,0,1-.43.36.35.35,0,0,1-.36-.3.368.368,0,0,1,.39-.37C25.71,14.85,25.86,14.96,25.87,15.16Z"/>
    <path id="Tracé_98" data-name="Tracé 98" d="M24.06,15.46a.331.331,0,0,1-.32-.33c0-.16.19-.31.38-.32a.33.33,0,0,1,.37.32C24.49,15.29,24.27,15.45,24.06,15.46Z"/>
    <path id="Tracé_99" data-name="Tracé 99" d="M22.71,15.38a.494.494,0,0,1-.37-.2c-.1-.13-.08-.26.07-.32a.555.555,0,0,1,.57.02.181.181,0,0,1,.05.3A.4.4,0,0,1,22.71,15.38Z"/>
  </g>
</svg>
