<svg xmlns="http://www.w3.org/2000/svg" xmlns:xlink="http://www.w3.org/1999/xlink" width="21" height="21.063" viewBox="0 0 21 21.063">
  <defs>
    <clipPath id="clip-path">
      <path id="Tracé_111" data-name="Tracé 111" d="M15.39,23.4a32.84,32.84,0,0,1,4.47,3.43c.43.4-.26,1.57,0,2a5.515,5.515,0,0,0,2.32,1.93c1.23.96,7.17-3.08,6.54-5.48a6.341,6.341,0,0,0-.87-2.45c-.19-.39-1.24-2.66-1-4,.36-1.98,1.18-3.15,2.93-2.88a3.418,3.418,0,0,1,2.13,1.64c1.91,2.87.76,7.19-.74,9.82-.64,1.13-3.11,5.05-7.85,5.89-.52.09-6,.99-8.43-2.37a6.016,6.016,0,0,1-1.06-4.34A6.1,6.1,0,0,1,15.39,23.4Z"/>
    </clipPath>
  </defs>
  <g id="sans_lactose" data-name="sans lactose" transform="translate(-13.344 -13.737)">
    <g id="Groupe_39" data-name="Groupe 39">
      <path id="Tracé_100" data-name="Tracé 100" d="M21.33,31.69a3.292,3.292,0,0,1-.61-.26,1.232,1.232,0,0,1-.53-1.09V26.91c0-2.03.01-4.07,0-6.1a7.537,7.537,0,0,1,.16-1.57c.11-.53.21-1.07.3-1.6.02-.13.01-.26.02-.39a.465.465,0,0,1,.5-.49h4.71a.445.445,0,0,1,.49.44,10.859,10.859,0,0,0,.26,1.71c.06.36.14.72.22,1.08a.482.482,0,0,1,0,.12V30.34a1.277,1.277,0,0,1-.74,1.24,2.343,2.343,0,0,1-.4.13C24.25,31.69,22.79,31.69,21.33,31.69Zm-.9-11.48V30.32a1.059,1.059,0,0,0,1.15,1.14h3.88a1.062,1.062,0,0,0,1.15-1.15V21.5c-.06,0-.11-.01-.16-.01h-.8c-.04,0-.07-.04-.11-.06.03-.02.07-.06.1-.06.19-.01.38,0,.57,0h.39V20.22C24.55,20.21,22.5,20.21,20.43,20.21Zm.03-.27h6.13c-.14-.75-.28-1.48-.42-2.21H20.88C20.74,18.47,20.6,19.2,20.46,19.94Zm1.9-2.95v.34h-.09c-.02-.11-.04-.22-.05-.34h-.67v.33h-.14v-.33c-.44-.04-.58.11-.47.48h5.2c.05-.43-.09-.56-.49-.47v.21c0,.09-.02.14-.13.09v-.32h-.69v.22c0,.09-.01.15-.14.09v-.32h-.68v.22c0,.11,0,.11-.13.1v-.32h-.69v.23c.01.1-.03.13-.14.08v-.32A5.388,5.388,0,0,1,22.36,16.99Z" stroke="#000" stroke-miterlimit="10" stroke-width="0.1"/>
      <path id="Tracé_101" data-name="Tracé 101" d="M26.01,25.47a2.485,2.485,0,1,1-2.49-2.48A2.5,2.5,0,0,1,26.01,25.47Zm-2.49-2.25a2.25,2.25,0,1,0,2.25,2.25A2.253,2.253,0,0,0,23.52,23.22Z" stroke="#000" stroke-miterlimit="10" stroke-width="0.1"/>
      <path id="Tracé_102" data-name="Tracé 102" d="M20.54,29.61a.392.392,0,0,1,.1-.08.335.335,0,0,1,.1,0h5.57a.272.272,0,0,1,.09,0,.333.333,0,0,1,.1.06c-.03.02-.07.06-.1.06H20.61a.037.037,0,0,1-.03-.01A.138.138,0,0,1,20.54,29.61Z" stroke="#000" stroke-miterlimit="10" stroke-width="0.1"/>
      <path id="Tracé_103" data-name="Tracé 103" d="M23.05,21.47H20.92c-.04-.07-.03-.12.07-.12h1.98C23.06,21.35,23.07,21.39,23.05,21.47Z" stroke="#000" stroke-miterlimit="10" stroke-width="0.1"/>
      <path id="Tracé_104" data-name="Tracé 104" d="M23.45,21.44c.03-.03.06-.08.1-.08a3.844,3.844,0,0,1,.48,0c.03,0,.06.05.09.08l-.03.03h-.6A.138.138,0,0,1,23.45,21.44Z" stroke="#000" stroke-miterlimit="10" stroke-width="0.1"/>
      <path id="Tracé_105" data-name="Tracé 105" d="M22.86,18.77c-.01-.47.13-.7.48-.8a.659.659,0,0,1,.86.68,2.008,2.008,0,0,0-.01.25.666.666,0,0,1-1.33.01Zm.13-.2a.525.525,0,0,0,.53.52.511.511,0,1,0,0-1.02C23.25,18.07,22.95,18.32,22.99,18.57Zm.33.64c-.03.16-.01.18.18.17C23.53,19.21,23.52,19.2,23.32,19.21Zm.27.17c.2-.02.21-.02.18-.2-.06.01-.12.03-.18.04ZM23.02,19c-.01.01-.03.02-.04.03.07.09.14.19.24.31C23.28,19.1,23.08,19.1,23.02,19Zm.85.32c.08-.12.14-.2.19-.29-.01-.01-.02-.01-.03-.02C23.96,19.08,23.8,19.1,23.87,19.32Z" stroke="#000" stroke-miterlimit="10" stroke-width="0.1"/>
      <path id="Tracé_106" data-name="Tracé 106" d="M22.56,25.32a.874.874,0,0,1-1.01-.15.844.844,0,0,1,.77-.25,1.2,1.2,0,0,1-.24-.75.394.394,0,0,1,.05-.14c.03.03.08.05.1.09a1.25,1.25,0,0,0,.68.56.282.282,0,0,0,.18-.01,1.017,1.017,0,0,1,.9.01.305.305,0,0,0,.19.01,1.173,1.173,0,0,0,.62-.52.58.58,0,0,1,.12-.1.442.442,0,0,1,.05.15,1.117,1.117,0,0,1-.25.73.876.876,0,0,1,.8.25c-.32.19-.62.37-1,.14a1.847,1.847,0,0,1-.22,1.02,2.014,2.014,0,0,0-.1.35.674.674,0,0,1-.66.55.682.682,0,0,1-.66-.55,3.933,3.933,0,0,0-.19-.58A1.193,1.193,0,0,1,22.56,25.32Zm1.84.3a.9.9,0,0,0-.57-.87.872.872,0,0,0-.94.24.893.893,0,0,0-.14.95q.15.405.27.81a.525.525,0,0,0,.51.38.547.547,0,0,0,.51-.38c.08-.27.18-.53.26-.8A2.3,2.3,0,0,0,24.4,25.62Zm-2.16-1.21a.609.609,0,0,0,.3.49c.16.08.21.07.32-.07A6.735,6.735,0,0,1,22.24,24.41Zm2.56.03c-.19.14-.38.27-.57.41.11.14.11.14.21.1A.52.52,0,0,0,24.8,24.44Zm.46.76a.533.533,0,0,0-.74.03c.22-.03.41-.15.62-.02-.17.01-.3.02-.44.03a.09.09,0,0,0,.01.05C24.91,25.38,25.08,25.28,25.26,25.2Zm-3.47-.03c.26.16.45.18.64.03-.17-.01-.31-.02-.45-.03v-.04a1.184,1.184,0,0,1,.26-.02,2.052,2.052,0,0,1,.28.08A.539.539,0,0,0,21.79,25.17Z" stroke="#000" stroke-miterlimit="10" stroke-width="0.1"/>
    </g>
    <path id="Tracé_107" data-name="Tracé 107" d="M33.81,23.86a9.359,9.359,0,0,0-4.5-7.9,22.1,22.1,0,0,0-2.11-1.09c-.08-.04-.2-.07-.22-.13a.53.53,0,0,1,.01-.33c.02-.04.19-.06.27-.03a10.847,10.847,0,0,1,4.03,2.65,10.408,10.408,0,0,1,.84,13.59,10.435,10.435,0,0,1-6.9,4.01,9.843,9.843,0,0,1-7.57-1.78,10.117,10.117,0,0,1-3.84-5.37,9.891,9.891,0,0,1,.13-6.27,10.655,10.655,0,0,1,6.98-6.95,9.633,9.633,0,0,1,2.72-.46c.16-.01.33-.02.34.2s-.13.29-.32.29a10.681,10.681,0,0,0-3.27.6,9.528,9.528,0,0,0-5.82,5.59,10.018,10.018,0,0,0-.72,4.84,9.461,9.461,0,0,0,4.02,7.12,9.987,9.987,0,0,0,6.4,1.9,9.377,9.377,0,0,0,7.33-3.74A10.5,10.5,0,0,0,33.81,23.86Z"/>
    <path id="Tracé_108" data-name="Tracé 108" d="M23.5,34.8a9.749,9.749,0,0,1-5.85-1.93,10.193,10.193,0,0,1-3.86-5.39,9.916,9.916,0,0,1,.14-6.3,10.748,10.748,0,0,1,7.01-6.97,9.553,9.553,0,0,1,2.73-.47h.02c.15-.01.35-.01.36.24a.315.315,0,0,1-.07.24.366.366,0,0,1-.29.1,10.564,10.564,0,0,0-3.26.6,9.47,9.47,0,0,0-5.79,5.57,10.052,10.052,0,0,0-.71,4.82,9.415,9.415,0,0,0,4.01,7.09,9.958,9.958,0,0,0,6.38,1.89,9.35,9.35,0,0,0,7.3-3.73,10.627,10.627,0,0,0,2.17-6.71,9.333,9.333,0,0,0-4.48-7.86,12.907,12.907,0,0,0-1.42-.76c-.23-.11-.46-.22-.68-.33l-.06-.03c-.07-.03-.15-.06-.17-.13a.551.551,0,0,1,.01-.36c.04-.08.24-.08.32-.05a11.076,11.076,0,0,1,4.04,2.66,10.457,10.457,0,0,1,.85,13.64,10.487,10.487,0,0,1-6.92,4.03A11.02,11.02,0,0,1,23.5,34.8Zm.27-20.97h-.09a9.7,9.7,0,0,0-2.7.46,10.666,10.666,0,0,0-6.96,6.92,9.831,9.831,0,0,0-.13,6.25,10.11,10.11,0,0,0,3.83,5.34,9.789,9.789,0,0,0,7.53,1.77,10.4,10.4,0,0,0,6.87-4,10.362,10.362,0,0,0-.84-13.53,11.04,11.04,0,0,0-4.01-2.64.312.312,0,0,0-.22.01.438.438,0,0,0-.01.3c.01.03.08.06.13.08.02.01.05.02.07.03.22.12.46.23.68.33a13.048,13.048,0,0,1,1.43.76,9.43,9.43,0,0,1,4.52,7.93h0a10.645,10.645,0,0,1-2.19,6.76,9.436,9.436,0,0,1-7.36,3.76,10.115,10.115,0,0,1-6.43-1.91,9.5,9.5,0,0,1-4.04-7.15,10.116,10.116,0,0,1,.72-4.86,9.536,9.536,0,0,1,5.84-5.61,10.461,10.461,0,0,1,3.29-.6.289.289,0,0,0,.23-.08.231.231,0,0,0,.05-.17C23.96,13.86,23.89,13.83,23.77,13.83Z"/>
    <g id="Groupe_42" data-name="Groupe 42">
      <g id="Groupe_41" data-name="Groupe 41">
        <g id="Groupe_40" data-name="Groupe 40" clip-path="url(#clip-path)">
          <path id="Tracé_109" data-name="Tracé 109" d="M30.89,17.39c-.57.59-1.14,1.17-1.71,1.75l-1.73,1.74c-1.15,1.16-2.32,2.31-3.48,3.45s-2.34,2.29-3.51,3.42l-1.77,1.7c-.6.56-1.19,1.13-1.78,1.68.57-.59,1.14-1.17,1.71-1.75l1.73-1.74c1.15-1.16,2.32-2.31,3.48-3.45s2.34-2.29,3.51-3.42l1.77-1.7C29.7,18.51,30.29,17.94,30.89,17.39Z"/>
          <path id="Tracé_110" data-name="Tracé 110" d="M16.96,31.2l-.12-.12c.37-.39.75-.77,1.12-1.15.2-.2.4-.4.6-.61l1.73-1.74c1.18-1.19,2.4-2.39,3.48-3.45,1.15-1.12,2.33-2.29,3.52-3.42l1.77-1.7.61-.58c.38-.36.78-.74,1.17-1.1l.12.12c-.37.39-.75.77-1.12,1.15-.2.2-.4.4-.59.61l-1.73,1.74c-1.15,1.16-2.34,2.33-3.48,3.45-1.08,1.06-2.3,2.26-3.52,3.42l-1.77,1.7c-.21.2-.42.39-.62.59C17.75,30.46,17.35,30.83,16.96,31.2ZM27.08,21.14c-1.07,1.03-2.15,2.09-3.19,3.11-.99.98-2.1,2.07-3.19,3.16,1.11-1.07,2.23-2.16,3.22-3.13C24.95,23.25,26.02,22.19,27.08,21.14Z"/>
        </g>
      </g>
    </g>
  </g>
</svg>
