<svg xmlns="http://www.w3.org/2000/svg" xmlns:xlink="http://www.w3.org/1999/xlink" width="21" height="21.063" viewBox="0 0 21 21.063">
  <defs>
    <clipPath id="clip-path">
      <path id="Tracé_99" data-name="Tracé 99" d="M15.39,23.4A35.764,35.764,0,0,1,20.3,27a5.131,5.131,0,0,1,.98,1.15c.83,1.36.44,2.26.9,2.62,1.23.96,7.17-3.08,6.54-5.48-.28-1.06-1.63-1.02-2.54-2.86a4.685,4.685,0,0,1-.49-2.86c.36-1.98,2.34-3.87,4.09-3.6a3.418,3.418,0,0,1,2.13,1.64c1.91,2.87.76,7.19-.74,9.82-.64,1.13-3.11,5.05-7.85,5.89-.52.09-6,.99-8.43-2.37a6.016,6.016,0,0,1-1.06-4.34A6.1,6.1,0,0,1,15.39,23.4Z"/>
    </clipPath>
  </defs>
  <g id="sans_gluten" data-name="sans gluten" transform="translate(-13.344 -13.737)">
    <g id="Groupe_34" data-name="Groupe 34">
      <path id="Tracé_94" data-name="Tracé 94" d="M33.81,23.86a9.359,9.359,0,0,0-4.5-7.9,22.1,22.1,0,0,0-2.11-1.09c-.08-.04-.2-.07-.22-.13a.53.53,0,0,1,.01-.33c.02-.04.19-.06.27-.03a10.847,10.847,0,0,1,4.03,2.65,10.408,10.408,0,0,1,.84,13.59,10.435,10.435,0,0,1-6.9,4.01,9.843,9.843,0,0,1-7.57-1.78,10.117,10.117,0,0,1-3.84-5.37,9.891,9.891,0,0,1,.13-6.27,10.655,10.655,0,0,1,6.98-6.95,9.633,9.633,0,0,1,2.72-.46c.16-.01.33-.02.34.2s-.13.29-.32.29a10.681,10.681,0,0,0-3.27.6,9.528,9.528,0,0,0-5.82,5.59,10.018,10.018,0,0,0-.72,4.84,9.461,9.461,0,0,0,4.02,7.12,9.987,9.987,0,0,0,6.4,1.9,9.377,9.377,0,0,0,7.33-3.74A10.5,10.5,0,0,0,33.81,23.86Z"/>
      <path id="Tracé_95" data-name="Tracé 95" d="M23.5,34.8a9.749,9.749,0,0,1-5.85-1.93,10.193,10.193,0,0,1-3.86-5.39,9.916,9.916,0,0,1,.14-6.3,10.748,10.748,0,0,1,7.01-6.97,9.553,9.553,0,0,1,2.73-.47h.02c.15-.01.35-.01.36.24a.315.315,0,0,1-.07.24.366.366,0,0,1-.29.1,10.564,10.564,0,0,0-3.26.6,9.47,9.47,0,0,0-5.79,5.57,10.052,10.052,0,0,0-.71,4.82,9.415,9.415,0,0,0,4.01,7.09,9.958,9.958,0,0,0,6.38,1.89,9.35,9.35,0,0,0,7.3-3.73,10.627,10.627,0,0,0,2.17-6.71,9.333,9.333,0,0,0-4.48-7.86,12.907,12.907,0,0,0-1.42-.76c-.23-.11-.46-.22-.68-.33l-.06-.03c-.07-.03-.15-.06-.17-.13a.551.551,0,0,1,.01-.36c.04-.08.24-.08.32-.05a11.076,11.076,0,0,1,4.04,2.66,10.457,10.457,0,0,1,.85,13.64,10.487,10.487,0,0,1-6.92,4.03A11.02,11.02,0,0,1,23.5,34.8Zm.27-20.97h-.09a9.7,9.7,0,0,0-2.7.46,10.666,10.666,0,0,0-6.96,6.92,9.831,9.831,0,0,0-.13,6.25,10.11,10.11,0,0,0,3.83,5.34,9.789,9.789,0,0,0,7.53,1.77,10.4,10.4,0,0,0,6.87-4,10.362,10.362,0,0,0-.84-13.53,11.04,11.04,0,0,0-4.01-2.64.312.312,0,0,0-.22.01.438.438,0,0,0-.01.3c.01.03.08.06.13.08.02.01.05.02.07.03.22.12.46.23.68.33a13.048,13.048,0,0,1,1.43.76,9.43,9.43,0,0,1,4.52,7.93h0a10.645,10.645,0,0,1-2.19,6.76,9.436,9.436,0,0,1-7.36,3.76,10.115,10.115,0,0,1-6.43-1.91,9.5,9.5,0,0,1-4.04-7.15,10.116,10.116,0,0,1,.72-4.86,9.536,9.536,0,0,1,5.84-5.61,10.461,10.461,0,0,1,3.29-.6.289.289,0,0,0,.23-.08.231.231,0,0,0,.05-.17C23.96,13.86,23.89,13.83,23.77,13.83Z"/>
    </g>
    <g id="Groupe_38" data-name="Groupe 38">
      <path id="Tracé_96" data-name="Tracé 96" d="M20.08,26.24c.39.32.73.59,1.05.86a1.359,1.359,0,0,0,1.18.35,2.37,2.37,0,0,1,2.43.68,2.994,2.994,0,0,0-.39-.93,1.5,1.5,0,0,0-.82-.39,4.417,4.417,0,0,0-.96.02,2.084,2.084,0,0,1-1.86-1.05,6.163,6.163,0,0,0-1.6-1.88c-.05-.03-.07-.11-.16-.28a10.548,10.548,0,0,0,1.27.88,1.811,1.811,0,0,0,1.03.21,2.207,2.207,0,0,1,2.31.74c-.12-.95-.49-1.3-1.37-1.19a2.693,2.693,0,0,1-2.91-1.55,7.517,7.517,0,0,0-.99-1.2,4.613,4.613,0,0,0-.4-.37c.03-.03.05-.07.08-.1.13.1.27.2.4.32a2.314,2.314,0,0,0,2.24.76,1.971,1.971,0,0,1,1.91.68c-.1-.26-.2-.53-.33-.85a1.212,1.212,0,0,1-1.39-.53,2,2,0,0,1-.35-.7,14.782,14.782,0,0,0-1.21-3.23c-.05-.13-.09-.26-.14-.38.05-.02.09-.04.14-.06.35.79.69,1.58,1.09,2.47.38-1.41-.46-2.38-.83-3.47.04-.02.09-.04.13-.06.08.18.16.36.24.55s.19.4.27.6c.27.61.46,1.28,1.12,1.62.11.06.22.12.45.24-.37-.84-.69-1.56-1.01-2.29a.405.405,0,0,1,.09-.05c.05.07.11.13.15.2.22.48.43.96.64,1.44a3.442,3.442,0,0,0,.86,1.29c.87.8.82,1.38-.12,2.34.12.23.26.47.39.7a4.845,4.845,0,0,1,1.27-2.18,1.935,1.935,0,0,0,.43-1.38c-.01-.2.01-.4.02-.72.1.16.15.2.14.24a7.9,7.9,0,0,0,.44,3.13,1.376,1.376,0,0,1-.52,1.48c-.15.14-.31.26-.47.4a1.1,1.1,0,0,0-.2,1.7c.2-.48.4-.97.61-1.45a1.111,1.111,0,0,1,.25-.36,2.717,2.717,0,0,0,.83-2.3,2.655,2.655,0,0,1,.05-.48c.08.15.13.2.12.24a7.7,7.7,0,0,0,.42,2.82,1.889,1.889,0,0,1-1.19,2.52.6.6,0,0,0-.37.85,10.616,10.616,0,0,0,.48,1.04,3.015,3.015,0,0,1,1.14-2.37,2.652,2.652,0,0,0,.57-1.88c.01-.18.01-.36.02-.55a.57.57,0,0,0,.13-.01,1.972,1.972,0,0,1,.02.42,3.814,3.814,0,0,0,.28,1.83,2.082,2.082,0,0,1-.59,2.61,7.273,7.273,0,0,0-.57.54,1.219,1.219,0,0,0-.26,1.48c.42.97.82,1.94,1.23,2.91a.349.349,0,0,1,0,.3c-.06-.13-.12-.26-.17-.39-.43-1.01-.87-2.01-1.3-3.02a.87.87,0,0,0-.88-.53c-.31,0-.61.02-.92.03a2.1,2.1,0,0,1-1.87-.95,7.291,7.291,0,0,0-1.75-2.15A.656.656,0,0,0,20.08,26.24Zm.68-7.52c-.01.02-.04.04-.04.07a8.357,8.357,0,0,0-.05,1.22,3.689,3.689,0,0,0,.34,1.23.908.908,0,0,0,1.35.32.946.946,0,0,0,.29-1.4,3.962,3.962,0,0,0-.78-.75C21.52,19.15,21.13,18.95,20.76,18.72Zm4.85,4.04c-1.35,1.71-1.7,2.74-1.19,3.54C26.15,25.64,26.29,24.9,25.61,22.76Zm-2.27,1.26c.29-.27.56-.53.84-.77.35-.3.71-.61.64-1.12-.08-.58-.22-1.16-.35-1.8C23.44,21.44,22.66,22.52,23.34,24.02ZM20.6,25.03c.43,1.31,1.62,1.85,3.27,1.46-.07-.15-.15-.29-.21-.43a1.821,1.821,0,0,0-2.02-1.12C21.29,24.98,20.94,25,20.6,25.03Zm-1.05-2.56c.62,1.54,1.56,1.73,3.24,1.46C22.06,22.26,21.52,22.21,19.55,22.47Zm2.14,5.3c.52,1.35,1.56,1.81,3.24,1.46C24.41,27.81,23.83,27.54,21.69,27.77Zm5.16-2.35c-.31.36-.59.71-.89,1.04a2.556,2.556,0,0,0-.43,2.63,10.573,10.573,0,0,1,.98-1.03A2.013,2.013,0,0,0,26.85,25.42Z"/>
      <g id="Groupe_37" data-name="Groupe 37">
        <g id="Groupe_36" data-name="Groupe 36">
          <g id="Groupe_35" data-name="Groupe 35" clip-path="url(#clip-path)">
            <path id="Tracé_97" data-name="Tracé 97" d="M30.89,17.39c-.57.59-1.14,1.17-1.71,1.75l-1.73,1.74c-1.15,1.16-2.32,2.31-3.48,3.45s-2.34,2.29-3.51,3.42l-1.77,1.7c-.6.56-1.19,1.13-1.78,1.68.57-.59,1.14-1.17,1.71-1.75l1.73-1.74c1.15-1.16,2.32-2.31,3.48-3.45s2.34-2.29,3.51-3.42l1.77-1.7C29.7,18.51,30.29,17.94,30.89,17.39Z"/>
            <path id="Tracé_98" data-name="Tracé 98" d="M16.96,31.2l-.12-.12c.37-.39.75-.77,1.12-1.15.2-.2.4-.4.6-.61l1.73-1.74c1.18-1.19,2.4-2.39,3.48-3.45,1.15-1.12,2.33-2.29,3.52-3.42l1.77-1.7.61-.58c.38-.36.78-.74,1.17-1.1l.12.12c-.37.39-.75.77-1.12,1.15-.2.2-.4.4-.59.61l-1.73,1.74c-1.15,1.16-2.34,2.33-3.48,3.45-1.08,1.06-2.3,2.26-3.52,3.42l-1.77,1.7c-.21.2-.42.39-.62.59C17.75,30.46,17.35,30.83,16.96,31.2ZM27.08,21.14c-1.07,1.03-2.15,2.09-3.19,3.11-.99.98-2.1,2.07-3.19,3.16,1.11-1.07,2.23-2.16,3.22-3.13C24.95,23.25,26.02,22.19,27.08,21.14Z"/>
          </g>
        </g>
      </g>
    </g>
  </g>
</svg>
