<svg xmlns="http://www.w3.org/2000/svg" width="23.986" height="21.02" viewBox="0 0 23.986 21.02">
  <g id="vegan" transform="translate(-11.986 -13.94)">
    <g id="Groupe_33" data-name="Groupe 33">
      <path id="Tracé_91" data-name="Tracé 91" d="M18.19,24.92h.03c-.01.13-.01.25-.02.38a2.874,2.874,0,0,0,.58,1.85,3.145,3.145,0,0,0,3.83.9.3.3,0,0,1,.33.02,2.863,2.863,0,0,0,.42.24,3.571,3.571,0,0,0,2.38.32,3.383,3.383,0,0,0,2.68-3.03c.07-.72.06-1.45.07-2.18a8.514,8.514,0,0,1,.22-2.25.707.707,0,0,0-.81-.93q-.555.09-1.11.21a9.07,9.07,0,0,0-3.91,1.82c-.09.08-.14.04-.22-.02a12.253,12.253,0,0,0-2.06-1.29,3.294,3.294,0,0,0-1.22-.39.551.551,0,0,0-.67.58.752.752,0,0,0,0,.15,6.237,6.237,0,0,1-.16,1.72C18.43,23.67,18.31,24.29,18.19,24.92Zm4.88,2.91c.15-.14.3-.26.43-.39a3.012,3.012,0,0,0,.82-1.74.959.959,0,0,1,.1-.34,8.019,8.019,0,0,1,1.36-2.03,7,7,0,0,1,.74-.58c.03-.02.07-.03.08-.06a1.458,1.458,0,0,0,.07-.19c-.07-.02-.14-.06-.2-.04a1.029,1.029,0,0,0-.27.15,5.248,5.248,0,0,0-1.52,1.66c-.13.2-.25.41-.38.63a4.146,4.146,0,0,0-1.29-2.33c.3-.22.58-.45.88-.63a10.661,10.661,0,0,1,4.09-1.41.357.357,0,0,1,.4.49,7.127,7.127,0,0,0-.23,2.25,13.731,13.731,0,0,1-.08,2.31,3.315,3.315,0,0,1-2.98,2.83A3.1,3.1,0,0,1,23.07,27.83Zm-.73.04c-.12-.53-.22-1.03-.34-1.53a10.7,10.7,0,0,0-1.5-3.49c-.05-.08-.08-.23-.23-.17-.1.04-.1.21,0,.35a12,12,0,0,1,1.78,4.85.75.75,0,0,0,.01.12,5.712,5.712,0,0,1-.82.09,2.883,2.883,0,0,1-2.72-2.84,7.53,7.53,0,0,1,.28-1.95,6.839,6.839,0,0,0,.25-2.16.309.309,0,0,1,.42-.31,4.243,4.243,0,0,1,.5.18,8.383,8.383,0,0,1,2.9,1.86,3.406,3.406,0,0,1,1.03,3.05A2.5,2.5,0,0,1,22.34,27.87Z"/>
      <path id="Tracé_92" data-name="Tracé 92" d="M25.01,28.74a3.967,3.967,0,0,1-1.67-.4,3.923,3.923,0,0,1-.42-.24.254.254,0,0,0-.3-.02,3.164,3.164,0,0,1-3.86-.91,2.944,2.944,0,0,1-.59-1.87c0-.09.01-.18.01-.26v-.09l-.03-.01.11-.57c.08-.44.17-.89.25-1.33a6.369,6.369,0,0,0,.16-1.72v-.15a.67.67,0,0,1,.2-.48.694.694,0,0,1,.5-.13,3.483,3.483,0,0,1,1.23.39,11.929,11.929,0,0,1,2.07,1.29c.07.06.11.08.18.02a8.974,8.974,0,0,1,3.93-1.83c.34-.08.7-.15,1.11-.22a.746.746,0,0,1,.7.23.758.758,0,0,1,.15.73,8.229,8.229,0,0,0-.22,2.15v.54a16.679,16.679,0,0,1-.07,1.73,3.425,3.425,0,0,1-2.7,3.05A2.4,2.4,0,0,1,25.01,28.74Zm-2.25-.75a.32.32,0,0,1,.19.07c.12.08.26.16.41.24a3.606,3.606,0,0,0,2.37.32,3.34,3.34,0,0,0,2.66-3.01c.06-.57.06-1.16.07-1.73v-.54a8.38,8.38,0,0,1,.22-2.17.716.716,0,0,0-.14-.68.692.692,0,0,0-.65-.21c-.41.07-.77.14-1.11.21a8.843,8.843,0,0,0-3.9,1.82c-.11.09-.18.04-.25-.02A11.86,11.86,0,0,0,20.57,21a3.314,3.314,0,0,0-1.21-.39.591.591,0,0,0-.46.12.665.665,0,0,0-.18.44v.01a.655.655,0,0,0,0,.14,6.444,6.444,0,0,1-.16,1.73c-.08.44-.17.89-.25,1.33l-.1.52h.02v.02a.487.487,0,0,1-.01.12c0,.09-.01.17-.01.26a2.837,2.837,0,0,0,.57,1.83,3.129,3.129,0,0,0,3.8.9A.491.491,0,0,1,22.76,27.99Zm2.11.45a3.18,3.18,0,0,1-1.82-.59l-.03-.02.02-.02c.05-.04.1-.09.15-.13a3.576,3.576,0,0,0,.28-.26,2.948,2.948,0,0,0,.81-1.72.959.959,0,0,1,.11-.35,7.692,7.692,0,0,1,1.37-2.04,4.819,4.819,0,0,1,.51-.41l.23-.17a1258823175297.167,1258823175297.167,0,0,0,.08-.04c.02-.04.03-.08.05-.13,0-.01.01-.02.01-.03s-.03-.01-.04-.01a.18.18,0,0,0-.12-.02.847.847,0,0,0-.23.12l-.04.02a5.245,5.245,0,0,0-1.51,1.65c-.09.14-.17.27-.26.42a2.393,2.393,0,0,1-.13.21l-.04.06-.01-.07a4.091,4.091,0,0,0-1.28-2.31l-.02-.02.03-.02c.1-.07.19-.14.28-.21a5.9,5.9,0,0,1,.6-.42,10.539,10.539,0,0,1,4.1-1.41.378.378,0,0,1,.36.12.427.427,0,0,1,.07.4,7.4,7.4,0,0,0-.23,2.24,12.927,12.927,0,0,1-.08,2.32,3.325,3.325,0,0,1-3,2.85A1.479,1.479,0,0,0,24.87,28.44Zm-1.76-.61a3.026,3.026,0,0,0,1.99.55,3.272,3.272,0,0,0,2.95-2.81,14.914,14.914,0,0,0,.08-2.31,7.153,7.153,0,0,1,.23-2.25.359.359,0,0,0-.06-.35.351.351,0,0,0-.32-.1,10.6,10.6,0,0,0-4.08,1.4,7.156,7.156,0,0,0-.59.42c-.08.06-.17.13-.26.19a4.115,4.115,0,0,1,1.26,2.25l.09-.15c.09-.15.17-.28.26-.42a5.491,5.491,0,0,1,1.53-1.67l.04-.02a1.115,1.115,0,0,1,.24-.13.262.262,0,0,1,.15.02c.02.01.04.01.06.02l.03.01-.01.03c-.01.02-.01.04-.02.06a.784.784,0,0,1-.05.14.147.147,0,0,1-.06.05c-.01.01-.02.01-.03.02-.08.06-.15.12-.23.17a4.957,4.957,0,0,0-.5.41,7.972,7.972,0,0,0-1.36,2.02,1.154,1.154,0,0,0-.1.33,3,3,0,0,1-.83,1.75c-.09.09-.19.18-.29.27A.53.53,0,0,0,23.11,27.83Zm-1.83.3h-.04a2.929,2.929,0,0,1-2.75-2.86,7.483,7.483,0,0,1,.28-1.96,6.844,6.844,0,0,0,.25-2.15.325.325,0,0,1,.11-.28.371.371,0,0,1,.34-.06c.17.05.35.12.5.18a8.42,8.42,0,0,1,2.91,1.86,3.451,3.451,0,0,1,1.04,3.08,2.535,2.535,0,0,1-1.57,1.95l-.03.01v-.02c-.04-.17-.07-.33-.11-.49-.08-.36-.15-.7-.24-1.04a10.69,10.69,0,0,0-1.49-3.48l-.03-.06c-.04-.08-.07-.13-.16-.09-.03.01-.04.03-.05.07a.356.356,0,0,0,.06.25,11.824,11.824,0,0,1,1.79,4.86v.15h-.02a2.336,2.336,0,0,0-.26.04C21.63,28.1,21.46,28.13,21.28,28.13Zm-1.93-7.27a.308.308,0,0,0-.19.06.254.254,0,0,0-.09.23,6.935,6.935,0,0,1-.25,2.17,7.394,7.394,0,0,0-.28,1.94,2.876,2.876,0,0,0,2.7,2.81,3.55,3.55,0,0,0,.56-.06c.08-.01.16-.03.23-.04v-.09a11.926,11.926,0,0,0-1.78-4.84.37.37,0,0,1-.07-.29.137.137,0,0,1,.08-.1c.14-.06.2.05.23.12l.03.06a10.6,10.6,0,0,1,1.5,3.5c.09.34.16.68.24,1.04.03.15.07.31.1.46a2.479,2.479,0,0,0,1.51-1.9,3.36,3.36,0,0,0-1.03-3.03,8.219,8.219,0,0,0-2.89-1.85c-.16-.06-.33-.13-.5-.18A.308.308,0,0,0,19.35,20.86Z"/>
    </g>
    <path id="Tracé_93" data-name="Tracé 93" d="M23.99,34.96a1.381,1.381,0,0,1-.81-.27c-.33-.23-.66-.46-.99-.7a59.047,59.047,0,0,1-5.15-3.9,17.886,17.886,0,0,1-3.72-4.33,9.678,9.678,0,0,1-1.29-5.91,10.434,10.434,0,0,1,.29-1.81,4.924,4.924,0,0,1,2.22-2.83,7.275,7.275,0,0,1,2.74-1.19,5.362,5.362,0,0,1,3.2.45,11.959,11.959,0,0,1,3.5,2.52l.03.03a13.688,13.688,0,0,1,2.44-1.98,6.7,6.7,0,0,1,3.05-1.08,5.126,5.126,0,0,1,2.64.52,7.385,7.385,0,0,1,2.64,1.91,5.151,5.151,0,0,1,1.13,3.01,10.826,10.826,0,0,1-.37,4.35A12.242,12.242,0,0,1,33,28.02a30.373,30.373,0,0,1-4.99,4.39c-.8.58-1.62,1.16-2.41,1.73-.24.17-.49.34-.73.52A1.507,1.507,0,0,1,23.99,34.96ZM18.14,14.6a3.909,3.909,0,0,0-.76.07,6.569,6.569,0,0,0-2.5,1.09,4.3,4.3,0,0,0-1.95,2.46,9.809,9.809,0,0,0-.27,1.7,9.037,9.037,0,0,0,1.21,5.53,17.463,17.463,0,0,0,3.59,4.18,58.708,58.708,0,0,0,5.09,3.86c.33.23.66.46.99.7a.768.768,0,0,0,.95-.03c.24-.17.49-.34.73-.52.79-.56,1.61-1.14,2.4-1.72a29.184,29.184,0,0,0,4.89-4.29,11.824,11.824,0,0,0,2.42-4.05,10.137,10.137,0,0,0,.34-4.1,4.489,4.489,0,0,0-.99-2.65,6.774,6.774,0,0,0-2.42-1.74,4.536,4.536,0,0,0-2.32-.46,6.094,6.094,0,0,0-2.77.99,13.659,13.659,0,0,0-2.54,2.1l-.18.18-.23-.15a.243.243,0,0,1-.09-.07l-.12-.12-.09-.09a11.046,11.046,0,0,0-3.31-2.39A4.9,4.9,0,0,0,18.14,14.6Zm6.04,2.61Z"/>
  </g>
</svg>
