<svg xmlns="http://www.w3.org/2000/svg" width="20.044" height="21.301" viewBox="0 0 20.044 21.301">
  <g id="sans_dechets" data-name="sans dechets" transform="translate(-13.958 -13.759)">
    <path id="Tracé_112" data-name="Tracé 112" d="M22.35,28.32c-.5.65-.98,1.26-1.45,1.88-1.1,1.43-2.2,2.85-3.3,4.28a1.149,1.149,0,0,1-.87.58,1.768,1.768,0,0,1-1.71-.96,13.663,13.663,0,0,1-1.03-3.29,3.082,3.082,0,0,1,.54-2.26c1.57-2.26,3.3-4.39,5.06-6.51a1.07,1.07,0,0,1,.95-.51,1.468,1.468,0,0,1,.53.19c.24.14.45.31.69.48-.06-.65-.12-1.28-.18-1.91-.13-1.34-.27-2.68-.4-4.02a1.8,1.8,0,0,0-.06-.22c-.06-.26-.13-.52-.17-.78-.03-.22-.03-.44-.05-.66a.439.439,0,0,1,.32-.5,2.835,2.835,0,0,1,.85-.16c2.45-.08,4.91-.15,7.36-.19a7.351,7.351,0,0,1,4.22,1.3.953.953,0,0,1,.34.99c-.23,2.21-.45,4.43-.72,6.63-.34,2.81-.72,5.62-1.11,8.42-.05.36-.07.59.32.71a.21.21,0,0,1,.11.08,1.127,1.127,0,0,1,.12.18.761.761,0,0,1-.19.12,20.237,20.237,0,0,1-4.01.74c-.86.06-1.72.05-2.58.05a3.68,3.68,0,0,1-1.49-.37,1.243,1.243,0,0,1-.35-.25c-.3-.31-.58-.64-.88-.95a2.626,2.626,0,0,1-.8-1.88C22.41,29.11,22.38,28.74,22.35,28.32Zm8.98,2.85c.61-4.69,1.21-9.36,1.81-13.98l-9.67.45c0,.07.01.16.02.26.15,1.77.29,3.54.46,5.31a9.892,9.892,0,0,0,.26,2.1,1,1,0,0,1,.01.3c.01.34-.01.69.02,1.03.14,1.78.29,3.56.43,5.34.01.15.07.2.19.2a3.362,3.362,0,0,0,.71-.01C27.48,31.85,29.39,31.51,31.33,31.17ZM15.56,33.4c.11-.1.19-.15.25-.22.25-.28.5-.54.73-.83q2.61-3.33,5.2-6.66a2.045,2.045,0,0,0,.2-.31,1.02,1.02,0,0,0-.01-1.21c-.41-.63-.8-1.28-1.21-1.91-.2-.32-.36-.35-.61-.06-.59.68-1.15,1.38-1.72,2.05.08.1.16.18.22.27l.57.93c.09.15.15.3-.03.42s-.3-.01-.39-.16c-.21-.36-.43-.71-.66-1.08-.16.19-.29.38-.45.55a.209.209,0,0,0-.02.3c.18.32.35.65.51.98.1.21-.01.42-.22.38a.427.427,0,0,1-.23-.19c-.17-.29-.31-.59-.49-.91l-.78,1.02c.22.45.42.85.62,1.26.08.16.09.33-.11.4s-.28-.07-.35-.23c-.14-.32-.3-.63-.45-.94-.03,0-.06-.01-.09-.01-.45.68-.92,1.36-1.33,2.06a1.225,1.225,0,0,0-.12.78,12.162,12.162,0,0,0,.72,2.85A3.7,3.7,0,0,0,15.56,33.4Zm.24.43c.02.05.04.09.06.13.36.73.89.8,1.38.16q3.12-4.02,6.22-8.05c.37-.48.38-.68,0-1.14-.44-.54-.9-1.05-1.35-1.58-.02-.03-.06-.04-.14-.08.17.29.31.52.45.76a1.413,1.413,0,0,1,.01,1.47,6.649,6.649,0,0,1-.36.56c-1.46,1.89-2.91,3.78-4.38,5.66A14.422,14.422,0,0,1,15.8,33.83ZM30.42,14.29a7.551,7.551,0,0,0-.8-.06c-2.15.05-4.29.1-6.44.16-.5.01-1,.04-1.5.07a.683.683,0,0,0-.22.09.719.719,0,0,0,.12.21c.3.25.6.5.92.73a2.465,2.465,0,0,0,1.67.49c1.55-.08,3.11-.14,4.66-.21.48-.02.97-.05,1.47-.07C30.33,15.23,30.37,14.77,30.42,14.29Zm-8.98,1.04a.869.869,0,0,0,.32.75c.38.29.78.57,1.19.83a1.043,1.043,0,0,0,.54.17c.8,0,1.6-.01,2.4-.04,2.24-.1,4.49-.21,6.73-.33a1.8,1.8,0,0,0,.51-.12c.29-.12.36-.25.35-.6h-.15c-.41.04-.82.1-1.24.12-2.57.13-5.13.24-7.7.37a3.3,3.3,0,0,1-2.22-.62C21.93,15.69,21.7,15.52,21.44,15.33Zm.28,1.4c.05.49.09.96.14,1.43.15,1.52.3,3.03.45,4.55.01.05,0,.12.04.15.37.44.75.88,1.13,1.32a.847.847,0,0,0,.02-.35c-.06-.65-.11-1.3-.17-1.96-.12-1.42-.24-2.84-.37-4.26a.236.236,0,0,0-.07-.16Q22.335,17.1,21.72,16.73Zm2.01,9.8c-.31.4-.57.74-.83,1.09a.254.254,0,0,0-.03.15l.06,1.89a1.757,1.757,0,0,0,.48,1.17c.23.25.47.5.71.75.01-.01.03-.02.04-.03C24.01,29.9,23.88,28.25,23.73,26.53Zm9.64-11.01v-.09a6.919,6.919,0,0,0-2.46-1.05c-.04.44-.08.84-.12,1.3C31.66,15.63,32.51,15.58,33.37,15.52Z"/>
    <path id="Tracé_113" data-name="Tracé 113" d="M29.54,26.63h-.48c-.1,0-.17-.02-.18-.12s.06-.16.16-.17c.2-.01.4,0,.61,0a4.147,4.147,0,0,0,.61-.02.559.559,0,0,0,.5-.83c-.16-.39-.36-.75-.54-1.13-.02-.04-.06-.08-.06-.12a.235.235,0,0,1,.05-.16c.05-.02.12.01.18.02.01,0,.02.03.03.04a5.307,5.307,0,0,1,.64,1.31.82.82,0,0,1-.59,1.12,5.51,5.51,0,0,1-.91.1C29.54,26.66,29.54,26.65,29.54,26.63Z"/>
    <path id="Tracé_114" data-name="Tracé 114" d="M25.68,25.67c.03-.14.06-.28.1-.41a4.886,4.886,0,0,1,.63-1.3c.06-.09.13-.15.24-.08s.07.16.01.24a4.3,4.3,0,0,0-.64,1.37c-.08.32,0,.45.32.5.34.06.69.11,1.04.16.11.02.19.06.17.18s-.11.12-.22.11c-.37-.06-.74-.11-1.1-.18A.588.588,0,0,1,25.68,25.67Z"/>
    <path id="Tracé_115" data-name="Tracé 115" d="M29.73,23.09c-.03.04-.05.09-.09.11a.2.2,0,0,1-.15-.01c-.04-.02-.06-.07-.09-.1-.25-.34-.48-.69-.74-1.03a.414.414,0,0,0-.74.03,3.612,3.612,0,0,0-.22.44,1.383,1.383,0,0,1-.14.27.192.192,0,0,1-.18.04.181.181,0,0,1-.07-.17,4.15,4.15,0,0,1,.38-.76.69.69,0,0,1,1.19-.05c.29.36.54.74.81,1.12C29.7,23,29.71,23.04,29.73,23.09Z"/>
    <path id="Tracé_116" data-name="Tracé 116" d="M27.09,23.25c.23-.03.43-.07.64-.1.1-.01.2,0,.21.13s-.09.14-.19.16c-.23.04-.47.09-.7.15-.21.06-.28.01-.27-.21l.06-.81c0-.03.01-.06.01-.1.01-.09.07-.15.16-.12a.224.224,0,0,1,.12.15c0,.21-.02.42-.04.63A.244.244,0,0,1,27.09,23.25Z"/>
    <path id="Tracé_117" data-name="Tracé 117" d="M27.98,26.35c-.21-.19-.38-.35-.55-.51-.08-.07-.12-.16-.03-.25s.16-.03.24.04c.19.17.38.35.58.51a.164.164,0,0,1,.05.25,1.787,1.787,0,0,1-.66.62c-.09.05-.19.08-.25-.04s.02-.17.11-.23C27.64,26.62,27.8,26.48,27.98,26.35Z"/>
    <path id="Tracé_118" data-name="Tracé 118" d="M30,23.81c-.03.26-.07.51-.09.76-.01.1-.05.18-.16.17s-.14-.09-.13-.2l.09-.78a.257.257,0,0,1,.35-.23c.22.06.44.13.66.19.1.03.16.08.13.19s-.12.12-.21.09C30.44,23.94,30.23,23.88,30,23.81Z"/>
  </g>
</svg>
