<svg xmlns="http://www.w3.org/2000/svg" xmlns:xlink="http://www.w3.org/1999/xlink" width="47" height="47.001" viewBox="0 0 47 47.001">
  <defs>
    <linearGradient id="linear-gradient" x1="0.5" y1="0.995" x2="0.5" y2="0.067" gradientUnits="objectBoundingBox">
      <stop offset="0" stop-color="#e09b3d"/>
      <stop offset="0.24" stop-color="#c74c4d"/>
      <stop offset="0.65" stop-color="#c21975"/>
      <stop offset="1" stop-color="#7024c4"/>
    </linearGradient>
    <linearGradient id="linear-gradient-2" x1="0.04" y1="0.027" x2="0.779" y2="0.776" gradientUnits="objectBoundingBox">
      <stop offset="0" stop-color="#99155b"/>
      <stop offset="0.14" stop-color="#99155b" stop-opacity="0.91"/>
      <stop offset="0.39" stop-color="#99165a" stop-opacity="0.659"/>
      <stop offset="0.74" stop-color="#99175a" stop-opacity="0.271"/>
      <stop offset="0.97" stop-color="#991859" stop-opacity="0"/>
    </linearGradient>
  </defs>
  <g id="Layer_2" data-name="Layer 2" transform="translate(0.004 -0.051)">
    <g id="_05.instagram" data-name="05.instagram" transform="translate(-0.004 0.051)">
      <path id="background" d="M47,23.534a23.19,23.19,0,0,1-.309,3.816A23.5,23.5,0,1,1,47,23.534Z" transform="translate(0.004 -0.051)" fill="url(#linear-gradient)"/>
      <path id="shadow" d="M75.889,57.5A23.5,23.5,0,0,1,56.5,76.877L43,63.384C40.77,49.581,44.351,43.7,44.351,43.7H62.084Z" transform="translate(-29.199 -30.204)" fill="url(#linear-gradient-2)"/>
      <g id="icon" transform="translate(11.751 11.734)">
        <path id="Tracé_319" data-name="Tracé 319" d="M54.5,38H45a7.01,7.01,0,0,0-7,7v9.5a7.01,7.01,0,0,0,7,7h9.5a7.006,7.006,0,0,0,7-7V45A7.01,7.01,0,0,0,54.5,38Zm4.638,16.5A4.638,4.638,0,0,1,54.5,59.137H45A4.638,4.638,0,0,1,40.362,54.5V45A4.638,4.638,0,0,1,45,40.362h9.5A4.638,4.638,0,0,1,59.137,45Z" transform="translate(-38 -38)" fill="#fff"/>
        <path id="Tracé_320" data-name="Tracé 320" d="M62.412,56.35a6.079,6.079,0,1,0,6.076,6.077,6.079,6.079,0,0,0-6.076-6.077Zm0,9.786a3.71,3.71,0,1,1,3.71-3.71A3.71,3.71,0,0,1,62.412,66.136Z" transform="translate(-50.662 -50.676)" fill="#fff"/>
        <circle id="Ellipse_23" data-name="Ellipse 23" cx="1.503" cy="1.503" r="1.503" transform="translate(16.36 4.171)" fill="#fff"/>
      </g>
    </g>
  </g>
</svg>
