<svg xmlns="http://www.w3.org/2000/svg" xmlns:xlink="http://www.w3.org/1999/xlink" width="47" height="47" viewBox="0 0 47 47">
  <defs>
    <linearGradient id="linear-gradient" x1="0.109" y1="0.269" x2="0.775" y2="0.85" gradientUnits="objectBoundingBox">
      <stop offset="0" stop-color="#084a8c"/>
      <stop offset="0.19" stop-color="#084a8c" stop-opacity="0.839"/>
      <stop offset="0.6" stop-color="#084a8c" stop-opacity="0.42"/>
      <stop offset="0.97" stop-color="#084a8c" stop-opacity="0"/>
    </linearGradient>
  </defs>
  <g id="Layer_2" data-name="Layer 2" transform="translate(0 -0.021)">
    <g id="_10.linkedin" data-name="10.linkedin" transform="translate(0 0.021)">
      <circle id="background" cx="23.5" cy="23.5" r="23.5" transform="translate(0 0.001)" fill="#0b69c7"/>
      <path id="shadow" d="M73.164,60.317A23.434,23.434,0,0,1,53.057,74.711L41.392,63.046l2.754-14.659L40.6,44.853l4.5-4.523,9.17,9.17.552-.552,6.454-.521Z" transform="translate(-28.081 -27.762)" fill="url(#linear-gradient)"/>
      <g id="icon" transform="translate(11.791 11.85)">
        <path id="Tracé_321" data-name="Tracé 321" d="M44.641,41.2a3.2,3.2,0,1,1-3.2-3.2A3.2,3.2,0,0,1,44.641,41.2Z" transform="translate(-38.24 -38)" fill="#fff"/>
        <rect id="Rectangle_272" data-name="Rectangle 272" width="4.952" height="15.704" rx="2.476" transform="translate(0.728 7.73)" fill="#fff"/>
        <path id="Tracé_322" data-name="Tracé 322" d="M79.264,70.692v6.836a.728.728,0,0,1-.728.728H74.923a.728.728,0,0,1-.728-.728V70.9c0-.99.287-4.317-2.584-4.317-2.226,0-2.68,2.288-2.775,3.315v7.641a.728.728,0,0,1-.722.712h-3.5a.725.725,0,0,1-.728-.728V63.282a.728.728,0,0,1,.728-.731h3.5a.731.731,0,0,1,.743.731v1.233c.826-1.233,2.054-2.2,4.665-2.2C79.3,62.317,79.264,67.722,79.264,70.692Z" transform="translate(-55.981 -54.821)" fill="#fff"/>
      </g>
    </g>
  </g>
</svg>
