<?xml version="1.0" encoding="utf-8"?>
<!-- Generator: Adobe Illustrator 25.2.0, SVG Export Plug-In . SVG Version: 6.00 Build 0)  -->
<svg version="1.1" id="Calque_1" xmlns="http://www.w3.org/2000/svg" xmlns:xlink="http://www.w3.org/1999/xlink" x="0px" y="0px"
	 viewBox="0 0 841.89 595.28" style="enable-background:new 0 0 841.89 595.28;" xml:space="preserve">
<style type="text/css">
	.st0{fill:#999999;}
	.st1{fill:none;stroke:#FF0001;stroke-width:4;stroke-miterlimit:10;}
</style>
<path class="st0" d="M359.26,212.7c-3.03-2.26-6.63-3.65-10.4-4c-2.08-0.34-4.21-0.34-6.29,0c-1.7,0.27-3.33,0.85-4.81,1.72
	c-1.95,1.36-3.18,3.52-3.36,5.89c-0.81,6.73,9.89,11.34,14.7,13.76c13.22,6.93,25.23,13.09,24.96,30.04
	c0.12,6.37-2.2,12.55-6.49,17.26c-4.55,4.74-10.58,7.8-17.09,8.68c-15.11,2.5-30.47-2.76-40.88-14c-0.44-0.52-0.63-1.21-0.54-1.88
	c0.05-0.69,0.46-1.3,1.08-1.61l11.78-7.47c0.89-0.53,2.02-0.43,2.79,0.27c3.22,2.84,7.08,4.87,11.24,5.92
	c3.69,1,7.56,1.21,11.34,0.64c2.62-0.33,5.05-1.51,6.93-3.36c1.12-1.34,1.7-3.06,1.61-4.81c0-6.26-10.43-10.93-14.97-13.46
	c-14.4-7.33-26.92-13.9-24.56-32.47c0.77-7.72,4.99-14.68,11.47-18.94c3.5-2.02,7.32-3.39,11.3-4.07c3.92-0.67,7.92-0.81,11.88-0.4
	c8.77,0.93,16.95,4.9,23.11,11.2c0.46,0.51,0.66,1.21,0.54,1.88c-0.03,0.65-0.38,1.24-0.94,1.58l-11.74,7.77
	C361.12,213.45,359.99,213.39,359.26,212.7z"/>
<path class="st0" d="M470.99,204.69c8.67,9.05,13.49,21.11,13.46,33.64c0.05,12.62-4.77,24.77-13.46,33.91
	c-8.54,9.04-20.43,14.16-32.87,14.16c-12.46-0.03-24.37-5.15-32.97-14.16c-8.64-9.18-13.46-21.31-13.46-33.91
	c0.02-12.52,4.83-24.56,13.46-33.64c8.56-9.09,20.48-14.26,32.97-14.3C450.59,190.4,462.49,195.58,470.99,204.69z M438.12,208.7
	c-7.52-0.02-14.72,3.07-19.88,8.55c-11.04,12-11.04,30.46,0,42.46c10.35,10.95,27.62,11.44,38.57,1.09
	c0.38-0.35,0.74-0.72,1.09-1.09c11.22-11.93,11.22-30.53,0-42.46C452.77,211.79,445.61,208.7,438.12,208.7z"/>
<path class="st0" d="M576.81,194v55.45c0,20.44-16.57,37.01-37.01,37.01c-9.78-0.06-19.15-3.99-26.04-10.93
	c-6.88-6.98-10.76-16.37-10.8-26.18V194c-0.08-1.19,0.82-2.21,2.01-2.29c0.08-0.01,0.16-0.01,0.24,0h13.46
	c1.22-0.11,2.3,0.79,2.41,2.01c0.01,0.09,0.01,0.19,0.01,0.28v55.45c0.01,5.05,2.02,9.89,5.59,13.46c3.47,3.57,8.24,5.58,13.22,5.59
	c10.54,0,19.09-8.54,19.11-19.08V194c-0.07-1.19,0.83-2.21,2.01-2.28c0.05,0,0.09,0,0.14,0h13.46
	C575.85,191.74,576.82,192.76,576.81,194z"/>
<path class="st0" d="M598.61,282.95V194c-0.07-1.19,0.83-2.21,2.01-2.28c0.04,0,0.07,0,0.11,0h13.46c1.24-0.02,2.27,0.98,2.29,2.22
	c0,0.02,0,0.05,0,0.07v73.48h35.5c1.21,0.04,2.16,1.04,2.12,2.25c0,0,0,0,0,0v13.22c0.09,1.17-0.78,2.19-1.94,2.28
	c-0.06,0-0.12,0.01-0.17,0.01h-51.24c-1.19-0.02-2.14-0.99-2.12-2.18C598.6,283.02,598.61,282.99,598.61,282.95z"/>
<path class="st0" d="M788.03,275.08c1.57,1.84,1.35,4.6-0.49,6.17c-0.05,0.04-0.1,0.08-0.15,0.13l-5.08,4.27
	c-1.94,1.48-4.7,1.18-6.29-0.67c-2.66-3.36-5.21-6.29-7.87-9.35c-4.89,5.77-11.96,9.26-19.51,9.62
	c-15.82,0.71-29.41-11.14-30.85-26.92c-1.08-13.09,5.75-19.51,13.22-28.46l-1.75-2.42c-12.15-15.34,1.08-37.65,20.19-35.8
	c8.41,0.81,12.55,4.68,17.09,11.37c0.7,0.97,0.95,2.2,0.67,3.36c-0.18,1.2-0.87,2.26-1.88,2.93l-5.59,3.63
	c-2.01,1.37-4.75,0.85-6.12-1.16c-0.01-0.02-0.02-0.03-0.03-0.05c-1.61-2.42-2.79-4.14-5.75-4.54c-3.68-0.5-7.07,2.08-7.57,5.76
	c-0.23,1.69,0.19,3.41,1.18,4.8l26.71,32.97l6.12-7.47c1.58-1.87,4.35-2.17,6.29-0.67l5.21,4.27c1.86,1.59,2.15,4.35,0.67,6.29
	l-8.14,10.09L788.03,275.08z M757.75,263.57c-5.75-6.93-11.61-13.76-17.23-20.83c-3.73,4.14-7.74,8.41-7.2,14.43
	c0.71,7.27,6.97,12.72,14.27,12.41c4.21-0.17,8.06-2.43,10.26-6.02H757.75z"/>
<path class="st0" d="M309.06,407.44v-88.96c-0.07-1.19,0.83-2.21,2.01-2.28c0.05,0,0.09,0,0.14,0h37.01
	c18.38,0.01,33.27,14.91,33.26,33.29c-0.01,18.37-14.89,33.25-33.26,33.26h-21.36v24.7c0.07,1.19-0.83,2.21-2.01,2.28
	c-0.05,0-0.09,0-0.14,0h-13.46c-1.19,0.02-2.17-0.93-2.19-2.12C309.06,407.55,309.06,407.5,309.06,407.44z M348.22,364.84
	c8.53,0,15.44-6.91,15.45-15.44c0-8.53-6.91-15.44-15.44-15.45c0,0,0,0,0,0h-21.36v30.89H348.22z"/>
<path class="st0" d="M399.26,407.44v-88.96c-0.07-1.19,0.83-2.21,2.01-2.28c0.04,0,0.07,0,0.11,0h13.46c1.24,0,2.25,1.01,2.25,2.25
	c0,0.01,0,0.02,0,0.03v73.48h35.66c1.21,0.04,2.17,1.04,2.15,2.25v13.22c0.07,1.19-0.83,2.21-2.01,2.28c-0.05,0-0.09,0-0.14,0
	h-51.38c-1.19-0.02-2.14-0.99-2.12-2.18C399.26,407.51,399.26,407.47,399.26,407.44z"/>
<path class="st0" d="M491.45,408.11c-0.26,0.97-1.15,1.63-2.15,1.61h-13.9c-0.7,0.02-1.35-0.34-1.72-0.94
	c-0.54-0.52-0.7-1.33-0.4-2.02l28.06-89.02c0.31-0.92,1.15-1.56,2.12-1.61h14.7c0.97,0.05,1.81,0.69,2.12,1.61l28.06,88.96
	c0.3,0.69,0.14,1.49-0.4,2.02c-0.33,0.63-1.01,1-1.72,0.94h-13.9c-0.99-0.01-1.86-0.67-2.15-1.61l-3.73-11.88h-31.26L491.45,408.11z
	 M520.75,378.47l-10.09-31.79l-10.09,31.79H520.75z"/>
<path class="st0" d="M568.13,407.44v-88.82c0.04-1.25,1.04-2.25,2.29-2.29h17.23c0.78-0.01,1.5,0.4,1.88,1.08l40.74,63.92v-62.71
	c-0.04-1.21,0.91-2.23,2.12-2.29h13.46c1.25,0.04,2.25,1.04,2.29,2.29v88.82c-0.05,1.22-1.07,2.17-2.29,2.15h-17.23
	c-0.78,0.01-1.5-0.4-1.88-1.08l-40.84-63.86v62.78c0.04,1.15-0.87,2.12-2.02,2.15c-0.03,0-0.07,0-0.1,0h-13.46
	C569.13,409.56,568.18,408.62,568.13,407.44z"/>
<path class="st0" d="M722.99,394.22v13.22c0.06,1.21-0.87,2.23-2.08,2.29c-0.07,0-0.14,0-0.21,0H673.3
	c-1.24,0.02-2.27-0.98-2.29-2.22c0-0.02,0-0.05,0-0.07v-89.09c0.05-1.22,1.07-2.17,2.29-2.15h47.41c1.19-0.07,2.21,0.83,2.28,2.01
	c0,0.05,0,0.09,0,0.14v13.46c0,1.24-1.01,2.25-2.25,2.25c-0.01,0-0.02,0-0.03,0h-31.93v20.19h28.87c1.17,0,2.12,0.95,2.12,2.12
	c0,0.01,0,0.02,0,0.03v13.46c0,1.17-0.95,2.12-2.12,2.12l0,0h-28.87v20.19h31.93C721.89,392.14,722.89,393.04,722.99,394.22z"/>
<path class="st0" d="M782.17,409.73h-13.46c-1.19,0-2.16-0.96-2.16-2.15c0-0.05,0-0.09,0-0.14v-73.48h-23.25
	c-1.2-0.05-2.14-1.05-2.12-2.25v-13.22c-0.07-1.19,0.83-2.21,2.01-2.28c0.04,0,0.07,0,0.11,0h63.92c1.21-0.06,2.23,0.87,2.29,2.08
	c0,0.07,0,0.14,0,0.21v13.22c0,1.24-1.01,2.25-2.25,2.25c-0.01,0-0.02,0-0.03,0h-23.11v73.48
	C784.2,408.6,783.34,409.62,782.17,409.73z"/>
<g>
	<path class="st0" d="M251.68,231.61L251.68,231.61c10.65-0.08,12.19,2.11,8.01,11.88c-6.38,15.17-20.48,17.78-33.32,14.96
		c-3.71-0.82-3.27-3.64-2.55-6.47C227.23,239.2,236.65,232.08,251.68,231.61z M254.59,238.5c-10.12-3.17-22.49,4.36-23.75,14.24
		c10.13,2.84,20.65-3.07,23.49-13.2C254.42,239.19,254.51,238.85,254.59,238.5z"/>
	<path class="st0" d="M58.57,260.43c-12.6,0.38-23.61-8.45-25.97-20.84c-1.23-5.16-0.42-6.1,6.07-6.95
		c14.1-2.54,27.78,6.2,31.42,20.06c1.46,4.77,0.71,5.97-4.22,6.69L58.57,260.43z M63.48,253.52c-2.11-10.58-14.57-17.82-23.86-14.09
		C41.66,249.95,50.56,255.3,63.48,253.52z"/>
	<path class="st0" d="M65.01,283.17c-1.27,0.04-2.5,0.08-3.73,0.12c-5.63,0.41-10.28,4.55-11.34,10.1
		c-0.43,5.25,2.28,10.25,6.9,12.77c4.72,2.15,10.29,0.96,13.71-2.93c4.03-3.83,4.55-10.08,1.2-14.52c-1.63-2.35-1.21-4.25,0.45-5.34
		c3.18-2.11,6.98-5.09,10.49-5.01c6.89,0.25,13.72,1.45,20.28,3.58c5.39,2.21,10.67,4.71,15.79,7.49c1.66,0.57,3.5,0.32,4.95-0.68
		c1.86-1.84,0.28-3.48-1.58-4.63c-1.24-0.62-2.43-1.32-3.57-2.1c-6.87-5.63-14.02-10.99-20.42-17.08
		c-4.18-3.87-6.32-9.47-5.77-15.15c0.24-2.7,1.07-4.22,4.35-4.13c5.8,0.24,10.95-3.69,12.24-9.35c0.95-5.04-1.16-10.17-5.38-13.08
		c-4.84-2.52-10.75-1.7-14.71,2.06c-4.03,3.77-4.78,9.88-1.78,14.51c0.66,1.13,0.88,2.46,0.64,3.75c-3.41,8.06-1.34,15.27,3.1,22.11
		c1.5,2.29,3.39,4.41,5.16,6.98C83.9,271.43,72.1,270.05,65.01,283.17z"/>
	<path class="st0" d="M197.76,272.51c2.09-2.86,3.81-5,5.31-7.32c3.96-6.43,6.11-12.89,3.56-20.23c-0.97-2.08-0.85-4.51,0.33-6.49
		c2.37-4.96,1.14-10.89-3.02-14.49c-4.05-3.17-9.63-3.55-14.07-0.97c-4.6,3.25-6.58,9.09-4.9,14.47c1.79,5.07,6.85,8.22,12.19,7.59
		c2.7-0.32,3.53,0.8,4.01,2.92c0.98,5.3-0.46,10.75-3.93,14.87c-5.93,7.77-13.34,14.28-21.82,19.14c-1.61,0.81-3.08,1.89-4.33,3.18
		c-0.72,1.09-0.83,2.48-0.28,3.66c0.94,0.89,2.24,1.3,3.52,1.13c1.19-0.36,2.31-0.95,3.27-1.73c7.85-5.11,16.58-8.72,25.75-10.64
		c5.64-1.36,11.59-0.44,16.55,2.56c2.8,1.19,4.11,4.43,2.92,7.24c-0.18,0.42-0.41,0.81-0.68,1.17c-2.5,4.71-1.57,10.5,2.28,14.19
		c4.11,3.61,10.08,4.16,14.78,1.37c4.35-2.8,6.35-8.13,4.91-13.1c-1.78-6.52-5.83-9.08-14.63-8.93
		C221.99,269.61,210.32,270.57,197.76,272.51z"/>
	<path class="st0" d="M147.15,363.2c1.4,3.05,2.47,5.71,3.8,8.24c2.71,6.15,8.04,10.76,14.51,12.56c2.82,0.37,5.32,1.99,6.82,4.41
		c3.34,4.55,9.38,6.2,14.57,3.99c4.55-2.39,7.33-7.17,7.17-12.3c-0.84-4.94-4.43-8.95-9.25-10.32c-5.36-1.51-11.01,1.13-13.31,6.2
		c-0.56,1.8-2.46,2.81-4.26,2.25c-0.28-0.09-0.55-0.21-0.8-0.37c-2.23-0.78-4.2-2.15-5.71-3.96c-3.18-4.68-5.64-9.81-7.3-15.22
		c-1.75-7.82-1.75-16.03-2.82-24.02c-0.19-1.46-1.95-2.76-2.99-4.12c-1.14,1.36-2.89,2.56-3.25,4.09c-0.27,2.64-0.35,5.3-0.26,7.95
		c-0.2,8.79-2.2,17.45-5.87,25.45c-1.75,4.53-5.37,8.08-9.93,9.74c-2.73,0.81-5.36,1.53-7.14-2.37c-2.44-4.74-7.82-7.17-12.98-5.87
		c-5.44,1.45-9.21,6.41-9.15,12.04c0.16,5.35,3.93,9.91,9.15,11.07c5.15,1.48,10.64-0.82,13.21-5.52c0.92-1.34,2.33-2.27,3.93-2.6
		c7.16-0.65,13.51-4.86,16.91-11.2C143.97,370.09,145.37,366.84,147.15,363.2z"/>
	<path class="st0" d="M134.39,413.72c0.51-7.85,4.34-15.1,10.52-19.96c1.62-0.69,3.49-0.49,4.93,0.52
		c11.38,10.56,12.04,28.35,1.47,39.72c-0.32,0.35-0.65,0.68-0.99,1.01c-1.82,1.82-3.77,2.82-5.75,0.71
		C138.51,429.95,134.87,422.08,134.39,413.72z M146.79,400.73c-7.56,6.93-8.06,18.68-1.13,26.23c0.46,0.5,0.95,0.98,1.46,1.42
		c7.53-7.68,7.41-20.01-0.27-27.54c-0.02-0.02-0.03-0.03-0.05-0.05V400.73z"/>
	<path class="st0" d="M147.19,294.49c-1.62,0-4.13-0.75-9.12-6.58c-3.3-3.85-6.88-9.04-10.08-14.62
		c-4.83-8.41-12.96-24.95-13.1-41.23c-0.19-22.95,16.39-49.28,25.31-58.28c2.88-2.9,5.03-4.2,6.99-4.2c1.54,0,4.15,0.68,9.06,6.6
		c3.17,3.82,6.6,9.01,9.66,14.6c4.56,8.34,12.22,24.77,12.22,41.03c0.01,16.29-7.59,32.82-12.12,41.22
		c-3.06,5.67-6.49,10.92-9.65,14.77C151.43,293.79,148.76,294.49,147.19,294.49z M146.92,288.47
		C146.92,288.47,146.92,288.47,146.92,288.47C146.92,288.47,146.92,288.47,146.92,288.47z M147.2,175.74
		c-0.78,0.46-2.63,1.94-5.51,5.43c-3.1,3.76-6.4,8.66-9.3,13.79c-4.33,7.68-11.57,22.7-11.45,37.04
		c0.12,14.4,7.33,29.41,11.62,37.08c2.88,5.15,6.15,10.05,9.2,13.8c2.86,3.51,4.69,4.98,5.46,5.44c0.75-0.44,2.55-1.89,5.3-5.41
		c2.91-3.73,6.03-8.66,8.77-13.9c4.03-7.69,10.8-22.75,10.79-37.21c-0.01-14.41-6.8-29.34-10.85-36.95
		c-2.74-5.16-5.86-10.04-8.78-13.74C149.73,177.65,147.96,176.2,147.2,175.74z M146.89,175.59L146.89,175.59
		C146.89,175.59,146.89,175.59,146.89,175.59z"/>
	<path class="st0" d="M55.85,376.92c-4.59,0-8.91-0.29-12.53-0.84c-7.68-1.17-9.66-3.11-10.47-4.46c-0.84-1.4-1.5-3.94,0.91-11.24
		c1.59-4.83,4.17-10.58,7.28-16.2c4.69-8.49,14.63-24,28.49-32.49c10.78-6.61,24.36-8.92,33.86-9.7c12.58-1.03,23.21,0.1,28.97,1.51
		c4.06,0.99,6.32,2.2,7.35,3.9l0,0c0.8,1.33,1.56,3.93-0.96,11.21c-1.63,4.7-4.28,10.32-7.48,15.83
		c-4.77,8.22-14.86,23.27-28.76,31.63c-13.93,8.38-32.01,10.33-41.54,10.75C59.23,376.88,57.52,376.92,55.85,376.92z M38.19,368.44
		c0.76,0.42,2.93,1.22,7.36,1.78c4.69,0.59,10.52,0.74,16.42,0.42c8.66-0.48,25.02-2.39,37.37-9.82
		c12.3-7.4,21.54-20.92,25.96-28.32c2.99-5.01,5.55-10.2,7.2-14.62c1.55-4.12,1.87-6.4,1.86-7.28c-0.8-0.44-3.01-1.27-7.49-1.96
		c-4.82-0.74-10.71-1.06-16.6-0.92c-8.8,0.22-25.38,1.7-37.56,9.16c-12.23,7.5-21.33,21.42-25.67,29.05
		c-2.91,5.12-5.41,10.45-7.03,15.01C38.49,365.21,38.18,367.54,38.19,368.44z M37.92,368.26 M134.66,310.8L134.66,310.8
		L134.66,310.8z M134.33,310.26L134.33,310.26L134.33,310.26z"/>
	<path class="st0" d="M238.75,376.45c-1.67,0.01-3.38-0.02-5.1-0.09c-9.53-0.37-27.61-2.24-41.57-10.56
		c-13.94-8.3-24.08-23.3-28.89-31.49c-3.22-5.49-5.9-11.1-7.55-15.79c-2.55-7.26-1.8-9.87-1.01-11.2l0,0
		c1.01-1.7,3.27-2.92,7.33-3.93c5.75-1.43,16.37-2.62,28.95-1.64c9.5,0.74,23.08,2.99,33.89,9.55c13.89,8.43,23.9,23.89,28.63,32.35
		c3.13,5.61,5.74,11.35,7.35,16.16c2.43,7.29,1.79,9.83,0.96,11.24c-0.81,1.36-2.77,3.31-10.45,4.51
		C247.66,376.12,243.33,376.43,238.75,376.45z M159.97,310.51c0,0.88,0.33,3.16,1.89,7.27c1.68,4.4,4.26,9.58,7.27,14.58
		c4.44,7.38,13.74,20.85,26.07,28.19c12.38,7.38,28.75,9.21,37.41,9.65c5.89,0.3,11.72,0.12,16.41-0.49
		c4.43-0.58,6.59-1.39,7.35-1.82c0-0.9-0.32-3.23-1.85-7.48c-1.64-4.55-4.16-9.86-7.1-14.97c-4.37-7.61-13.52-21.48-25.79-28.92
		c-12.21-7.41-28.79-8.82-37.59-9c-5.88-0.12-11.78,0.23-16.59,0.99C162.97,309.22,160.76,310.07,159.97,310.51z M256.33,368.24
		L256.33,368.24L256.33,368.24z M256.63,367.71C256.63,367.71,256.63,367.71,256.63,367.71S256.63,367.71,256.63,367.71z
		 M159.67,310.7L159.67,310.7L159.67,310.7z M159.99,310.16C159.99,310.16,159.99,310.16,159.99,310.16L159.99,310.16z
		 M157.25,308.88L157.25,308.88L157.25,308.88z"/>
</g>
<path class="st1" d="M142.98-30.6"/>
</svg>
