<svg xmlns="http://www.w3.org/2000/svg" xmlns:xlink="http://www.w3.org/1999/xlink" width="777" height="270" viewBox="0 0 777 270">
  <defs>
    <clipPath id="clip-path">
      <rect id="Rectangle_273" data-name="Rectangle 273" width="777" height="270" transform="translate(6920 12394)" fill="#fff" stroke="#707070" stroke-width="1"/>
    </clipPath>
  </defs>
  <g id="Groupe_73" data-name="Groupe 73" transform="translate(-6920 -12394)">
    <g id="Groupe_de_masques_8" data-name="Groupe de masques 8" clip-path="url(#clip-path)">
      <g id="Logo_Soul_Planet" data-name="Logo Soul&amp;Planet" transform="translate(6887.916 12226.6)">
        <path id="Tracé_324" data-name="Tracé 324" d="M359.26,212.7a20.589,20.589,0,0,0-10.4-4,19.522,19.522,0,0,0-6.29,0,13.731,13.731,0,0,0-4.81,1.72,7.9,7.9,0,0,0-3.36,5.89c-.81,6.73,9.89,11.34,14.7,13.76,13.22,6.93,25.23,13.09,24.96,30.04a24.937,24.937,0,0,1-6.49,17.26,29.1,29.1,0,0,1-17.09,8.68,45.582,45.582,0,0,1-40.88-14,2.419,2.419,0,0,1-.54-1.88,1.957,1.957,0,0,1,1.08-1.61l11.78-7.47a2.351,2.351,0,0,1,2.79.27,26.987,26.987,0,0,0,11.24,5.92,27.64,27.64,0,0,0,11.34.64,12.012,12.012,0,0,0,6.93-3.36,6.952,6.952,0,0,0,1.61-4.81c0-6.26-10.43-10.93-14.97-13.46-14.4-7.33-26.92-13.9-24.56-32.47a25.73,25.73,0,0,1,11.47-18.94,34.049,34.049,0,0,1,11.3-4.07,43.782,43.782,0,0,1,11.88-.4,37.939,37.939,0,0,1,23.11,11.2,2.233,2.233,0,0,1,.54,1.88,1.95,1.95,0,0,1-.94,1.58l-11.74,7.77A2.061,2.061,0,0,1,359.26,212.7Z" fill="#999"/>
        <path id="Tracé_325" data-name="Tracé 325" d="M470.99,204.69a49.105,49.105,0,0,1,0,67.55,45.215,45.215,0,0,1-32.87,14.16,45.741,45.741,0,0,1-32.97-14.16,49.49,49.49,0,0,1-13.46-33.91,48.936,48.936,0,0,1,13.46-33.64,45.483,45.483,0,0,1,32.97-14.3A45,45,0,0,1,470.99,204.69Zm-32.87,4.01a27.205,27.205,0,0,0-19.88,8.55,31.357,31.357,0,0,0,0,42.46,27.286,27.286,0,0,0,38.57,1.09c.38-.35.74-.72,1.09-1.09a30.988,30.988,0,0,0,0-42.46A27.137,27.137,0,0,0,438.12,208.7Z" fill="#999"/>
        <path id="Tracé_326" data-name="Tracé 326" d="M576.81,194v55.45a36.855,36.855,0,0,1-63.05,26.08,37.5,37.5,0,0,1-10.8-26.18V194a2.151,2.151,0,0,1,2.01-2.29.964.964,0,0,1,.24,0h13.46a2.22,2.22,0,0,1,2.41,2.01,2.618,2.618,0,0,1,.01.28v55.45a19.089,19.089,0,0,0,5.59,13.46,18.484,18.484,0,0,0,13.22,5.59,19.115,19.115,0,0,0,19.11-19.08V194a2.15,2.15,0,0,1,2.01-2.28h13.6A2.241,2.241,0,0,1,576.81,194Z" fill="#999"/>
        <path id="Tracé_327" data-name="Tracé 327" d="M598.61,282.95V194a2.15,2.15,0,0,1,2.01-2.28h13.57a2.262,2.262,0,0,1,2.29,2.22v73.55h35.5a2.182,2.182,0,0,1,2.12,2.25h0v13.22a2.118,2.118,0,0,1-1.94,2.28c-.06,0-.12.01-.17.01H600.75a2.147,2.147,0,0,1-2.12-2.18A.18.18,0,0,1,598.61,282.95Z" fill="#999"/>
        <path id="Tracé_328" data-name="Tracé 328" d="M788.03,275.08a4.375,4.375,0,0,1-.49,6.17,1.746,1.746,0,0,0-.15.13l-5.08,4.27a4.611,4.611,0,0,1-6.29-.67c-2.66-3.36-5.21-6.29-7.87-9.35a27.294,27.294,0,0,1-19.51,9.62,29.643,29.643,0,0,1-30.85-26.92c-1.08-13.09,5.75-19.51,13.22-28.46l-1.75-2.42c-12.15-15.34,1.08-37.65,20.19-35.8,8.41.81,12.55,4.68,17.09,11.37a4.107,4.107,0,0,1,.67,3.36,4.287,4.287,0,0,1-1.88,2.93l-5.59,3.63a4.4,4.4,0,0,1-6.12-1.16c-.01-.02-.02-.03-.03-.05-1.61-2.42-2.79-4.14-5.75-4.54a6.727,6.727,0,0,0-6.39,10.56l26.71,32.97,6.12-7.47a4.571,4.571,0,0,1,6.29-.67l5.21,4.27a4.6,4.6,0,0,1,.67,6.29l-8.14,10.09Zm-30.28-11.51c-5.75-6.93-11.61-13.76-17.23-20.83-3.73,4.14-7.74,8.41-7.2,14.43a13.752,13.752,0,0,0,14.27,12.41,12.634,12.634,0,0,0,10.26-6.02h-.1Z" fill="#999"/>
        <path id="Tracé_329" data-name="Tracé 329" d="M309.06,407.44V318.48a2.15,2.15,0,0,1,2.01-2.28h37.15a33.275,33.275,0,0,1,0,66.55H326.86v24.7a2.15,2.15,0,0,1-2.01,2.28h-13.6a2.155,2.155,0,0,1-2.19-2.12C309.06,407.55,309.06,407.5,309.06,407.44Zm39.16-42.6a15.445,15.445,0,1,0,.01-30.89H326.87v30.89h21.35Z" fill="#999"/>
        <path id="Tracé_330" data-name="Tracé 330" d="M399.26,407.44V318.48a2.15,2.15,0,0,1,2.01-2.28h13.57a2.253,2.253,0,0,1,2.25,2.25v73.51h35.66a2.22,2.22,0,0,1,2.15,2.25v13.22a2.15,2.15,0,0,1-2.01,2.28H401.37a2.147,2.147,0,0,1-2.12-2.18A.248.248,0,0,0,399.26,407.44Z" fill="#999"/>
        <path id="Tracé_331" data-name="Tracé 331" d="M491.45,408.11a2.177,2.177,0,0,1-2.15,1.61H475.4a1.955,1.955,0,0,1-1.72-.94,1.81,1.81,0,0,1-.4-2.02l28.06-89.02a2.368,2.368,0,0,1,2.12-1.61h14.7a2.368,2.368,0,0,1,2.12,1.61l28.06,88.96a1.813,1.813,0,0,1-.4,2.02,1.774,1.774,0,0,1-1.72.94h-13.9a2.284,2.284,0,0,1-2.15-1.61l-3.73-11.88H495.18Zm29.3-29.64-10.09-31.79-10.09,31.79Z" fill="#999"/>
        <path id="Tracé_332" data-name="Tracé 332" d="M568.13,407.44V318.62a2.364,2.364,0,0,1,2.29-2.29h17.23a2.114,2.114,0,0,1,1.88,1.08l40.74,63.92V318.62a2.23,2.23,0,0,1,2.12-2.29h13.46a2.364,2.364,0,0,1,2.29,2.29v88.82a2.249,2.249,0,0,1-2.29,2.15H628.62a2.114,2.114,0,0,1-1.88-1.08L585.9,344.65v62.78a2.082,2.082,0,0,1-2.02,2.15H570.32A2.226,2.226,0,0,1,568.13,407.44Z" fill="#999"/>
        <path id="Tracé_333" data-name="Tracé 333" d="M722.99,394.22v13.22a2.183,2.183,0,0,1-2.08,2.29H673.3a2.262,2.262,0,0,1-2.29-2.22V318.35a2.249,2.249,0,0,1,2.29-2.15h47.41a2.15,2.15,0,0,1,2.28,2.01v13.6a2.253,2.253,0,0,1-2.25,2.25H688.78v20.19h28.87a2.121,2.121,0,0,1,2.12,2.12v13.49a2.121,2.121,0,0,1-2.12,2.12H688.78v20.19h31.93A2.236,2.236,0,0,1,722.99,394.22Z" fill="#999"/>
        <path id="Tracé_334" data-name="Tracé 334" d="M782.17,409.73H768.71a2.155,2.155,0,0,1-2.16-2.15V333.96H743.3a2.214,2.214,0,0,1-2.12-2.25V318.49a2.15,2.15,0,0,1,2.01-2.28h64.03a2.183,2.183,0,0,1,2.29,2.08v13.43a2.253,2.253,0,0,1-2.25,2.25H784.12v73.48A2.15,2.15,0,0,1,782.17,409.73Z" fill="#999"/>
        <g id="Groupe_72" data-name="Groupe 72">
          <path id="Tracé_335" data-name="Tracé 335" d="M251.68,231.61h0c10.65-.08,12.19,2.11,8.01,11.88-6.38,15.17-20.48,17.78-33.32,14.96-3.71-.82-3.27-3.64-2.55-6.47C227.23,239.2,236.65,232.08,251.68,231.61Zm2.91,6.89c-10.12-3.17-22.49,4.36-23.75,14.24a19.055,19.055,0,0,0,23.49-13.2C254.42,239.19,254.51,238.85,254.59,238.5Z" fill="#999"/>
          <path id="Tracé_336" data-name="Tracé 336" d="M58.57,260.43A25.648,25.648,0,0,1,32.6,239.59c-1.23-5.16-.42-6.1,6.07-6.95A27.46,27.46,0,0,1,70.09,252.7c1.46,4.77.71,5.97-4.22,6.69Zm4.91-6.91c-2.11-10.58-14.57-17.82-23.86-14.09C41.66,249.95,50.56,255.3,63.48,253.52Z" fill="#999"/>
          <path id="Tracé_337" data-name="Tracé 337" d="M65.01,283.17l-3.73.12a12.466,12.466,0,0,0-11.34,10.1,13.31,13.31,0,0,0,6.9,12.77,11.763,11.763,0,0,0,13.71-2.93,10.944,10.944,0,0,0,1.2-14.52c-1.63-2.35-1.21-4.25.45-5.34,3.18-2.11,6.98-5.09,10.49-5.01a74.421,74.421,0,0,1,20.28,3.58,161.534,161.534,0,0,1,15.79,7.49,5.551,5.551,0,0,0,4.95-.68c1.86-1.84.28-3.48-1.58-4.63a30.353,30.353,0,0,1-3.57-2.1c-6.87-5.63-14.02-10.99-20.42-17.08a18.248,18.248,0,0,1-5.77-15.15c.24-2.7,1.07-4.22,4.35-4.13a12.041,12.041,0,0,0,12.24-9.35,12.973,12.973,0,0,0-5.38-13.08,12.786,12.786,0,0,0-14.71,2.06,11.386,11.386,0,0,0-1.78,14.51,5.449,5.449,0,0,1,.64,3.75c-3.41,8.06-1.34,15.27,3.1,22.11,1.5,2.29,3.39,4.41,5.16,6.98C83.9,271.43,72.1,270.05,65.01,283.17Z" fill="#999"/>
          <path id="Tracé_338" data-name="Tracé 338" d="M197.76,272.51c2.09-2.86,3.81-5,5.31-7.32,3.96-6.43,6.11-12.89,3.56-20.23a6.944,6.944,0,0,1,.33-6.49,12.2,12.2,0,0,0-3.02-14.49,12.585,12.585,0,0,0-14.07-.97,12.975,12.975,0,0,0-4.9,14.47,11.5,11.5,0,0,0,12.19,7.59c2.7-.32,3.53.8,4.01,2.92a17.991,17.991,0,0,1-3.93,14.87A73.3,73.3,0,0,1,175.42,282a16.148,16.148,0,0,0-4.33,3.18,3.766,3.766,0,0,0-.28,3.66,4.3,4.3,0,0,0,3.52,1.13,9.617,9.617,0,0,0,3.27-1.73,75.6,75.6,0,0,1,25.75-10.64,22.013,22.013,0,0,1,16.55,2.56,5.525,5.525,0,0,1,2.92,7.24,5.675,5.675,0,0,1-.68,1.17,11.911,11.911,0,0,0,2.28,14.19,12.632,12.632,0,0,0,14.78,1.37,11.71,11.71,0,0,0,4.91-13.1c-1.78-6.52-5.83-9.08-14.63-8.93C221.99,269.61,210.32,270.57,197.76,272.51Z" fill="#999"/>
          <path id="Tracé_339" data-name="Tracé 339" d="M147.15,363.2c1.4,3.05,2.47,5.71,3.8,8.24A22.429,22.429,0,0,0,165.46,384a9.475,9.475,0,0,1,6.82,4.41,12.168,12.168,0,0,0,14.57,3.99,13.421,13.421,0,0,0,7.17-12.3,12.977,12.977,0,0,0-9.25-10.32,11.264,11.264,0,0,0-13.31,6.2,3.395,3.395,0,0,1-5.06,1.88,13.043,13.043,0,0,1-5.71-3.96,56.644,56.644,0,0,1-7.3-15.22c-1.75-7.82-1.75-16.03-2.82-24.02-.19-1.46-1.95-2.76-2.99-4.12-1.14,1.36-2.89,2.56-3.25,4.09a58.627,58.627,0,0,0-.26,7.95,64.562,64.562,0,0,1-5.87,25.45,16.809,16.809,0,0,1-9.93,9.74c-2.73.81-5.36,1.53-7.14-2.37a11.454,11.454,0,0,0-12.98-5.87A12.33,12.33,0,0,0,99,381.57a11.7,11.7,0,0,0,9.15,11.07,11.458,11.458,0,0,0,13.21-5.52,6.308,6.308,0,0,1,3.93-2.6,21.385,21.385,0,0,0,16.91-11.2C143.97,370.09,145.37,366.84,147.15,363.2Z" fill="#999"/>
          <path id="Tracé_340" data-name="Tracé 340" d="M134.39,413.72a27.674,27.674,0,0,1,10.52-19.96,5.112,5.112,0,0,1,4.93.52A28.094,28.094,0,0,1,151.31,434c-.32.35-.65.68-.99,1.01-1.82,1.82-3.77,2.82-5.75.71A32.994,32.994,0,0,1,134.39,413.72Zm12.4-12.99a18.562,18.562,0,0,0-1.13,26.23,17.77,17.77,0,0,0,1.46,1.42,19.475,19.475,0,0,0-.27-27.54l-.05-.05v-.06Z" fill="#999"/>
          <path id="Tracé_341" data-name="Tracé 341" d="M147.19,294.49c-1.62,0-4.13-.75-9.12-6.58a98.636,98.636,0,0,1-10.08-14.62c-4.83-8.41-12.96-24.95-13.1-41.23-.19-22.95,16.39-49.28,25.31-58.28,2.88-2.9,5.03-4.2,6.99-4.2,1.54,0,4.15.68,9.06,6.6a95.467,95.467,0,0,1,9.66,14.6c4.56,8.34,12.22,24.77,12.22,41.03.01,16.29-7.59,32.82-12.12,41.22a95.973,95.973,0,0,1-9.65,14.77C151.43,293.79,148.76,294.49,147.19,294.49Zm-.27-6.02Zm.28-112.73c-.78.46-2.63,1.94-5.51,5.43a98.93,98.93,0,0,0-9.3,13.79c-4.33,7.68-11.57,22.7-11.45,37.04.12,14.4,7.33,29.41,11.62,37.08a99.82,99.82,0,0,0,9.2,13.8c2.86,3.51,4.69,4.98,5.46,5.44.75-.44,2.55-1.89,5.3-5.41a94.731,94.731,0,0,0,8.77-13.9c4.03-7.69,10.8-22.75,10.79-37.21-.01-14.41-6.8-29.34-10.85-36.95a94.421,94.421,0,0,0-8.78-13.74C149.73,177.65,147.96,176.2,147.2,175.74Zm-.31-.15Z" fill="#999"/>
          <path id="Tracé_342" data-name="Tracé 342" d="M55.85,376.92a85.518,85.518,0,0,1-12.53-.84c-7.68-1.17-9.66-3.11-10.47-4.46-.84-1.4-1.5-3.94.91-11.24a98.833,98.833,0,0,1,7.28-16.2c4.69-8.49,14.63-24,28.49-32.49,10.78-6.61,24.36-8.92,33.86-9.7,12.58-1.03,23.21.1,28.97,1.51,4.06.99,6.32,2.2,7.35,3.9h0c.8,1.33,1.56,3.93-.96,11.21a95.046,95.046,0,0,1-7.48,15.83c-4.77,8.22-14.86,23.27-28.76,31.63-13.93,8.38-32.01,10.33-41.54,10.75C59.23,376.88,57.52,376.92,55.85,376.92Zm-17.66-8.48c.76.42,2.93,1.22,7.36,1.78a95.505,95.505,0,0,0,16.42.42c8.66-.48,25.02-2.39,37.37-9.82,12.3-7.4,21.54-20.92,25.96-28.32a93.962,93.962,0,0,0,7.2-14.62c1.55-4.12,1.87-6.4,1.86-7.28-.8-.44-3.01-1.27-7.49-1.96a98.211,98.211,0,0,0-16.6-.92c-8.8.22-25.38,1.7-37.56,9.16-12.23,7.5-21.33,21.42-25.67,29.05a98.343,98.343,0,0,0-7.03,15.01C38.49,365.21,38.18,367.54,38.19,368.44Zm-.27-.18,96.74-57.46Zm-.33-.54Z" fill="#999"/>
          <path id="Tracé_343" data-name="Tracé 343" d="M238.75,376.45c-1.67.01-3.38-.02-5.1-.09-9.53-.37-27.61-2.24-41.57-10.56-13.94-8.3-24.08-23.3-28.89-31.49a95.172,95.172,0,0,1-7.55-15.79c-2.55-7.26-1.8-9.87-1.01-11.2h0c1.01-1.7,3.27-2.92,7.33-3.93,5.75-1.43,16.37-2.62,28.95-1.64,9.5.74,23.08,2.99,33.89,9.55,13.89,8.43,23.9,23.89,28.63,32.35a99.7,99.7,0,0,1,7.35,16.16c2.43,7.29,1.79,9.83.96,11.24-.81,1.36-2.77,3.31-10.45,4.51A86.808,86.808,0,0,1,238.75,376.45Zm-78.78-65.94c0,.88.33,3.16,1.89,7.27a95.822,95.822,0,0,0,7.27,14.58c4.44,7.38,13.74,20.85,26.07,28.19,12.38,7.38,28.75,9.21,37.41,9.65a94.939,94.939,0,0,0,16.41-.49c4.43-.58,6.59-1.39,7.35-1.82,0-.9-.32-3.23-1.85-7.48a97.856,97.856,0,0,0-7.1-14.97c-4.37-7.61-13.52-21.48-25.79-28.92-12.21-7.41-28.79-8.82-37.59-9a97.7,97.7,0,0,0-16.59.99C162.97,309.22,160.76,310.07,159.97,310.51Zm96.36,57.73Zm.3-.53ZM159.67,310.7Zm.32-.54Zm-2.74-1.28Z" fill="#999"/>
        </g>
        <path id="Tracé_344" data-name="Tracé 344" d="M142.98-30.6" fill="none" stroke="#ff0001" stroke-miterlimit="10" stroke-width="4"/>
      </g>
    </g>
  </g>
</svg>
